<svg xmlns="http://www.w3.org/2000/svg" width="432" height="164" viewBox="0 0 432 164" fill="none">
<path d="M2 94.6004V120.6H64.4V149H88V120.6H109.8V99.4004H88V19.4004H57.2L2 94.6004ZM64.4 43.6004V99.4004H23.6L64.4 43.6004Z" fill="#306FF5"/>
<path fill-rule="evenodd" clip-rule="evenodd" d="M0 94.6004C0 94.1747 0.135833 93.7601 0.387735 93.4169L55.5877 18.2169C55.9645 17.7036 56.5632 17.4004 57.2 17.4004H88C89.1046 17.4004 90 18.2958 90 19.4004V97.4004H109.8C110.905 97.4004 111.8 98.2958 111.8 99.4004V120.6C111.8 121.705 110.905 122.6 109.8 122.6H90V149C90 150.105 89.1046 151 88 151H64.4C63.2954 151 62.4 150.105 62.4 149V122.6H2C0.895431 122.6 0 121.705 0 120.6V94.6004ZM57.2 19.4004H88V99.4004H109.8V120.6H88V149H64.4V120.6H2V94.6004L57.2 19.4004ZM64.4 43.6004L23.6 99.4004H64.4V43.6004ZM62.4 97.4004V49.7242L27.54 97.4004H62.4Z" fill="#23487C"/>
<path d="M322 94.6004V120.6H384.4V149H408V120.6H429.8V99.4004H408V19.4004H377.2L322 94.6004ZM384.4 43.6004V99.4004H343.6L384.4 43.6004Z" fill="#306FF5"/>
<path fill-rule="evenodd" clip-rule="evenodd" d="M320 94.6004C320 94.1747 320.136 93.7601 320.388 93.4169L375.588 18.2169C375.965 17.7036 376.563 17.4004 377.2 17.4004H408C409.105 17.4004 410 18.2958 410 19.4004V97.4004H429.8C430.905 97.4004 431.8 98.2958 431.8 99.4004V120.6C431.8 121.705 430.905 122.6 429.8 122.6H410V149C410 150.105 409.105 151 408 151H384.4C383.295 151 382.4 150.105 382.4 149V122.6H322C320.895 122.6 320 121.705 320 120.6V94.6004ZM377.2 19.4004H408V99.4004H429.8V120.6H408V149H384.4V120.6H322V94.6004L377.2 19.4004ZM384.4 43.6004L343.6 99.4004H384.4V43.6004ZM382.4 97.4004V49.7242L347.54 97.4004H382.4Z" fill="#23487C"/>
<path d="M252.503 163.323H177.168C145.503 163.323 119.833 137.653 119.833 105.988V63.6319C119.833 31.967 145.503 6.29688 177.168 6.29688H252.503C284.168 6.29688 309.838 31.967 309.838 63.6319V105.99C309.835 137.653 284.165 163.323 252.503 163.323Z" fill="#1666DB"/>
<mask id="mask0_28370_72729" style="mask-type:alpha" maskUnits="userSpaceOnUse" x="119" y="6" width="191" height="158">
<path d="M252.503 163.324H177.168C145.503 163.324 119.833 137.654 119.833 105.989V63.6329C119.833 31.968 145.503 6.29785 177.168 6.29785H252.503C284.168 6.29785 309.838 31.968 309.838 63.6329V105.991C309.836 137.654 284.165 163.324 252.503 163.324Z" fill="#1666DB"/>
</mask>
<g mask="url(#mask0_28370_72729)">
<path d="M211.462 0.550781V108.855L126.565 144.566L117.916 137.002V0.550781H211.462Z" fill="#3A7FF9"/>
<path d="M211.462 0.516602V108.821L303.761 144.532L313.166 136.968V0.516602H211.462Z" fill="#306FF5"/>
</g>
<path d="M233.725 108.48C231.392 106.805 228.828 106.555 226.065 106.949C223.802 107.274 221.717 108.586 220.384 110.434C218.544 112.988 218.652 115.955 218.392 118.934C218.183 121.305 218.348 123.692 218.49 126.06C218.598 127.877 219.186 130.137 220.372 131.56C221.658 133.107 223.89 133.243 225.748 133.436C227.506 133.617 229.15 133.795 230.939 133.565C232.111 133.413 233.567 133.143 234.516 132.382C236.243 131.003 236.24 128.756 235.933 126.738" fill="#185EB2"/>
<path d="M201.5 109.798C203.351 109.081 207.58 108.702 209.093 109.986C209.647 110.455 210.057 111.074 210.377 111.726C211.142 113.293 211.405 115.104 211.111 116.824C210.82 118.545 209.975 120.166 208.732 121.393C205.895 124.195 201.031 121.909 199.245 118.994C197.611 116.326 197.384 113.048 198.209 110.074C199.222 106.427 201.856 103.594 205.075 101.682L249.998 101.54C251.173 102.798 251.668 104.561 251.763 106.28C251.823 107.375 251.732 108.473 251.506 109.543C251.042 111.744 249.449 113.617 247.962 115.238C246.338 117.009 244.49 118.571 242.47 119.873C239.263 121.94 235.655 123.324 231.926 124.104C230.74 124.352 229.477 124.156 228.343 123.731C227.235 123.316 226.266 122.566 225.511 121.653C224.065 119.898 223.32 117.244 223.841 115.009C224.526 112.058 227.704 111.385 230.153 110.349C232.284 109.447 231.637 110.509 233.297 108.852L218.292 112.576" fill="#185EB2"/>
<path d="M208.41 109.045C210.572 106.797 214.06 105.929 217.023 106.898C218.317 107.321 219.554 108.122 220.173 109.336C220.173 109.336 220.843 120.006 219.593 130.029C219.433 131.303 218.353 132.37 217.124 132.743C216.438 132.952 215.709 132.95 214.993 132.947C213.84 132.942 212.686 132.937 211.534 132.929C210.168 132.921 208.786 132.913 207.467 132.566C206.147 132.218 204.877 131.483 204.16 130.321C203.451 129.169 203.366 127.746 203.433 126.395C203.49 125.238 203.645 124.089 203.892 122.957" fill="#185EB2"/>
<path d="M236.088 130.35C237.761 130.566 239.454 130.597 241.129 130.44C243.653 130.205 246.269 129.476 248.098 127.584C249.454 126.182 250.256 124.267 250.818 122.334C251.044 121.556 251.235 120.762 251.348 119.955C251.699 117.422 251.248 114.85 250.797 112.334L249.555 110.857L231.653 116.404" fill="#185EB2"/>
<path d="M248.897 125.692C247.799 127.679 245.895 129.158 243.768 129.945C242.322 130.481 240.776 130.71 239.237 130.702C238.665 130.7 236.09 130.929 236.109 130.107C236.851 129.914 237.619 130.153 238.41 129.883C239.194 129.615 239.91 129.143 240.459 128.522C241.013 127.89 241.389 127.11 241.554 126.285C241.606 126.022 241.861 124.282 241.307 124.517C238.109 125.862 234.993 126.568 231.493 126.066C230.263 125.89 229.052 125.581 227.892 125.14C226.887 124.759 226.366 123.883 225.846 122.965C225.227 121.878 224.786 120.702 224.348 119.53C224.093 118.849 224.225 118.295 224.258 117.602C224.292 116.932 224.307 116.942 224.879 117.231C225.936 117.767 226.637 118.442 227.864 118.715C228.936 118.955 230.042 119.009 231.134 119.045C232.58 119.091 234.047 119.138 235.456 118.813C238.168 118.187 240.371 116.272 242.415 114.383C244.044 112.875 245.665 111.323 246.871 109.46C248.078 107.597 248.851 105.372 248.609 103.166C249.031 102.594 249.42 101.968 249.926 101.47C250.044 101.354 250.188 101.231 250.353 101.259C250.477 101.28 250.567 101.38 250.642 101.481C251.139 102.153 251.297 103.014 251.395 103.847C251.696 106.442 251.526 109.091 250.895 111.628C250.771 112.125 250.627 112.628 250.642 113.143C250.652 113.558 250.766 113.963 250.853 114.37C251.183 115.914 250.98 117.452 250.92 119.004C250.828 121.45 250.062 123.584 248.897 125.692Z" fill="#185EB2"/>
<path d="M230.575 107.253C232.436 107.117 234.307 106.918 236.096 106.387C237.884 105.859 239.603 104.98 240.902 103.64C234.15 105.088 227.212 104.266 220.402 103.761C218.634 103.63 216.874 103.38 215.132 103.163C213.926 103.014 212.619 103.186 211.4 103.135C210.132 103.081 208.869 102.98 207.609 102.828C208.315 103.145 209.021 103.465 209.727 103.782C211.578 104.614 213.374 105.382 215.315 105.993C216.828 106.47 218.379 106.805 219.946 107.034C223.464 107.547 227.039 107.514 230.575 107.253Z" fill="#185EB2"/>
<path d="M259.018 68.1711C258.969 66.8205 258.719 65.5293 258.588 64.184C258.469 62.9752 258.201 61.7819 257.931 60.5937C257.32 57.8979 256.335 55.5319 254.972 53.1092C252.454 48.6453 249.116 45.6582 244.364 43.818C241.928 42.8747 239.423 42.1169 236.869 41.568C231.802 40.4778 226.557 40.2303 221.415 40.9108C220.65 41.0113 219.884 41.0706 219.119 41.1221C216.877 40.3025 214.294 40.635 211.941 41.2278C210.616 41.5602 209.31 41.9675 208.047 42.4855C206.985 42.9185 205.415 43.4494 204.606 44.2896C202.92 46.0396 200.902 47.4803 199.323 49.4133C198.487 50.434 197.717 51.5164 197.15 52.7046C196.585 53.8901 196.23 55.1659 195.933 56.4468C194.962 60.6608 194.918 64.8747 194.624 69.153C194.323 73.5448 194.413 77.9649 194.89 82.3412C195 83.3489 195.129 84.3515 195.281 85.3541C195.619 87.5989 196.085 89.8515 196.964 91.952C197.4 92.9958 197.941 94.001 198.616 94.9108C198.923 95.3231 199.343 95.6839 199.622 96.1092C199.9 96.537 200.052 96.97 200.41 97.3669C201.856 98.9675 203.748 100.086 205.619 101.158C206.56 101.697 207.511 102.233 208.524 102.622C211.085 103.607 213.915 103.604 216.652 103.416C218.132 103.313 219.622 103.161 221.047 102.738C222.39 102.339 223.745 102.733 225.158 102.746C228.173 102.772 231.15 102.601 234.152 102.4C238.114 102.135 242.137 100.918 245.884 99.5937C247.351 99.0757 248.789 98.47 250.178 97.7638C251.323 97.1814 252.353 96.4468 253.294 95.5551C254.676 94.2432 255.768 92.7175 256.678 91.0757C257.498 89.5937 258.026 87.9907 258.307 86.2999C258.668 84.1247 258.89 81.9907 258.977 79.769C259.042 78.1324 259.181 76.4984 259.173 74.8592C259.163 72.6247 259.101 70.3979 259.018 68.1711Z" fill="#185EB2"/>
<path d="M260.835 67.9704C260.81 66.4627 261.021 64.9292 260.864 63.4241C260.554 60.4524 260.194 57.7643 259.25 54.9241C258.856 53.7385 258.289 52.3003 257.691 51.2127C256.418 48.8957 254.431 46.3338 251.964 45.1612C251.369 44.8777 250.794 44.406 250.377 43.9241C248.944 42.2643 248.727 40.3751 250.359 38.7179C250.998 38.071 251.82 37.6354 252.642 37.2488C253.075 37.0452 253.596 36.5813 253.31 36.1972C253.147 35.9808 252.825 35.9833 252.557 36.0065C248.382 36.3751 244.173 36.9318 240.023 37.2617C237.92 37.4292 235.82 37.5967 233.717 37.7771C232.967 37.8416 232.217 37.9241 231.472 38.0246C228.972 38.3674 226.472 38.7153 223.977 39.0761C220.619 39.5607 217.292 40.1973 214.042 41.1921C213.369 41.3983 212.828 41.5194 212.255 41.7771C212.039 41.8751 211.817 41.9911 211.58 42.138C211.866 41.9576 212.665 42.0091 213.018 41.9447C213.549 41.8493 214.072 41.723 214.601 41.6148C216.812 41.1586 219.039 41.2308 221.255 40.9369C226.397 40.2565 231.639 40.504 236.709 41.5942C239.263 42.1431 241.768 42.9009 244.204 43.8442C248.956 45.6844 252.297 48.6715 254.812 53.1354C256.178 55.5581 257.16 57.9241 257.771 60.6199C258.042 61.8081 258.31 63.0014 258.428 64.2101C258.56 65.5529 258.81 66.8442 258.859 68.1973C258.941 70.4241 259 72.6509 259.008 74.8777C259.013 76.5168 258.874 78.1509 258.812 79.7875C258.725 82.0065 258.503 84.1431 258.142 86.3184C257.294 91.4369 251.73 95.955 246.969 97.4885C244.477 98.29 241.835 98.4782 239.225 98.6328C235.817 98.8339 232.402 98.9936 228.99 98.9112C225.995 98.839 222.822 98.8235 219.871 98.5375C217.603 98.3184 215.353 98.705 213.062 98.3493C210.923 98.0168 208.838 97.357 206.892 96.4112C203.057 94.5426 200.825 91.7746 198.191 88.6096C197.539 87.8261 196.913 86.3545 196.101 85.8854C195.9 87.3107 196.212 89.5529 196.665 90.9498C197.237 92.6973 198.158 94.3235 199.273 95.7771C201.426 98.5813 203.841 100.749 207.121 102.195C209.054 103.048 211.335 103.104 213.441 103.424C214.745 103.623 216.052 103.764 217.364 103.883C218.598 103.996 219.833 104.156 221.07 104.213C222.611 104.28 224.158 104.277 225.701 104.272C226.642 104.269 227.585 104.249 228.523 104.171C229.763 104.068 231.003 104.035 232.245 104.043C235.634 104.068 238.371 104.231 241.786 104.022C246.083 103.759 250.382 101.246 253.621 98.2359C255.067 96.8906 256.114 95.3467 257.023 93.6509C257.013 93.6586 257.003 93.6663 256.993 93.6715C257.023 93.6148 257.054 93.5581 257.088 93.5014C257.48 92.8261 257.975 92.3622 258.294 91.6328C258.56 91.0271 258.59 90.473 258.761 89.8596C258.977 89.071 259.312 88.3184 259.518 87.522C260.111 85.2333 260.325 82.8674 260.495 80.5091C260.65 78.3674 260.771 76.2205 260.766 74.071C260.763 72.0297 260.869 70.004 260.835 67.9704ZM254.882 95.9421C255.459 95.4034 256.013 94.8338 256.536 94.2308C256.013 94.8338 255.459 95.4034 254.882 95.9421Z" fill="#185EB2"/>
<path d="M204.908 78.9078C204.913 78.9026 204.918 78.9 204.926 78.8974C204.799 78.8691 204.67 78.8485 204.536 78.833C204.66 78.8562 204.784 78.882 204.908 78.9078Z" fill="#185EB2"/>
<path d="M204.931 78.9549C204.931 78.9342 204.933 78.9162 204.933 78.8956C204.931 78.8956 204.926 78.893 204.923 78.893C204.918 78.8982 204.913 78.9007 204.905 78.9033C204.781 78.8775 204.658 78.8543 204.534 78.8286C204.516 78.826 204.498 78.8234 204.477 78.8234V78.8183C203.946 78.71 203.418 78.6043 202.887 78.4961C203.462 79.1327 204.158 79.2203 204.931 78.9549Z" fill="#185EB2"/>
<path d="M204.923 78.895C204.926 78.895 204.931 78.8977 204.934 78.8977C204.934 78.895 204.934 78.8923 204.934 78.8896C204.931 78.8896 204.928 78.8923 204.923 78.895Z" fill="#185EB2"/>
<path d="M204.48 78.8259C204.498 78.8285 204.516 78.8311 204.537 78.8337C204.519 78.8311 204.501 78.8259 204.48 78.8232V78.8259Z" fill="#185EB2"/>
<path d="M236.92 104.439L214.114 103.362C203.534 103.362 196.794 96.5011 195.503 83.9959L195.323 82.532C194.799 78.2923 194.513 74.0294 194.467 69.7588L194.457 68.9083C194.457 58.3284 196.477 45.1067 213.018 40.9933L216.75 39.9985C226.776 37.8104 236.98 36.7562 246.753 36.3155L253.444 35.9676C253.719 35.9315 254.789 35.8593 254.304 36.5062L252.799 37.2588C249.395 39.0578 248.402 43.1119 251.722 45.0578C257.962 48.7176 260.673 55.6145 261.026 66.9779L260.9 75.9366L260.304 83.5887C260.134 85.764 259.735 87.916 259.052 89.9882C255.408 101.05 246.31 104.439 236.92 104.439Z" fill="#185EB2"/>
<path d="M230.25 97.0022H222.274C210.753 96.9996 201.33 87.5743 201.33 76.0537V75.2547C201.333 61.9429 212.225 51.0537 225.537 51.0537H227C240.312 51.0563 251.201 61.948 251.201 75.2599V76.0589C251.199 87.5795 241.771 97.0047 230.25 97.0022Z" fill="#185EB2"/>
<path d="M203.843 76.3368C203.805 75.2647 203.769 74.1899 203.774 73.1178C203.781 70.9837 203.928 68.8239 204.534 66.7595C205.186 64.543 206.408 62.4812 208.013 60.7363C209.637 58.9734 211.763 57.6642 213.975 56.677C216.168 55.6977 218.686 54.8162 221.075 54.4605C222.928 54.1848 224.851 54.0662 226.714 53.9889C230.194 53.8446 233.562 54.9322 236.779 56.0662C238.292 56.5997 239.761 57.2389 241.163 57.9966C242.176 58.543 243.114 59.5353 243.895 60.36C245.07 61.6049 246.086 63.0147 246.745 64.5739C247.568 66.5198 247.653 68.4941 247.799 70.543C247.962 72.7879 247.934 75.0379 247.959 77.2879C247.962 77.6358 247.954 77.9734 247.735 78.2724C248.593 78.1667 249.41 77.8033 250.299 77.8703L251.024 77.775C251.083 76.9219 251.531 75.4451 251.485 74.5971C251.395 72.9245 251.178 71.9657 250.975 70.2956C250.727 68.2776 250.14 66.3497 249.333 64.4709C248.905 63.476 248.624 62.4683 248.021 61.5353C247.537 60.7853 246.921 60.1229 246.299 59.4734C244.905 58.0172 243.423 56.5765 241.601 55.6126C239.805 54.6616 238.055 53.6281 236.06 53.0662C233.114 52.2363 230.436 50.9863 227.281 50.9709C225.622 50.9605 223.846 51.4734 222.191 51.7054C220.31 51.9709 218.48 52.458 216.66 52.9863C215.926 53.2002 215.204 53.458 214.503 53.7595C213.921 54.0121 213.382 54.1487 212.789 54.342C211.395 54.7956 209.99 55.7105 208.867 56.6023C207.869 57.3935 206.993 58.3343 206.348 59.4116C206.068 59.8806 205.928 60.3987 205.622 60.842C205.24 61.391 204.861 61.9219 204.57 62.5224C203.872 63.9554 202.836 65.5095 202.519 67.0662C202.088 69.1873 201.596 71.2647 201.495 73.4219C201.428 74.8549 201.207 76.1951 201.444 77.6255C201.949 77.7234 203.338 77.909 203.841 78.0069C203.841 77.4477 203.861 76.891 203.843 76.3368Z" fill="#185EB2"/>
<path d="M224.016 96.9017C226.078 96.997 228.145 97.0924 230.207 97.0563C231.982 97.0254 233.402 97.4223 235.142 96.6981C237.191 95.845 236.212 94.0383 236.16 92.2599C236.155 92.0692 236.016 89.8759 235.889 89.912C235.315 90.0744 234.846 90.546 234.276 90.7805C233.65 91.0383 233 91.2522 232.338 91.4249C231.024 91.7702 229.66 91.9635 228.292 92.0537C225.521 92.2341 222.714 92.0022 219.967 91.5692C218.377 91.3192 216.982 90.7058 215.459 90.3063C214.841 90.1439 213.786 89.296 213.243 89.8785C212.938 90.2058 213.194 91.0125 213.181 91.4068C213.152 92.278 212.982 93.1491 212.944 94.0228C212.931 94.3192 212.926 94.6336 213.078 94.8991C213.299 95.2831 213.786 95.4713 214.24 95.613C217.377 96.5898 220.722 96.7522 224.016 96.9017Z" fill="#185EB2"/>
<path d="M251.23 71.9834C251.23 71.9834 233.269 71.2953 235.797 95.669C235.797 95.6716 251.828 95.2463 251.23 71.9834Z" fill="#185EB2"/>
<path d="M201.57 71.1361C201.57 71.1361 217.289 70.0897 214.152 95.1155C214.155 95.1155 201.101 95.2263 201.57 71.1361Z" fill="#185EB2"/>
<path d="M251.178 74.007C251.178 80.1616 249.807 87.2235 245.572 91.3601C241.042 95.7879 233.408 97.0792 226.307 97.0766C219.441 97.0766 211.619 95.5302 207.121 91.3549C202.621 87.1797 201.444 80.373 201.444 73.9993C201.444 67.2029 203.851 60.9658 208.889 56.7441C213.299 53.0482 219.902 50.9271 226.312 50.9297C233.913 50.9297 241.168 53.6694 245.73 58.6565C249.413 62.6823 251.178 68.3163 251.178 74.007Z" fill="#185EB2"/>
<path d="M217.872 78.153C217.596 78.7767 217.428 79.5138 217.722 80.1298C218.173 81.0757 219.472 81.2613 220.482 80.9855C221.493 80.7097 222.405 80.1144 223.439 79.9468C225.426 79.6247 226.784 81.1118 228.722 81.1298C230.807 81.1479 229.959 77.4211 229.243 76.5035C228.699 75.8102 227.892 75.3747 227.073 75.0525C223.696 73.7226 219.428 74.6221 217.872 78.153Z" fill="#185EB2"/>
<path d="M219.101 81.1018C219.575 80.8028 219.998 80.4317 220.372 80.0142C220.385 79.9987 220.4 79.9833 220.413 79.9704C221.758 78.5735 222.573 76.9291 222.766 74.9884C222.774 74.9137 222.771 74.8389 222.784 74.7642C222.843 74.3905 222.975 74.2693 223.387 74.241C223.57 74.2281 224.954 74.1817 225.506 74.259C225.812 74.3028 225.887 74.607 225.89 74.6276C225.954 75.1714 225.988 75.3415 226.109 75.8776C226.356 76.991 226.812 78.009 227.472 78.9369C227.689 79.241 228.415 80.0786 228.549 80.2075C231.495 83.0503 236.006 83.4317 239.439 81.424C243.263 79.1869 244.802 74.6095 243.124 70.6637C241.588 67.0554 237.805 64.7693 233.542 65.4214C229.851 65.9858 227.459 68.2204 226.256 71.7307C225.964 72.5838 226.104 72.9188 225.851 73.241C225.622 73.5322 224.866 73.4266 224.261 73.4575C223.931 73.4755 223.472 73.4523 223.135 73.4394C222.975 73.4343 222.859 73.3209 222.818 73.1637C222.781 73.0193 222.766 72.8673 222.745 72.7204C222.052 68.076 217.629 64.8647 212.879 65.424C210.452 65.7101 208.446 66.8235 206.928 68.7642C204.874 71.3905 204.415 74.2874 205.647 77.3776C207.235 81.3595 211.751 83.6018 216.191 82.4446C217.251 82.1637 218.196 81.674 219.101 81.1018ZM228.418 69.2745C229.431 67.9575 230.812 67.1173 232.39 66.6095C235.779 65.5219 239.325 66.7178 241.323 69.2874C242.415 70.6946 242.946 72.2745 242.923 74.1147C242.995 77.2951 240.524 80.8157 236.604 81.6276C233.918 82.1817 231.508 81.5477 229.452 79.7668C226.583 77.2848 225.751 72.741 228.418 69.2745ZM207.848 79.1714C205.204 76.2822 205.127 71.7822 207.874 68.8905C209.91 66.7461 212.513 65.8518 215.495 66.424C218.521 67.0064 220.562 68.7719 221.627 71.6662C221.758 72.0219 221.905 72.4008 221.939 72.7642C221.972 73.0425 222.039 74.0863 222.011 74.4214C221.838 76.4678 221.065 78.2745 219.622 79.5967C219.454 79.7513 219.173 80.0219 218.99 80.1585C217.676 81.1534 216.284 81.7023 214.655 81.8338C211.98 82.0451 209.671 81.1611 207.848 79.1714Z" fill="#185EB2"/>
<path d="M235.418 72.9287C235.779 73.6246 235.681 74.439 235.534 75.1968C235.438 75.6864 235.323 76.1839 235.024 76.5988C234.725 77.0138 234.201 77.3333 233.655 77.2844C233.209 77.2457 232.823 76.9674 232.583 76.6246C232.343 76.2818 232.232 75.8797 232.152 75.4828C231.985 74.6607 231.931 73.8205 231.99 72.988L235.418 72.9287Z" fill="#185EB2"/>
<path d="M220.173 109.336C220.173 109.336 213.25 111.362 216.601 132.864L219.364 130.826C219.364 130.826 218.287 113.362 220.173 109.336Z" fill="#185EB2"/>
<path d="M216.341 72.9287C216.702 73.6246 216.604 74.439 216.457 75.1968C216.361 75.6864 216.245 76.1839 215.946 76.5988C215.647 77.0138 215.124 77.3333 214.578 77.2844C214.132 77.2457 213.745 76.9674 213.506 76.6246C213.266 76.2818 213.155 75.8797 213.075 75.4828C212.908 74.6607 212.854 73.8205 212.913 72.988L216.341 72.9287Z" fill="#185EB2"/>
<path d="M233.725 108.48C231.392 106.805 228.828 106.555 226.065 106.949C223.802 107.274 221.717 108.586 220.384 110.434C218.544 112.988 218.652 115.955 218.392 118.934C218.183 121.305 218.348 123.692 218.49 126.06C218.598 127.877 219.186 130.137 220.372 131.56C221.658 133.107 223.89 133.243 225.748 133.436C227.506 133.617 229.15 133.795 230.939 133.565C232.111 133.413 233.567 133.143 234.516 132.382C236.243 131.003 236.24 128.756 235.933 126.738" fill="#185EB2"/>
<path d="M219.539 130.251C219.284 131.509 218.351 132.369 217.124 132.743C216.438 132.952 215.709 132.949 214.993 132.947C213.84 132.942 212.686 132.936 211.534 132.929C210.168 132.921 208.786 132.913 207.467 132.565C206.147 132.217 204.877 131.483 204.16 130.32C203.451 129.168 203.366 127.746 203.433 126.395C203.49 125.238 203.645 124.088 203.892 122.957" fill="#185EB2"/>
<path d="M205.08 101.679C201.861 103.594 199.227 106.424 198.214 110.07C197.387 113.047 197.616 116.323 199.25 118.991C201.034 121.908 205.9 124.194 208.737 121.39C209.98 120.163 210.823 118.542 211.116 116.82C211.408 115.099 211.147 113.29 210.382 111.723C210.062 111.07 209.652 110.452 209.098 109.983C207.585 108.699 203.356 109.078 201.506 109.795" fill="#185EB2"/>
<path d="M208.41 109.045C210.573 106.797 214.06 105.929 217.024 106.898C218.317 107.321 219.944 108.532 220.562 109.746" fill="#185EB2"/>
<path d="M250.003 101.537C251.178 102.795 251.673 104.558 251.769 106.277C251.828 107.372 251.738 108.47 251.511 109.54C251.047 111.741 249.454 113.614 247.967 115.236C246.343 117.006 244.495 118.568 242.475 119.87C239.269 121.937 235.66 123.321 231.931 124.102C230.745 124.349 229.482 124.153 228.348 123.728C227.24 123.313 226.271 122.563 225.516 121.651C224.07 119.895 223.325 117.241 223.846 115.006C224.531 112.055 227.709 111.382 230.158 110.346C232.289 109.444 234.441 108.437 236.098 106.779" fill="#185EB2"/>
<path d="M250.797 112.334C251.248 114.849 251.699 117.422 251.348 119.955C251.238 120.762 251.044 121.556 250.818 122.334C250.256 124.267 249.454 126.182 248.098 127.584C246.269 129.476 243.655 130.205 241.129 130.44C239.452 130.597 237.758 130.566 236.088 130.349" fill="#185EB2"/>
<path d="M216.359 135.371C232.949 135.371 246.397 131.987 246.397 127.812C246.397 123.637 232.949 120.253 216.359 120.253C199.769 120.253 186.32 123.637 186.32 127.812C186.32 131.987 199.769 135.371 216.359 135.371Z" fill="#185EB2"/>
<path d="M196.178 152.593C201.012 152.593 204.931 151.606 204.931 150.389C204.931 149.172 201.012 148.186 196.178 148.186C191.344 148.186 187.426 149.172 187.426 150.389C187.426 151.606 191.344 152.593 196.178 152.593Z" fill="#185EB2"/>
<path d="M193.944 116.049C194.549 115.979 195.155 115.84 195.691 115.554C196.557 115.092 197.183 114.291 197.74 113.484C198.147 112.891 198.539 112.275 198.81 111.608C199.016 111.103 198.987 109.915 199.663 110.371C200.155 110.706 200.439 112.136 200.567 112.683C200.758 113.495 200.835 114.332 200.789 115.162C200.66 117.471 199.557 119.018 198.317 120.835C197.74 121.683 196.887 122.366 195.923 122.727C194.936 123.095 193.506 123.549 192.451 123.379C192.372 123.366 192.286 123.348 192.222 123.299C192.098 123.208 192.067 123.041 192.049 122.886C191.915 121.724 192.155 120.662 192.328 119.523C192.356 119.332 189.92 118.675 189.658 118.544C188.828 118.126 188.08 117.554 187.526 116.801C186.972 116.049 186.588 115.185 186.209 114.33C185.923 113.685 186.191 113.141 186.972 113.286C187.495 113.381 187.884 113.997 188.256 114.33C189.771 115.693 191.936 116.283 193.944 116.049Z" fill="#D46637"/>
<path d="M222.296 106.066C219.964 104.391 217.399 104.141 214.637 104.535C212.374 104.86 210.289 106.172 208.956 108.02C207.116 110.574 207.224 113.54 206.964 116.52C206.755 118.891 206.92 121.278 207.062 123.646C207.17 125.463 207.758 127.723 208.943 129.146C210.229 130.693 212.461 130.829 214.32 131.022C216.077 131.203 217.722 131.381 219.51 131.151C220.683 130.999 222.139 130.729 223.088 129.968C224.814 128.589 224.812 126.342 224.505 124.324" fill="#E07B3B"/>
<path d="M190.07 107.384C191.92 106.667 196.15 106.288 197.663 107.572C198.217 108.041 198.627 108.659 198.946 109.312C199.712 110.879 199.974 112.69 199.681 114.409C199.389 116.131 198.544 117.752 197.302 118.979C194.464 121.781 189.601 119.495 187.815 116.58C186.181 113.912 185.954 110.634 186.779 107.659C187.791 104.013 190.425 101.18 193.645 99.2677L238.567 99.126C239.742 100.384 240.237 102.147 240.333 103.866C240.392 104.961 240.302 106.059 240.075 107.129C239.611 109.33 238.018 111.203 236.531 112.824C234.907 114.595 233.06 116.157 231.039 117.458C227.833 119.525 224.224 120.909 220.495 121.69C219.31 121.938 218.047 121.742 216.913 121.317C215.804 120.902 214.835 120.152 214.08 119.239C212.634 117.484 211.889 114.83 212.41 112.595C213.096 109.644 216.273 108.971 218.722 107.935C220.853 107.033 220.206 108.095 221.866 106.438L206.861 110.162" fill="#E07B3B"/>
<path d="M196.98 106.632C199.142 104.384 202.629 103.516 205.593 104.485C206.887 104.908 208.124 105.709 208.743 106.923C208.743 106.923 209.413 117.593 208.163 127.616C208.003 128.89 206.923 129.957 205.694 130.33C205.008 130.539 204.279 130.536 203.562 130.534C202.41 130.529 201.255 130.524 200.103 130.516C198.737 130.508 197.356 130.5 196.036 130.152C194.717 129.804 193.446 129.07 192.73 127.908C192.021 126.756 191.936 125.333 192.003 123.982C192.06 122.825 192.214 121.676 192.462 120.544" fill="#E07B3B"/>
<path d="M224.657 127.936C226.33 128.152 228.023 128.183 229.698 128.026C232.222 127.791 234.838 127.062 236.668 125.17C238.023 123.768 238.825 121.853 239.387 119.92C239.613 119.142 239.804 118.348 239.918 117.541C240.268 115.008 239.817 112.436 239.366 109.92L238.124 108.443L220.222 113.99" fill="#E07B3B"/>
<path d="M237.469 123.278C236.372 125.265 234.467 126.744 232.341 127.53C230.895 128.067 229.348 128.296 227.81 128.288C227.238 128.286 224.663 128.515 224.681 127.693C225.423 127.5 226.191 127.739 226.982 127.469C227.766 127.201 228.482 126.729 229.031 126.108C229.585 125.476 229.962 124.695 230.127 123.871C230.178 123.608 230.433 121.868 229.879 122.103C226.681 123.448 223.565 124.154 220.065 123.652C218.835 123.476 217.624 123.167 216.464 122.726C215.459 122.345 214.939 121.469 214.418 120.551C213.799 119.463 213.359 118.288 212.92 117.116C212.665 116.435 212.797 115.881 212.83 115.188C212.864 114.518 212.879 114.528 213.451 114.817C214.508 115.353 215.209 116.028 216.436 116.301C217.508 116.541 218.614 116.595 219.707 116.631C221.152 116.677 222.619 116.724 224.029 116.399C226.74 115.773 228.944 113.858 230.987 111.969C232.616 110.461 234.238 108.909 235.444 107.046C236.65 105.183 237.423 102.958 237.181 100.752C237.603 100.18 237.993 99.5537 238.498 99.0563C238.616 98.9403 238.761 98.8166 238.926 98.8449C239.049 98.8655 239.14 98.9661 239.214 99.0666C239.712 99.7393 239.869 100.6 239.967 101.433C240.268 104.028 240.098 106.677 239.467 109.213C239.343 109.711 239.199 110.213 239.214 110.729C239.225 111.144 239.338 111.549 239.426 111.956C239.756 113.5 239.552 115.038 239.493 116.59C239.4 119.036 238.634 121.167 237.469 123.278Z" fill="#D46637"/>
<path d="M219.145 104.84C221.006 104.704 222.877 104.505 224.665 103.974C226.454 103.443 228.173 102.567 229.472 101.227C222.719 102.675 215.781 101.853 208.972 101.348C207.204 101.217 205.444 100.967 203.701 100.75C202.495 100.601 201.189 100.773 199.969 100.722C198.701 100.668 197.439 100.567 196.178 100.415C196.884 100.732 197.591 101.052 198.297 101.369C200.147 102.201 201.944 102.969 203.884 103.58C205.397 104.057 206.949 104.392 208.516 104.621C212.034 105.134 215.609 105.101 219.145 104.84Z" fill="#D46637"/>
<path d="M247.59 65.757C247.541 64.4065 247.291 63.1152 247.16 61.7699C247.041 60.5611 246.773 59.3678 246.503 58.1797C245.892 55.4838 244.907 53.1178 243.544 50.6951C241.026 46.2312 237.688 43.2441 232.936 41.4039C230.5 40.4606 227.995 39.7029 225.441 39.1539C220.374 38.0637 215.129 37.8163 209.987 38.4967C209.222 38.5972 208.456 38.6565 207.691 38.708C205.449 37.8884 202.866 38.2209 200.513 38.8137C199.188 39.1462 197.882 39.5534 196.619 40.0714C195.557 40.5044 193.987 41.0354 193.178 41.8756C191.492 43.6256 189.474 45.0663 187.895 46.9993C187.06 48.0199 186.289 49.1024 185.722 50.2905C185.157 51.4761 184.802 52.7518 184.505 54.0328C183.534 58.2467 183.49 62.4606 183.196 66.739C182.895 71.1307 182.985 75.5508 183.462 79.9271C183.572 80.9348 183.701 81.9374 183.853 82.94C184.191 85.1848 184.657 87.4374 185.536 89.5379C185.972 90.5817 186.513 91.5869 187.188 92.4967C187.495 92.9091 187.915 93.2699 188.194 93.6951C188.472 94.123 188.624 94.556 188.982 94.9529C190.428 96.5534 192.32 97.6719 194.191 98.7441C195.132 99.2828 196.083 99.8189 197.096 100.208C199.657 101.193 202.487 101.19 205.224 101.002C206.704 100.899 208.194 100.747 209.619 100.324C210.962 99.9245 212.317 100.319 213.73 100.332C216.745 100.358 219.722 100.187 222.724 99.9864C226.686 99.7209 230.709 98.5044 234.456 97.1797C235.923 96.6616 237.361 96.056 238.75 95.3498C239.895 94.7673 240.925 94.0328 241.866 93.141C243.248 91.8292 244.34 90.3034 245.25 88.6616C246.07 87.1797 246.598 85.5766 246.879 83.8859C247.24 81.7106 247.462 79.5766 247.549 77.3549C247.614 75.7183 247.753 74.0843 247.745 72.4451C247.732 70.208 247.67 67.9812 247.59 65.757Z" fill="#E07B3B"/>
<path d="M249.405 65.5564C249.379 64.0487 249.59 62.5151 249.433 61.01C249.124 58.0383 248.763 55.3502 247.82 52.51C247.426 51.3244 246.859 49.8863 246.261 48.7986C244.987 46.4816 243 43.9198 240.534 42.7471C239.938 42.4636 239.364 41.9919 238.946 41.51C237.513 39.8502 237.297 37.961 238.928 36.3038C239.567 35.6569 240.389 35.2213 241.212 34.8347C241.645 34.6311 242.165 34.1672 241.879 33.7832C241.717 33.5667 241.395 33.5693 241.127 33.5925C236.951 33.961 232.743 34.5177 228.593 34.8476C226.49 35.0151 224.389 35.1827 222.286 35.3631C221.536 35.4275 220.786 35.51 220.042 35.6105C217.542 35.9533 215.042 36.3012 212.547 36.6621C209.188 37.1466 205.861 37.7832 202.611 38.778C201.938 38.9842 201.397 39.1054 200.825 39.3631C200.609 39.461 200.387 39.577 200.15 39.7239C200.436 39.5435 201.235 39.595 201.588 39.5306C202.119 39.4352 202.642 39.309 203.17 39.2007C205.382 38.7445 207.609 38.8167 209.825 38.5229C214.967 37.8425 220.209 38.0899 225.279 39.1801C227.833 39.7291 230.338 40.4868 232.773 41.4301C237.526 43.2703 240.866 46.2574 243.382 50.7213C244.748 53.144 245.73 55.51 246.34 58.2059C246.611 59.394 246.879 60.5873 246.998 61.7961C247.129 63.1389 247.379 64.4301 247.428 65.7832C247.511 68.01 247.57 70.2368 247.578 72.4636C247.583 74.1028 247.444 75.7368 247.382 77.3734C247.294 79.5925 247.072 81.7291 246.712 83.9043C245.864 89.0229 240.299 93.5409 235.539 95.0744C233.047 95.876 230.405 96.0641 227.794 96.2188C224.387 96.4198 220.972 96.5796 217.56 96.4971C214.565 96.4249 211.392 96.4095 208.441 96.1234C206.173 95.9043 203.923 96.2909 201.632 95.9353C199.493 95.6028 197.408 94.943 195.462 93.9971C191.627 92.1285 189.395 89.3605 186.761 86.1956C186.109 85.4121 185.482 83.9404 184.67 83.4713C184.469 84.8966 184.781 87.1389 185.235 88.5358C185.807 90.2832 186.727 91.9095 187.843 93.3631C189.995 96.1672 192.41 98.3347 195.691 99.7806C197.624 100.634 199.905 100.69 202.011 101.01C203.315 101.208 204.621 101.35 205.933 101.469C207.168 101.582 208.402 101.742 209.639 101.799C211.181 101.866 212.727 101.863 214.271 101.858C215.212 101.855 216.155 101.835 217.093 101.757C218.333 101.654 219.572 101.621 220.815 101.629C224.204 101.654 226.941 101.817 230.356 101.608C234.652 101.345 238.951 98.8322 242.191 95.8219C243.637 94.4765 244.683 92.9327 245.593 91.2368C245.583 91.2445 245.572 91.2523 245.562 91.2574C245.593 91.2007 245.624 91.144 245.658 91.0873C246.049 90.4121 246.544 89.9481 246.864 89.2188C247.129 88.6131 247.16 88.059 247.33 87.4456C247.547 86.6569 247.882 85.9043 248.088 85.1079C248.681 82.8193 248.895 80.4533 249.065 78.095C249.219 75.9533 249.34 73.8064 249.335 71.6569C249.333 69.6157 249.438 67.5899 249.405 65.5564ZM243.451 93.528C244.029 92.9894 244.583 92.4198 245.106 91.8167C244.583 92.4198 244.031 92.9894 243.451 93.528Z" fill="#D46637"/>
<path d="M193.477 76.4917C193.482 76.4866 193.487 76.484 193.495 76.4814C193.369 76.4531 193.24 76.4325 193.106 76.417C193.23 76.4428 193.353 76.4685 193.477 76.4917Z" fill="#F7E1D3"/>
<path d="M193.5 76.5408C193.5 76.5202 193.503 76.5021 193.503 76.4815C193.5 76.4815 193.495 76.4789 193.492 76.4789C193.487 76.4841 193.482 76.4867 193.474 76.4892C193.351 76.4635 193.227 76.4403 193.103 76.4145C193.085 76.4119 193.067 76.4093 193.047 76.4093V76.4042C192.516 76.2959 191.987 76.1903 191.456 76.082C192.034 76.7186 192.727 76.8063 193.5 76.5408Z" fill="#F6CB81"/>
<path d="M193.495 76.4819C193.498 76.4819 193.503 76.4846 193.506 76.4846C193.506 76.4819 193.506 76.4792 193.506 76.4766C193.5 76.4766 193.498 76.4792 193.495 76.4819Z" fill="white"/>
<path d="M193.049 76.4118C193.067 76.4144 193.086 76.417 193.106 76.4196C193.088 76.417 193.07 76.4118 193.049 76.4092V76.4118Z" fill="white"/>
<path d="M225.49 102.025L202.683 100.948C192.103 100.948 185.364 94.087 184.073 81.5819L183.892 80.1179C183.369 75.8782 183.083 71.6154 183.036 67.3447L183.026 66.4942C183.026 55.9143 185.047 42.6927 201.588 38.5793L205.32 37.5844C215.346 35.3963 225.549 34.3422 235.323 33.9014L242.013 33.5535C242.289 33.5174 243.359 33.4453 242.874 34.0922L241.369 34.8447C237.964 36.6437 236.972 40.6978 240.292 42.6437C246.531 46.3035 249.243 53.2004 249.596 64.5638L249.469 73.5226L248.874 81.1746C248.704 83.3499 248.304 85.502 247.621 87.5741C243.98 98.636 234.879 102.025 225.49 102.025Z" stroke="#23487C" stroke-width="0.994871" stroke-miterlimit="10"/>
<path d="M218.822 94.5881H210.846C199.325 94.5855 189.902 85.1603 189.902 73.6396V72.8407C189.905 59.5288 200.797 48.6396 214.109 48.6396H215.572C228.884 48.6422 239.773 59.534 239.773 72.8458V73.6448C239.768 85.1654 230.34 94.5907 218.822 94.5881Z" fill="white"/>
<path d="M192.413 73.9228C192.374 72.8506 192.338 71.7759 192.343 70.7037C192.351 68.5697 192.498 66.4099 193.103 64.3455C193.755 62.129 194.977 60.0671 196.583 58.3223C198.206 56.5594 200.333 55.2501 202.544 54.263C204.737 53.2836 207.255 52.4022 209.645 52.0465C211.498 51.7707 213.42 51.6522 215.284 51.5748C218.763 51.4305 222.132 52.5181 225.348 53.6522C226.861 54.1857 228.33 54.8248 229.732 55.5826C230.745 56.129 231.683 57.1212 232.464 57.946C233.639 59.1908 234.655 60.6006 235.315 62.1599C236.137 64.1058 236.222 66.08 236.369 68.129C236.531 70.3738 236.503 72.6238 236.529 74.8738C236.531 75.2217 236.523 75.5594 236.304 75.8583C237.163 75.7527 237.98 75.3893 238.869 75.4563L239.593 75.3609C239.652 74.5078 240.101 73.031 240.054 72.1831C239.964 70.5104 239.748 69.5516 239.544 67.8815C239.297 65.8635 238.709 63.9357 237.902 62.0568C237.474 61.0619 237.194 60.0542 236.59 59.1212C236.106 58.3712 235.49 57.7089 234.869 57.0594C233.474 55.6032 231.993 54.1625 230.17 53.1985C228.374 52.2475 226.624 51.214 224.629 50.6522C221.683 49.8223 219.005 48.5723 215.851 48.5568C214.191 48.5465 212.415 49.0594 210.761 49.2913C208.879 49.5568 207.049 50.0439 205.23 50.5723C204.495 50.7862 203.773 51.0439 203.072 51.3455C202.49 51.598 201.951 51.7346 201.359 51.9279C199.964 52.3815 198.56 53.2965 197.436 54.1882C196.438 54.9795 195.562 55.9202 194.918 56.9975C194.637 57.4666 194.498 57.9846 194.191 58.4279C193.81 58.9769 193.431 59.5078 193.139 60.1083C192.441 61.5413 191.405 63.0955 191.088 64.6522C190.657 66.7733 190.165 68.8506 190.065 71.0078C189.998 72.4408 189.776 73.781 190.013 75.2114C190.518 75.3094 191.907 75.4949 192.41 75.5929C192.41 75.0336 192.433 74.4769 192.413 73.9228Z" fill="#F7E1D3"/>
<path d="M212.585 94.4866C214.647 94.582 216.714 94.6774 218.776 94.6413C220.552 94.6103 221.972 95.0073 223.712 94.283C225.761 93.4299 224.781 91.6232 224.73 89.8449C224.725 89.6542 224.585 87.4609 224.459 87.4969C223.884 87.6593 223.415 88.131 222.846 88.3655C222.219 88.6232 221.57 88.8371 220.908 89.0098C219.593 89.3552 218.23 89.5485 216.861 89.6387C214.091 89.8191 211.284 89.5872 208.536 89.1542C206.946 88.9042 205.552 88.2908 204.029 87.8913C203.41 87.7289 202.356 86.881 201.812 87.4634C201.508 87.7908 201.763 88.5975 201.75 88.9918C201.722 89.8629 201.552 90.7341 201.513 91.6078C201.5 91.9042 201.495 92.2186 201.647 92.4841C201.869 92.8681 202.356 93.0562 202.81 93.198C205.946 94.1748 209.292 94.3346 212.585 94.4866Z" fill="#F6E1D4"/>
<path d="M239.799 69.5693C239.799 69.5693 221.838 68.8812 224.366 93.2549C224.366 93.2549 240.397 92.8322 239.799 69.5693Z" fill="#F2C077"/>
<path d="M190.142 68.7221C190.142 68.7221 205.861 67.6757 202.725 92.7014C202.725 92.7014 189.67 92.8123 190.142 68.7221Z" fill="#F2C077"/>
<path d="M239.748 71.5929C239.748 77.7476 238.377 84.8094 234.142 88.946C229.611 93.3739 221.977 94.6651 214.877 94.6625C208.011 94.6625 200.188 93.1161 195.691 88.9409C191.191 84.7656 190.013 77.9589 190.013 71.5852C190.013 64.7888 192.42 58.5517 197.459 54.3301C201.869 50.6342 208.472 48.5131 214.882 48.5156C222.482 48.5156 229.737 51.2553 234.299 56.2424C237.982 60.2682 239.75 65.9022 239.748 71.5929Z" stroke="#23487C" stroke-width="0.928428" stroke-miterlimit="10"/>
<path d="M206.441 75.7374C206.165 76.3611 205.998 77.0982 206.292 77.7142C206.743 78.6601 208.042 78.8456 209.052 78.5698C210.062 78.2941 210.974 77.6987 212.008 77.5312C213.995 77.209 215.353 78.6961 217.292 78.7142C219.377 78.7322 218.529 75.0054 217.812 74.0879C217.268 73.3946 216.462 72.959 215.642 72.6369C212.266 71.3095 207.998 72.209 206.441 75.7374Z" fill="#F7E1D3"/>
<path d="M207.673 78.6887C208.147 78.3898 208.57 78.0186 208.944 77.6011C208.957 77.5856 208.972 77.5702 208.985 77.5573C210.33 76.1604 211.145 74.516 211.338 72.5753C211.346 72.5006 211.343 72.4258 211.356 72.3511C211.415 71.9774 211.547 71.8562 211.959 71.8279C212.142 71.815 213.526 71.7686 214.078 71.8459C214.384 71.8898 214.459 72.1939 214.462 72.2145C214.526 72.7583 214.56 72.9284 214.681 73.4645C214.928 74.5779 215.384 75.5959 216.044 76.5238C216.261 76.8279 216.987 77.6655 217.122 77.7944C220.067 80.6372 224.578 81.0186 228.011 79.0109C231.835 76.7738 233.374 72.1965 231.696 68.2506C230.16 64.6423 226.377 62.3562 222.114 63.0083C218.423 63.5727 216.031 65.8073 214.828 69.3176C214.536 70.1707 214.676 70.5057 214.423 70.8279C214.194 71.1191 213.439 71.0135 212.833 71.0444C212.503 71.0624 212.044 71.0392 211.707 71.0263C211.547 71.0212 211.431 70.9078 211.39 70.7506C211.353 70.6063 211.338 70.4542 211.317 70.3073C210.624 65.663 206.201 62.4516 201.451 63.0109C199.024 63.297 197.018 64.4104 195.5 66.3511C193.446 68.9774 192.987 71.8743 194.219 74.9645C195.807 78.9465 200.323 81.1887 204.763 80.0315C205.823 79.7506 206.766 79.2609 207.673 78.6887ZM216.987 66.8588C218 65.5418 219.382 64.7016 220.959 64.1939C224.348 63.1063 227.895 64.3021 229.892 66.8717C230.985 68.2789 231.516 69.8588 231.493 71.699C231.565 74.8794 229.093 78.4001 225.173 79.2119C222.487 79.766 220.078 79.132 218.021 77.3511C215.152 74.8717 214.323 70.3279 216.987 66.8588ZM196.418 76.7557C193.774 73.8666 193.696 69.3666 196.444 66.4748C198.48 64.3305 201.083 63.4361 204.065 64.0083C207.091 64.5908 209.132 66.3562 210.196 69.2506C210.328 69.6062 210.475 69.9851 210.508 70.3485C210.542 70.6269 210.609 71.6707 210.58 72.0057C210.408 74.0521 209.634 75.8588 208.191 77.181C208.024 77.3356 207.743 77.6063 207.56 77.7429C206.245 78.7377 204.853 79.2867 203.225 79.4181C200.552 79.632 198.24 78.748 196.418 76.7557Z" fill="#DF7C3C"/>
<path d="M218.603 70.8477C221.377 70.8477 224.15 70.8477 226.923 70.8477C227.668 70.8477 227.668 69.6904 226.923 69.6904C224.15 69.6904 221.377 69.6904 218.603 69.6904C217.861 69.6904 217.858 70.8477 218.603 70.8477Z" fill="#23487C"/>
<path d="M223.987 70.5146C224.348 71.2105 224.25 72.025 224.103 72.7827C224.008 73.2724 223.892 73.7698 223.593 74.1847C223.294 74.5997 222.771 74.9193 222.225 74.8703C221.779 74.8317 221.392 74.5533 221.152 74.2105C220.913 73.8677 220.802 73.4657 220.722 73.0688C220.554 72.2466 220.5 71.4064 220.56 70.5739L223.987 70.5146Z" fill="#23487C"/>
<path d="M199.529 70.8477C202.302 70.8477 205.075 70.8477 207.848 70.8477C208.593 70.8477 208.593 69.6904 207.848 69.6904C205.075 69.6904 202.302 69.6904 199.529 69.6904C198.784 69.6904 198.784 70.8477 199.529 70.8477Z" fill="#23487C"/>
<path d="M209.668 83.5049C211.861 83.5049 214.052 83.5049 216.245 83.5049C216.99 83.5049 216.99 82.3477 216.245 82.3477C214.052 82.3477 211.861 82.3477 209.668 82.3477C208.923 82.3477 208.92 83.5049 209.668 83.5049Z" fill="#23487C"/>
<path d="M208.742 106.92C208.742 106.92 201.82 108.946 205.17 130.448L207.933 128.41C207.933 128.412 206.856 110.948 208.742 106.92Z" fill="#D46637"/>
<path d="M204.913 70.5146C205.274 71.2105 205.176 72.025 205.029 72.7827C204.933 73.2724 204.817 73.7698 204.518 74.1847C204.219 74.5997 203.696 74.9193 203.15 74.8703C202.704 74.8317 202.317 74.5533 202.078 74.2105C201.838 73.8677 201.727 73.4657 201.647 73.0688C201.48 72.2466 201.426 71.4064 201.485 70.5739L204.913 70.5146Z" fill="#23487C"/>
<path d="M222.621 105.511C220.967 104.335 219.008 103.763 216.985 103.73C215.026 103.696 213.047 104.031 211.335 105.024C209.608 106.024 208.227 107.57 207.454 109.41C206.66 111.297 206.547 113.361 206.407 115.377C206.33 116.5 206.23 117.619 206.222 118.745C206.214 119.936 206.271 121.124 206.338 122.312C206.454 124.33 206.647 126.289 207.541 128.134C207.949 128.975 208.498 129.743 209.248 130.302C209.962 130.833 210.83 131.137 211.694 131.32C212.557 131.5 213.441 131.578 214.317 131.668C215.462 131.786 216.606 131.908 217.758 131.905C218.815 131.902 219.882 131.789 220.918 131.567C221.858 131.366 222.786 131.034 223.541 130.426C225.005 129.243 225.395 127.33 225.281 125.536C225.253 125.073 225.191 124.614 225.124 124.155C225.072 123.81 224.637 123.622 224.33 123.704C223.962 123.805 223.828 124.15 223.879 124.498C224.096 125.944 224.181 127.655 223.253 128.89C222.255 130.219 220.291 130.477 218.748 130.585C217.683 130.66 216.616 130.601 215.554 130.506C214.66 130.423 213.761 130.346 212.871 130.225C212.142 130.124 211.379 129.982 210.706 129.676C210.003 129.354 209.467 128.866 209.052 128.214C208.147 126.784 207.786 125.065 207.686 123.395C207.554 121.191 207.415 118.98 207.583 116.776C207.724 114.936 207.748 113.044 208.196 111.245C208.632 109.49 209.565 107.969 210.969 106.825C212.299 105.74 213.913 105.214 215.606 105.07C217.361 104.921 219.157 105.085 220.75 105.884C221.176 106.098 221.58 106.348 221.967 106.622C222.25 106.823 222.683 106.673 222.848 106.39C223.041 106.07 222.905 105.714 222.621 105.511Z" fill="#23487C"/>
<path d="M207.487 127.667C207.217 128.91 206.17 129.667 204.941 129.838C204.111 129.954 203.243 129.887 202.408 129.884C201.518 129.879 200.629 129.876 199.74 129.871C198.199 129.861 196.554 129.832 195.137 129.147C194.526 128.853 193.967 128.464 193.534 127.936C193.093 127.397 192.859 126.734 192.732 126.059C192.583 125.258 192.614 124.423 192.668 123.613C192.732 122.639 192.874 121.673 193.083 120.719C193.258 119.91 192.016 119.564 191.841 120.376C191.454 122.162 191.181 124.09 191.415 125.917C191.524 126.763 191.758 127.6 192.225 128.32C192.665 128.997 193.268 129.551 193.957 129.974C195.505 130.925 197.356 131.118 199.137 131.155C200.098 131.173 201.062 131.167 202.024 131.173C202.969 131.178 203.936 131.237 204.877 131.137C206.676 130.946 208.328 129.858 208.73 128.013C208.908 127.201 207.665 126.856 207.487 127.667Z" fill="#23487C"/>
<path d="M193.325 98.7093C190.142 100.611 187.459 103.433 186.305 107.011C185.129 110.655 185.498 115.245 188.217 118.142C190.333 120.397 194.261 121.988 197.062 120.011C198.655 118.887 199.758 116.97 200.199 115.093C200.696 112.982 200.413 110.712 199.405 108.792C198.988 107.995 198.395 107.183 197.588 106.745C196.931 106.387 196.194 106.24 195.459 106.153C193.913 105.97 192.279 106.116 190.771 106.493C190.475 106.568 190.184 106.655 189.897 106.763C189.573 106.887 189.349 107.196 189.446 107.557C189.532 107.869 189.913 108.132 190.24 108.008C191.459 107.544 192.784 107.387 194.078 107.374C194.776 107.369 195.431 107.405 196.091 107.562C196.233 107.596 196.372 107.635 196.508 107.681C196.696 107.743 196.702 107.743 196.851 107.82C197.178 107.985 197.253 108.052 197.521 108.333C198.805 109.683 199.261 111.82 199.132 113.627C199.006 115.374 198.235 117.075 197.031 118.343C196.062 119.364 194.789 119.756 193.441 119.573C192.052 119.385 190.709 118.686 189.668 117.763C187.088 115.477 186.516 111.596 187.271 108.359C188.032 105.101 190.176 102.4 192.897 100.521C193.248 100.279 193.609 100.049 193.975 99.8304C194.689 99.3974 194.039 98.2814 193.325 98.7093Z" fill="#23487C"/>
<path d="M197.436 107.086C199.717 104.746 203.719 103.892 206.58 105.671C207.377 106.166 208.134 106.82 208.575 107.658C208.962 108.392 210.072 107.743 209.688 107.008C209.222 106.122 208.459 105.416 207.655 104.841C206.864 104.274 205.972 103.869 205.021 103.661C203.065 103.23 201.026 103.483 199.204 104.297C198.204 104.746 197.289 105.39 196.523 106.176C195.944 106.769 196.856 107.681 197.436 107.086Z" fill="#23487C"/>
<path d="M238.116 99.5772C239.472 101.057 239.792 103.204 239.694 105.137C239.642 106.175 239.475 107.234 239.068 108.198C238.676 109.126 238.096 109.984 237.467 110.768C234.774 114.129 231.366 116.85 227.475 118.698C225.513 119.629 223.444 120.332 221.333 120.838C220.838 120.956 220.336 121.095 219.828 121.134C219.297 121.173 218.763 121.137 218.24 121.026C217.271 120.822 216.351 120.435 215.578 119.809C214.119 118.626 213.194 116.853 212.952 114.997C212.836 114.103 212.872 113.155 213.173 112.296C213.408 111.624 213.856 111.08 214.41 110.637C215.57 109.711 217.114 109.265 218.495 108.714C220.39 107.959 222.302 107.098 223.931 105.85C224.351 105.528 224.753 105.188 225.129 104.814C225.72 104.229 224.81 103.32 224.217 103.902C222.642 105.459 220.619 106.423 218.606 107.283C217.07 107.938 215.403 108.384 214.011 109.34C213.315 109.819 212.696 110.415 212.284 111.157C211.797 112.033 211.614 113.051 211.609 114.046C211.598 116.129 212.379 118.229 213.735 119.807C215.209 121.521 217.498 122.567 219.774 122.425C220.936 122.35 222.111 121.992 223.225 121.67C224.341 121.345 225.439 120.964 226.511 120.523C230.836 118.742 234.614 116.015 237.694 112.497C239.173 110.807 240.446 108.959 240.815 106.698C241.181 104.456 241.073 101.992 239.964 99.9587C239.709 99.4896 239.39 99.0566 239.031 98.6649C238.467 98.054 237.557 98.9664 238.116 99.5772Z" fill="#23487C"/>
<path d="M238.769 110.085C239.122 112.052 239.47 114.036 239.418 116.041C239.369 117.91 238.885 119.763 238.204 121.497C237.611 123.005 236.738 124.451 235.434 125.446C234.155 126.42 232.598 126.943 231.034 127.224C228.941 127.603 226.761 127.58 224.658 127.315C224.325 127.273 224.037 127.629 224.037 127.936C224.037 128.307 224.323 128.513 224.658 128.557C226.702 128.815 228.774 128.809 230.815 128.513C232.524 128.263 234.24 127.745 235.689 126.781C237.204 125.771 238.302 124.32 239.044 122.67C239.851 120.887 240.421 118.93 240.604 116.979C240.83 114.557 240.39 112.132 239.967 109.755C239.908 109.425 239.506 109.24 239.204 109.322C238.856 109.418 238.709 109.753 238.769 110.085Z" fill="#23487C"/>
<path d="M252.503 163.322H177.168C145.503 163.322 119.833 137.652 119.833 105.987V63.6309C119.833 31.966 145.503 6.2959 177.168 6.2959H252.503C284.168 6.2959 309.838 31.966 309.838 63.6309V105.989C309.835 137.652 284.165 163.322 252.503 163.322Z" stroke="#23487C" stroke-width="1.35763" stroke-miterlimit="10"/>
<path d="M133.792 92.5612C133.714 98.6566 137.694 104.293 143.258 106.623C146.225 107.865 149.521 108.185 152.689 107.682C154.235 107.438 155.763 106.986 157.176 106.309C158.539 105.654 159.83 104.695 160.596 103.363C161.279 102.175 161.488 100.626 161.016 99.3267C160.511 97.9349 159.323 97.0226 157.851 96.8679C156.467 96.721 155.024 97.2726 154.013 98.2107C152.864 99.2777 152.209 100.788 151.864 102.293C150.439 108.463 152.58 115.139 156.377 120.043C160.24 125.035 165.913 128.373 171.895 130.182C172.632 130.404 173.374 130.605 174.124 130.783C174.848 130.956 175.155 129.842 174.431 129.667C168.768 128.316 163.32 125.68 159.194 121.51C155.129 117.401 152.5 111.729 152.601 105.896C152.627 104.466 152.789 103.017 153.238 101.654C153.645 100.414 154.361 99.1875 155.521 98.5226C156.521 97.9504 157.861 97.7597 158.884 98.3834C159.897 98.9994 160.23 100.27 160.073 101.386C159.676 104.195 156.549 105.543 154.14 106.19C151.31 106.95 148.279 106.953 145.454 106.164C142.719 105.399 140.274 103.878 138.408 101.734C136.65 99.7159 135.462 97.1978 135.07 94.5483C134.972 93.8911 134.939 93.221 134.949 92.5561C134.957 91.8164 133.802 91.8164 133.792 92.5612Z" fill="#23487C"/>
<path d="M183.245 135.537C182.964 135.375 182.732 135.14 182.575 134.828C181.838 134.341 181.627 133.718 181.201 132.944C178.642 133.893 182.774 136.676 183.312 137.509C184.109 138.738 184.232 140.38 185.158 141.663C186.085 142.949 187.312 144.029 188.719 144.761C192.451 146.705 198.4 147.096 201.583 143.973C199.593 143.426 197.335 142.88 196.091 141.084C195.25 139.87 195.07 138.321 194.498 136.955C193.737 135.138 191.972 133.558 190 133.785C188.632 133.942 187.498 134.906 186.237 135.478C185.299 135.903 184.065 136.014 183.245 135.537Z" fill="#E5B439"/>
<path d="M183.606 134.916C183.41 134.795 183.317 134.654 183.194 134.465C183.031 134.218 182.732 134.076 182.541 133.844C182.25 133.491 182.047 132.996 181.822 132.581C181.683 132.326 181.297 132.141 181.011 132.251C180.145 132.587 179.513 133.231 179.694 134.218C179.83 134.958 180.405 135.605 180.905 136.133C181.402 136.659 181.956 137.125 182.469 137.638C182.554 137.723 182.629 137.819 182.714 137.901C182.789 137.971 182.663 137.837 182.66 137.829C182.675 137.86 182.701 137.888 182.717 137.916C182.802 138.061 182.887 138.203 182.959 138.355C183.227 138.898 183.392 139.486 183.593 140.058C183.809 140.677 184.052 141.303 184.413 141.855C184.781 142.419 185.232 142.947 185.706 143.427C186.598 144.324 187.647 145.069 188.791 145.605C190.802 146.545 193.047 147.027 195.266 146.994C197.742 146.958 200.276 146.244 202.088 144.486C202.477 144.107 202.286 143.427 201.771 143.285C200.384 142.906 198.944 142.561 197.74 141.736C196.405 140.816 196.029 139.337 195.575 137.87C195.088 136.29 194.32 134.883 192.949 133.906C192.32 133.458 191.59 133.174 190.828 133.081C189.956 132.976 189.121 133.197 188.33 133.553C187.482 133.934 186.727 134.504 185.871 134.865C185.191 135.143 184.284 135.288 183.606 134.916C182.794 134.471 182.067 135.713 182.879 136.159C183.67 136.594 184.578 136.636 185.451 136.476C186.312 136.316 187.083 135.87 187.833 135.44C188.508 135.05 189.217 134.615 190.003 134.504C190.65 134.411 191.276 134.571 191.838 134.891C193.186 135.659 193.825 137.027 194.255 138.45C194.508 139.285 194.745 140.13 195.147 140.906C195.503 141.589 196.008 142.192 196.611 142.669C197.998 143.759 199.719 144.208 201.389 144.666C201.284 144.267 201.178 143.865 201.072 143.465C199.737 144.762 197.861 145.383 196.029 145.517C194.034 145.666 192.067 145.357 190.194 144.643C188.271 143.909 186.224 142.437 185.297 140.476C184.804 139.434 184.608 138.272 184.011 137.275C183.701 136.759 183.224 136.373 182.791 135.968C182.495 135.692 182.201 135.411 181.923 135.117C181.786 134.973 181.652 134.821 181.523 134.669C181.498 134.638 181.472 134.607 181.446 134.574C181.547 134.703 181.428 134.545 181.418 134.53C181.369 134.46 181.322 134.391 181.279 134.319C181.237 134.252 181.199 134.179 181.163 134.11C181.067 133.932 181.17 134.197 181.124 134.012C181.116 133.983 181.108 133.953 181.098 133.924C181.062 133.808 181.129 133.839 181.096 133.945C181.103 133.924 181.119 133.697 181.088 133.834C181.062 133.953 181.088 133.86 181.096 133.831C181.121 133.721 181.106 133.824 181.075 133.87C181.181 133.71 180.98 133.955 181.119 133.806C181.142 133.782 181.168 133.762 181.191 133.741C181.065 133.86 181.178 133.754 181.219 133.731C181.253 133.713 181.289 133.692 181.322 133.674C181.454 133.602 181.224 133.708 181.392 133.643C181.121 133.532 180.851 133.424 180.58 133.313C181.031 134.141 181.41 134.904 182.212 135.455C182.127 135.37 182.039 135.282 181.954 135.197C182.173 135.605 182.49 135.922 182.882 136.164C183.67 136.646 184.395 135.401 183.606 134.916Z" fill="#23487C"/>
<path d="M185.987 138.928C188.305 141.573 191.433 143.467 194.848 144.3C195.353 144.423 195.57 143.645 195.062 143.521C191.771 142.72 188.789 140.908 186.557 138.359C186.214 137.967 185.645 138.539 185.987 138.928Z" fill="#23487C"/>
<path d="M187.106 139.935C188.637 139.376 190.168 138.816 191.696 138.257C191.9 138.182 192.039 137.984 191.977 137.76C191.923 137.561 191.686 137.402 191.48 137.479C189.949 138.038 188.418 138.597 186.89 139.157C186.686 139.231 186.547 139.43 186.609 139.654C186.663 139.85 186.9 140.01 187.106 139.935Z" fill="#23487C"/>
<path d="M188.64 140.83C189.846 140.387 191.075 140.013 192.323 139.714C192.828 139.593 192.614 138.814 192.109 138.936C190.859 139.235 189.629 139.608 188.426 140.052C188.222 140.126 188.083 140.325 188.145 140.549C188.196 140.745 188.433 140.905 188.64 140.83Z" fill="#23487C"/>
<path d="M191.91 142.901C192.815 142.659 193.737 142.494 194.67 142.417C194.887 142.399 195.075 142.244 195.075 142.012C195.075 141.809 194.89 141.589 194.67 141.607C193.665 141.69 192.668 141.86 191.696 142.12C191.194 142.257 191.408 143.035 191.91 142.901Z" fill="#23487C"/>
<path d="M189.482 142.233C189.707 143.109 190.132 143.916 190.707 144.612C190.843 144.774 191.14 144.761 191.279 144.612C191.439 144.439 191.423 144.215 191.279 144.039C191.248 144.001 191.214 143.962 191.183 143.923C191.155 143.887 191.152 143.885 191.178 143.916C191.163 143.895 191.147 143.875 191.132 143.856C191.073 143.777 191.016 143.692 190.959 143.609C190.848 143.442 190.748 143.266 190.658 143.086C190.611 142.996 190.567 142.905 190.529 142.813C190.518 142.789 190.508 142.766 190.498 142.743C190.513 142.782 190.513 142.779 190.495 142.735C190.477 142.689 190.459 142.643 190.441 142.594C190.371 142.405 190.312 142.212 190.261 142.016C190.209 141.813 189.969 141.668 189.763 141.735C189.552 141.805 189.426 142.014 189.482 142.233Z" fill="#23487C"/>
</svg>