<svg width="12" height="12" viewBox="0 0 12 12" fill="none" xmlns="http://www.w3.org/2000/svg">
<g clip-path="url(#clip0_21180_64583)">
<rect x="3" y="2" width="6" height="6" fill="white"/>
<path d="M11.7277 1.62161L6.10275 0.0151135C6.03564 -0.00438678 5.96436 -0.00438678 5.89725 0.0151135L0.27225 1.62161C0.193814 1.64396 0.124802 1.69127 0.0756734 1.75637C0.0265447 1.82147 -2.20309e-05 1.90081 1.37081e-08 1.98236C1.37081e-08 9.78986 5.81475 11.9574 5.874 11.9784C5.95548 12.0074 6.04452 12.0074 6.126 11.9784C6.18525 11.9574 12 9.78986 12 1.98236C12 1.90081 11.9735 1.82147 11.9243 1.75637C11.8752 1.69127 11.8062 1.64396 11.7277 1.62161ZM7.7055 7.87511L6 6.97511L4.2945 7.87511L4.62075 5.97686L3.23925 4.63061L5.14725 4.35386L6 2.62511L6.85275 4.35011L8.76075 4.62686L7.37925 5.97686L7.7055 7.87511Z" fill="#FF6D03"/>
</g>
<defs>
<clipPath id="clip0_21180_64583">
<rect width="12" height="12" fill="white"/>
</clipPath>
</defs>
</svg>
