<svg width="196" height="56" viewBox="0 0 196 56" fill="none" xmlns="http://www.w3.org/2000/svg">
<rect width="196" height="56" rx="28" fill="white"/>
<path d="M59.26 21H62.704C65.224 21 67.45 19.306 67.45 16.058C67.45 12.796 65.252 11.074 62.732 11.074H59.26V21ZM62.662 19.782H60.632V12.292H62.69C64.524 12.292 66.036 13.552 66.036 16.058C66.036 18.55 64.496 19.782 62.662 19.782ZM72.0802 14.056C70.0642 14.056 68.6362 15.582 68.6362 17.626C68.6362 19.684 70.0642 21.21 72.0802 21.21C74.0962 21.21 75.5242 19.684 75.5242 17.626C75.5242 15.582 74.0962 14.056 72.0802 14.056ZM72.0802 20.034C70.9602 20.034 69.9802 19.194 69.9802 17.626C69.9802 16.072 70.9602 15.232 72.0802 15.232C73.2002 15.232 74.1802 16.072 74.1802 17.626C74.1802 19.194 73.2002 20.034 72.0802 20.034ZM82.2232 14.266H80.8652L79.1152 19.334L77.6032 14.266H76.1612L78.3732 21H79.7592L81.5092 15.876L83.3012 21H84.6592L86.8432 14.266H85.4572L83.9732 19.334L82.2232 14.266ZM89.4887 21V17.108C89.4887 16.086 90.0207 15.26 91.0567 15.26C92.2327 15.26 92.6247 16.016 92.6247 16.954V21H93.9407V16.73C93.9407 15.232 93.1427 14.07 91.5327 14.07C90.7487 14.07 89.9507 14.392 89.4607 15.232V14.266H88.1727V21H89.4887ZM96.0341 21H97.3501V10.864H96.0341V21ZM102.473 14.056C100.457 14.056 99.0288 15.582 99.0288 17.626C99.0288 19.684 100.457 21.21 102.473 21.21C104.489 21.21 105.917 19.684 105.917 17.626C105.917 15.582 104.489 14.056 102.473 14.056ZM102.473 20.034C101.353 20.034 100.373 19.194 100.373 17.626C100.373 16.072 101.353 15.232 102.473 15.232C103.593 15.232 104.573 16.072 104.573 17.626C104.573 19.194 103.593 20.034 102.473 20.034ZM107.18 19.194C107.18 20.258 108.062 21.21 109.434 21.21C110.638 21.21 111.31 20.566 111.604 20.09C111.604 20.58 111.646 20.832 111.674 21H112.962C112.934 20.832 112.878 20.482 112.878 19.894V16.52C112.878 15.204 112.094 14.056 110.078 14.056C108.622 14.056 107.46 14.952 107.32 16.24L108.58 16.534C108.664 15.75 109.182 15.176 110.106 15.176C111.128 15.176 111.562 15.722 111.562 16.38C111.562 16.618 111.45 16.828 111.044 16.884L109.224 17.15C108.062 17.318 107.18 17.99 107.18 19.194ZM109.616 20.104C108.944 20.104 108.524 19.628 108.524 19.124C108.524 18.522 108.944 18.2 109.504 18.116L111.562 17.808V18.116C111.562 19.586 110.694 20.104 109.616 20.104ZM119.647 19.978V20.09C119.647 20.496 119.689 20.846 119.717 21H120.991C120.977 20.888 120.921 20.398 120.921 19.754V10.864H119.619V15.218C119.395 14.672 118.751 14.084 117.561 14.084C115.657 14.084 114.369 15.708 114.369 17.612C114.369 19.614 115.587 21.182 117.561 21.182C118.611 21.182 119.325 20.622 119.647 19.978ZM115.713 17.612C115.713 16.226 116.497 15.246 117.701 15.246C118.905 15.246 119.633 16.198 119.633 17.584C119.633 18.97 118.891 20.02 117.687 20.02C116.427 20.02 115.713 18.998 115.713 17.612Z" fill="#1A202C"/>
<path d="M68.06 41.44L69.4 45H72.02L66.5 30.82H63.72L58.2 45H60.74L62.06 41.44H68.06ZM62.9 39.22L65.06 33.42L67.22 39.22H62.9ZM73.6602 48.8H75.9602V43.9C76.4602 44.64 77.5202 45.24 78.9202 45.24C81.7202 45.24 83.5002 43.04 83.5002 40.12C83.5002 37.24 81.8802 35.04 79.0002 35.04C77.5002 35.04 76.3802 35.74 75.9002 36.58V35.26H73.6602V48.8ZM81.1802 40.12C81.1802 41.98 80.1002 43.18 78.5602 43.18C77.0402 43.18 75.9402 41.98 75.9402 40.12C75.9402 38.3 77.0402 37.1 78.5602 37.1C80.1202 37.1 81.1802 38.3 81.1802 40.12ZM85.7305 48.8H88.0305V43.9C88.5305 44.64 89.5905 45.24 90.9905 45.24C93.7905 45.24 95.5705 43.04 95.5705 40.12C95.5705 37.24 93.9505 35.04 91.0705 35.04C89.5705 35.04 88.4505 35.74 87.9705 36.58V35.26H85.7305V48.8ZM93.2505 40.12C93.2505 41.98 92.1705 43.18 90.6305 43.18C89.1105 43.18 88.0105 41.98 88.0105 40.12C88.0105 38.3 89.1105 37.1 90.6305 37.1C92.1905 37.1 93.2505 38.3 93.2505 40.12ZM97.8008 45H100.121V30.52H97.8008V45ZM111.733 42.22L109.773 41.6C109.453 42.56 108.733 43.3 107.333 43.3C105.893 43.3 104.733 42.24 104.673 40.76H111.793C111.813 40.72 111.853 40.4 111.853 40.02C111.853 36.94 110.093 34.96 107.093 34.96C104.633 34.96 102.353 37 102.353 40.08C102.353 43.38 104.693 45.3 107.333 45.3C109.673 45.3 111.213 43.92 111.733 42.22ZM109.513 39.06H104.733C104.813 38.02 105.653 36.9 107.113 36.9C108.713 36.9 109.473 37.92 109.513 39.06ZM126.391 34.82L128.551 34.14C128.231 32.56 126.931 30.52 123.591 30.52C120.951 30.52 118.771 32.48 118.771 34.86C118.771 36.98 120.211 38.4 122.371 38.84L124.371 39.26C125.591 39.52 126.271 40.26 126.271 41.18C126.271 42.28 125.391 43.14 123.691 43.14C121.651 43.14 120.591 41.78 120.451 40.3L118.211 40.94C118.431 42.98 120.091 45.3 123.691 45.3C126.931 45.3 128.711 43.2 128.711 41C128.711 39 127.371 37.42 124.871 36.92L122.831 36.5C121.731 36.26 121.171 35.58 121.171 34.68C121.171 33.6 122.171 32.64 123.611 32.64C125.511 32.64 126.251 33.94 126.391 34.82ZM133.905 35.26V32.28H131.805V33.74C131.805 34.6 131.345 35.26 130.305 35.26H129.805V37.32H131.605V42.22C131.605 44.04 132.725 45.12 134.525 45.12C135.365 45.12 135.805 44.96 135.945 44.9V42.98C135.845 43 135.465 43.06 135.145 43.06C134.285 43.06 133.905 42.7 133.905 41.84V37.32H135.925V35.26H133.905ZM142.491 34.96C139.591 34.96 137.451 37.14 137.451 40.12C137.451 43.12 139.591 45.3 142.491 45.3C145.411 45.3 147.551 43.12 147.551 40.12C147.551 37.14 145.411 34.96 142.491 34.96ZM142.491 43.22C141.071 43.22 139.771 42.14 139.771 40.12C139.771 38.1 141.071 37.06 142.491 37.06C143.931 37.06 145.211 38.1 145.211 40.12C145.211 42.16 143.931 43.22 142.491 43.22ZM155.493 37.56V35.2C155.393 35.18 155.153 35.14 154.873 35.14C153.593 35.14 152.513 35.76 152.053 36.82V35.26H149.793V45H152.113V40.36C152.113 38.54 152.933 37.5 154.733 37.5C154.973 37.5 155.233 37.52 155.493 37.56ZM165.952 42.22L163.992 41.6C163.672 42.56 162.952 43.3 161.552 43.3C160.112 43.3 158.952 42.24 158.892 40.76H166.012C166.032 40.72 166.072 40.4 166.072 40.02C166.072 36.94 164.312 34.96 161.312 34.96C158.852 34.96 156.572 37 156.572 40.08C156.572 43.38 158.912 45.3 161.552 45.3C163.892 45.3 165.432 43.92 165.952 42.22ZM163.732 39.06H158.952C159.032 38.02 159.872 36.9 161.332 36.9C162.932 36.9 163.692 37.92 163.732 39.06Z" fill="#1A202C"/>
<path d="M38.7448 28.6388C38.7767 26.1699 40.1033 23.8339 42.2078 22.5407C40.8802 20.6456 38.6564 19.4441 36.3428 19.3718C33.8751 19.1129 31.4828 20.8475 30.2253 20.8475C28.9435 20.8475 27.0074 19.3975 24.9226 19.4403C22.2051 19.5281 19.6717 21.0722 18.3496 23.4467C15.5076 28.3645 17.6275 35.592 20.3499 39.5672C21.712 41.5137 23.3039 43.688 25.3868 43.6109C27.4251 43.5264 28.1864 42.3119 30.6468 42.3119C33.0844 42.3119 33.7986 43.6109 35.9238 43.5619C38.111 43.5264 39.4891 41.6067 40.8034 39.6418C41.782 38.2548 42.5351 36.7219 43.0347 35.0998C40.4643 34.0133 38.7478 31.428 38.7448 28.6388Z" fill="#1A202C"/>
<path d="M34.7306 16.7575C35.9232 15.3267 36.5107 13.4876 36.3684 11.6309C34.5465 11.8221 32.8635 12.6924 31.6548 14.0683C30.4729 15.4126 29.8579 17.2194 29.9741 19.0051C31.7968 19.0239 33.5885 18.1772 34.7306 16.7575Z" fill="#1A202C"/>
</svg>
