<svg width="196" height="56" viewBox="0 0 196 56" fill="none" xmlns="http://www.w3.org/2000/svg">
<rect width="196" height="56" rx="28" fill="white"/>
<path d="M59.26 21H62.704C65.224 21 67.45 19.306 67.45 16.058C67.45 12.796 65.252 11.074 62.732 11.074H59.26V21ZM62.662 19.782H60.632V12.292H62.69C64.524 12.292 66.036 13.552 66.036 16.058C66.036 18.55 64.496 19.782 62.662 19.782ZM72.0802 14.056C70.0642 14.056 68.6362 15.582 68.6362 17.626C68.6362 19.684 70.0642 21.21 72.0802 21.21C74.0962 21.21 75.5242 19.684 75.5242 17.626C75.5242 15.582 74.0962 14.056 72.0802 14.056ZM72.0802 20.034C70.9602 20.034 69.9802 19.194 69.9802 17.626C69.9802 16.072 70.9602 15.232 72.0802 15.232C73.2002 15.232 74.1802 16.072 74.1802 17.626C74.1802 19.194 73.2002 20.034 72.0802 20.034ZM82.2232 14.266H80.8652L79.1152 19.334L77.6032 14.266H76.1612L78.3732 21H79.7592L81.5092 15.876L83.3012 21H84.6592L86.8432 14.266H85.4572L83.9732 19.334L82.2232 14.266ZM89.4887 21V17.108C89.4887 16.086 90.0207 15.26 91.0567 15.26C92.2327 15.26 92.6247 16.016 92.6247 16.954V21H93.9407V16.73C93.9407 15.232 93.1427 14.07 91.5327 14.07C90.7487 14.07 89.9507 14.392 89.4607 15.232V14.266H88.1727V21H89.4887ZM96.0341 21H97.3501V10.864H96.0341V21ZM102.473 14.056C100.457 14.056 99.0288 15.582 99.0288 17.626C99.0288 19.684 100.457 21.21 102.473 21.21C104.489 21.21 105.917 19.684 105.917 17.626C105.917 15.582 104.489 14.056 102.473 14.056ZM102.473 20.034C101.353 20.034 100.373 19.194 100.373 17.626C100.373 16.072 101.353 15.232 102.473 15.232C103.593 15.232 104.573 16.072 104.573 17.626C104.573 19.194 103.593 20.034 102.473 20.034ZM107.18 19.194C107.18 20.258 108.062 21.21 109.434 21.21C110.638 21.21 111.31 20.566 111.604 20.09C111.604 20.58 111.646 20.832 111.674 21H112.962C112.934 20.832 112.878 20.482 112.878 19.894V16.52C112.878 15.204 112.094 14.056 110.078 14.056C108.622 14.056 107.46 14.952 107.32 16.24L108.58 16.534C108.664 15.75 109.182 15.176 110.106 15.176C111.128 15.176 111.562 15.722 111.562 16.38C111.562 16.618 111.45 16.828 111.044 16.884L109.224 17.15C108.062 17.318 107.18 17.99 107.18 19.194ZM109.616 20.104C108.944 20.104 108.524 19.628 108.524 19.124C108.524 18.522 108.944 18.2 109.504 18.116L111.562 17.808V18.116C111.562 19.586 110.694 20.104 109.616 20.104ZM119.647 19.978V20.09C119.647 20.496 119.689 20.846 119.717 21H120.991C120.977 20.888 120.921 20.398 120.921 19.754V10.864H119.619V15.218C119.395 14.672 118.751 14.084 117.561 14.084C115.657 14.084 114.369 15.708 114.369 17.612C114.369 19.614 115.587 21.182 117.561 21.182C118.611 21.182 119.325 20.622 119.647 19.978ZM115.713 17.612C115.713 16.226 116.497 15.246 117.701 15.246C118.905 15.246 119.633 16.198 119.633 17.584C119.633 18.97 118.891 20.02 117.687 20.02C116.427 20.02 115.713 18.998 115.713 17.612Z" fill="#1A202C"/>
<path d="M70.34 45H72.28V37.82H65.34V39.92H70.02C69.9 41.14 68.82 43.1 65.96 43.1C63.52 43.1 61.28 41.36 61.28 37.9C61.28 34.38 63.68 32.74 65.98 32.74C68.24 32.74 69.64 34.1 70.12 35.7L72.38 34.84C71.62 32.5 69.42 30.52 65.98 30.52C62.3 30.52 58.84 33.24 58.84 37.9C58.84 42.58 62.12 45.3 65.82 45.3C68.08 45.3 69.54 44.24 70.16 43.2L70.34 45ZM79.2683 34.96C76.3683 34.96 74.2283 37.14 74.2283 40.12C74.2283 43.12 76.3683 45.3 79.2683 45.3C82.1883 45.3 84.3283 43.12 84.3283 40.12C84.3283 37.14 82.1883 34.96 79.2683 34.96ZM79.2683 43.22C77.8483 43.22 76.5483 42.14 76.5483 40.12C76.5483 38.1 77.8483 37.06 79.2683 37.06C80.7083 37.06 81.9883 38.1 81.9883 40.12C81.9883 42.16 80.7083 43.22 79.2683 43.22ZM90.8503 34.96C87.9503 34.96 85.8103 37.14 85.8103 40.12C85.8103 43.12 87.9503 45.3 90.8503 45.3C93.7703 45.3 95.9103 43.12 95.9103 40.12C95.9103 37.14 93.7703 34.96 90.8503 34.96ZM90.8503 43.22C89.4303 43.22 88.1303 42.14 88.1303 40.12C88.1303 38.1 89.4303 37.06 90.8503 37.06C92.2903 37.06 93.5703 38.1 93.5703 40.12C93.5703 42.16 92.2903 43.22 90.8503 43.22ZM99.5923 44.98L97.4523 45.54C97.7123 47.5 99.5123 49.1 102.092 49.1C105.752 49.1 107.092 46.68 107.092 44.08V35.26H104.852V36.5C104.432 35.7 103.492 35.08 101.972 35.08C99.2923 35.08 97.4723 37.22 97.4723 39.82C97.4723 42.56 99.3723 44.56 101.972 44.56C103.392 44.56 104.372 43.9 104.792 43.14V44.16C104.792 46.14 103.872 47.08 102.032 47.08C100.692 47.08 99.7523 46.18 99.5923 44.98ZM102.352 42.58C100.832 42.58 99.8123 41.52 99.8123 39.82C99.8123 38.16 100.872 37.08 102.352 37.08C103.792 37.08 104.852 38.16 104.852 39.82C104.852 41.5 103.832 42.58 102.352 42.58ZM109.93 45H112.25V30.52H109.93V45ZM123.862 42.22L121.902 41.6C121.582 42.56 120.862 43.3 119.462 43.3C118.022 43.3 116.862 42.24 116.802 40.76H123.922C123.942 40.72 123.982 40.4 123.982 40.02C123.982 36.94 122.222 34.96 119.222 34.96C116.762 34.96 114.482 37 114.482 40.08C114.482 43.38 116.822 45.3 119.462 45.3C121.802 45.3 123.342 43.92 123.862 42.22ZM121.642 39.06H116.862C116.942 38.02 117.782 36.9 119.242 36.9C120.842 36.9 121.602 37.92 121.642 39.06ZM133.76 39.46H136.62C139.34 39.46 141.14 37.64 141.14 35.14C141.14 32.66 139.34 30.82 136.62 30.82H131.36V45H133.76V39.46ZM136.26 37.34H133.76V32.94H136.26C137.78 32.94 138.7 33.8 138.7 35.16C138.7 36.5 137.78 37.34 136.26 37.34ZM143.035 45H145.355V30.52H143.035V45ZM147.709 42.36C147.709 43.9 148.969 45.3 151.009 45.3C152.589 45.3 153.549 44.5 154.009 43.76C154.009 44.54 154.089 44.94 154.109 45H156.269C156.249 44.9 156.149 44.32 156.149 43.44V38.6C156.149 36.66 155.009 34.96 152.009 34.96C149.609 34.96 148.089 36.46 147.909 38.14L150.029 38.62C150.129 37.64 150.809 36.86 152.029 36.86C153.309 36.86 153.869 37.52 153.869 38.34C153.869 38.68 153.709 38.96 153.149 39.04L150.649 39.42C148.989 39.66 147.709 40.62 147.709 42.36ZM151.449 43.48C150.529 43.48 150.029 42.88 150.029 42.22C150.029 41.42 150.609 41.02 151.329 40.9L153.869 40.52V40.96C153.869 42.86 152.749 43.48 151.449 43.48ZM159.199 48.94H161.679L167.879 35.26H165.419L162.799 41.42L159.999 35.26H157.379L161.539 43.84L159.199 48.94Z" fill="#1A202C"/>
<g filter="url(#filter0_ii_27131_70739)">
<path d="M16.576 12.124C16.214 12.5069 16 13.1013 16 13.871V41.3706C16 42.1415 16.214 42.7347 16.576 43.1176L16.6681 43.2072L32.0817 27.8023V27.6208V27.4393L16.6681 12.0332L16.576 12.124Z" fill="url(#paint0_linear_27131_70739)"/>
<path d="M37.2186 32.9397L32.0815 27.8031V27.6216V27.44L37.2198 22.3047L37.3355 22.3706L43.4231 25.8273C45.1611 26.8146 45.1611 28.4298 43.4231 29.4183L37.3355 32.875L37.2186 32.9397Z" fill="url(#paint1_linear_27131_70739)"/>
<g filter="url(#filter1_i_27131_70739)">
<path d="M37.3358 32.8734L32.0805 27.6211L16.5762 43.1181C17.1485 43.7249 18.0953 43.7995 19.1615 43.1952L37.3358 32.8734Z" fill="url(#paint2_linear_27131_70739)"/>
</g>
<path d="M37.3355 22.3692L19.1612 12.0487C18.095 11.4432 17.1482 11.519 16.5759 12.1258L32.0815 27.6227L37.3355 22.3692Z" fill="url(#paint3_linear_27131_70739)"/>
</g>
<defs>
<filter id="filter0_ii_27131_70739" x="16" y="11.6309" width="28.7266" height="31.9814" filterUnits="userSpaceOnUse" color-interpolation-filters="sRGB">
<feFlood flood-opacity="0" result="BackgroundImageFix"/>
<feBlend mode="normal" in="SourceGraphic" in2="BackgroundImageFix" result="shape"/>
<feColorMatrix in="SourceAlpha" type="matrix" values="0 0 0 0 0 0 0 0 0 0 0 0 0 0 0 0 0 0 127 0" result="hardAlpha"/>
<feOffset dy="-0.15"/>
<feComposite in2="hardAlpha" operator="arithmetic" k2="-1" k3="1"/>
<feColorMatrix type="matrix" values="0 0 0 0 0 0 0 0 0 0 0 0 0 0 0 0 0 0 0.12 0"/>
<feBlend mode="normal" in2="shape" result="effect1_innerShadow_27131_70739"/>
<feColorMatrix in="SourceAlpha" type="matrix" values="0 0 0 0 0 0 0 0 0 0 0 0 0 0 0 0 0 0 127 0" result="hardAlpha"/>
<feOffset dy="0.15"/>
<feComposite in2="hardAlpha" operator="arithmetic" k2="-1" k3="1"/>
<feColorMatrix type="matrix" values="0 0 0 0 1 0 0 0 0 1 0 0 0 0 1 0 0 0 0.25 0"/>
<feBlend mode="normal" in2="effect1_innerShadow_27131_70739" result="effect2_innerShadow_27131_70739"/>
</filter>
<filter id="filter1_i_27131_70739" x="16.5762" y="27.6211" width="20.7595" height="15.9912" filterUnits="userSpaceOnUse" color-interpolation-filters="sRGB">
<feFlood flood-opacity="0" result="BackgroundImageFix"/>
<feBlend mode="normal" in="SourceGraphic" in2="BackgroundImageFix" result="shape"/>
<feColorMatrix in="SourceAlpha" type="matrix" values="0 0 0 0 0 0 0 0 0 0 0 0 0 0 0 0 0 0 127 0" result="hardAlpha"/>
<feOffset dy="-0.15"/>
<feComposite in2="hardAlpha" operator="arithmetic" k2="-1" k3="1"/>
<feColorMatrix type="matrix" values="0 0 0 0 0 0 0 0 0 0 0 0 0 0 0 0 0 0 0.08 0"/>
<feBlend mode="normal" in2="shape" result="effect1_innerShadow_27131_70739"/>
</filter>
<linearGradient id="paint0_linear_27131_70739" x1="30.7154" y1="13.58" x2="9.84818" y2="34.4591" gradientUnits="userSpaceOnUse">
<stop stop-color="#00A0FF"/>
<stop offset="0.0066" stop-color="#00A1FF"/>
<stop offset="0.2601" stop-color="#00BEFF"/>
<stop offset="0.5122" stop-color="#00D2FF"/>
<stop offset="0.7604" stop-color="#00DFFF"/>
<stop offset="1" stop-color="#00E3FF"/>
</linearGradient>
<linearGradient id="paint1_linear_27131_70739" x1="45.6855" y1="27.6216" x2="15.5826" y2="27.6216" gradientUnits="userSpaceOnUse">
<stop stop-color="#FFE000"/>
<stop offset="0.4087" stop-color="#FFBD00"/>
<stop offset="0.7754" stop-color="#FFA500"/>
<stop offset="1" stop-color="#FF9C00"/>
</linearGradient>
<linearGradient id="paint2_linear_27131_70739" x1="34.4818" y1="30.4734" x2="6.18307" y2="58.788" gradientUnits="userSpaceOnUse">
<stop stop-color="#FF3A44"/>
<stop offset="1" stop-color="#C31162"/>
</linearGradient>
<linearGradient id="paint3_linear_27131_70739" x1="12.6711" y1="2.97147" x2="25.3072" y2="15.6147" gradientUnits="userSpaceOnUse">
<stop stop-color="#32A071"/>
<stop offset="0.0685" stop-color="#2DA771"/>
<stop offset="0.4762" stop-color="#15CF74"/>
<stop offset="0.8009" stop-color="#06E775"/>
<stop offset="1" stop-color="#00F076"/>
</linearGradient>
</defs>
</svg>
