<svg width="100" height="122" viewBox="0 0 100 122" fill="none" xmlns="http://www.w3.org/2000/svg">
<g clip-path="url(#clip0_27131_70751)">
<path d="M62.4584 73.8291L58.8989 74.4964C60.1263 74.5491 61.3187 74.2506 62.4584 73.8291Z" fill="#FF6D03"/>
<path d="M63.2826 73.5312C63.0196 73.6366 62.739 73.742 62.4585 73.8474L62.8968 73.7595L61.9499 74.2162L58.408 74.7079L22.9003 78.1148L22.9705 80.2398L22.8828 80.4154V80.31C22.4269 80.6261 21.9535 80.9247 21.4976 81.2408C35.0869 86.158 54.3574 85.1746 63.2826 73.5312Z" fill="#F54D05"/>
<path d="M48.2553 108.496C44.2223 108.847 40.3647 107.793 36.3317 107.091C35.7356 112.289 31.7727 115.345 28.4412 118.822C28.4938 118.804 28.5639 118.804 28.6165 118.787C29.3705 118.629 30.0719 118.278 30.7557 117.891C32.5092 116.873 34.0873 115.538 35.3849 113.975C35.3849 113.975 35.4901 113.834 35.6479 113.659C36.5597 112.517 37.3663 111.499 38.1729 110.269C40.4348 110.726 42.7845 110.849 45.0815 110.638C45.1166 112.482 45.1341 114.326 45.1692 116.17C45.1867 117.083 45.2043 118.014 45.5725 118.839C45.8706 119.507 46.3966 120.051 47.0103 120.473C46.4317 116.434 47.0279 112.078 48.2553 108.496Z" fill="#F54D05"/>
<path d="M77.3277 71.4761C77.1173 71.3356 76.8718 71.2302 76.6088 71.2127V71.1775C77.3628 70.598 78.1168 70.0009 78.5902 69.1755C78.8357 68.7365 79.0111 68.2448 78.9585 67.753C78.9234 67.2613 78.6604 66.7696 78.2045 66.5413C77.8538 66.3657 77.4505 66.3481 77.0647 66.4184C76.0652 66.594 75.1534 67.2262 74.6449 68.1043C74.4871 67.9286 74.3293 67.7706 74.1364 67.6477C73.435 67.1911 72.5057 67.1033 71.7517 67.4369C70.647 67.9111 70.0158 69.1228 69.8054 70.317C69.1391 70.7209 68.4552 71.0897 67.7714 71.4585L64.0715 73.1971C63.8611 73.2849 63.6332 73.3727 63.4228 73.4605C63.3702 73.4781 63.3176 73.4957 63.265 73.5308C54.3398 85.1741 35.0693 86.1751 21.4799 81.2579C20.6558 81.8374 19.8667 82.452 19.1654 83.1545C18.0782 84.2609 17.2015 85.6307 16.956 87.1761C16.6754 88.9147 17.219 90.6884 18.1133 92.1987C19.0251 93.7441 20.2876 95.0612 21.5325 96.3608C21.287 97.0281 21.0065 97.6954 20.9188 98.3979C20.8487 98.995 20.9364 99.6448 21.2695 100.137C21.7956 100.909 22.532 100.997 23.4613 101.102L23.4438 100.751L26.4422 97.713C23.7945 100.681 21.2169 103.719 18.7095 106.81C18.0256 107.653 17.3067 108.584 17.1839 109.672C17.0787 110.603 17.447 111.516 17.8853 112.342C18.6218 113.676 19.6563 114.853 20.8837 115.766C22.0761 117.259 23.8646 118.155 25.7233 118.629C26.5825 118.84 27.4943 118.962 28.371 118.822C31.7026 115.345 35.6654 112.289 36.2616 107.091C40.2946 107.793 44.1522 108.847 48.1852 108.496C46.9577 112.078 46.3616 116.451 46.9227 120.455C47.1857 120.631 47.4838 120.789 47.7819 120.912C48.7638 121.316 49.8159 121.456 50.8855 121.509C51.885 121.562 52.8669 121.544 53.8664 121.456C55.0588 121.228 56.2336 121 57.4259 120.736C58.3903 120.525 59.3723 120.28 60.1438 119.665C61.2485 118.787 61.6518 117.312 61.9849 115.942C62.9318 111.92 63.563 107.811 63.9137 103.684C64.1417 99.1004 63.7735 94.4817 62.8266 89.9684L62.8967 89.9508C62.4584 88.4054 62.4584 86.7546 62.9318 86.1751C65.1061 83.453 69.6125 82.9438 72.6635 80.7134L73.8208 79.3612L74.2767 79.1505C74.4871 78.8695 74.68 78.5709 74.8553 78.2548C74.68 78.5709 74.4871 78.8695 74.2767 79.1505L76.451 78.1495C76.6965 78.0792 76.942 77.9738 77.1699 77.8509C77.3628 77.7455 77.5381 77.6226 77.696 77.4821C78.5026 76.7972 79.0286 75.7435 79.0461 74.6898C79.1338 73.4078 78.4324 72.1434 77.3277 71.4761Z" fill="#FF6D03"/>
<path d="M62.9843 86.1931C62.5109 86.7902 62.5109 88.441 62.9493 89.9688L63.3 89.8986L68.613 85.4906L72.6985 80.7314C69.665 82.9618 65.1586 83.4535 62.9843 86.1931Z" fill="#F54D05"/>
<path d="M23.0756 90.0033C23.7419 92.2687 24.1628 94.6571 23.8647 96.9928C23.7069 98.1694 23.251 99.4865 22.1638 99.9607C23.8822 101.945 25.5831 98.8192 26.2319 97.4669C27.056 95.7459 26.9332 93.059 26.9332 91.1448C27.0384 89.5115 27.4242 87.6676 26.9858 86.0695C26.9683 85.9992 26.9332 85.9114 26.8631 85.8763C26.7754 85.8236 26.6527 85.8763 26.5475 85.929C25.2499 86.6139 22.5145 88.0715 23.0756 90.0033Z" fill="#F54D05"/>
<path d="M71.8219 69.93C70.8751 70.4568 70.314 71.5632 70.2789 72.6344C70.2438 73.7233 70.6647 74.7945 71.3134 75.655C71.8044 76.3399 72.4883 76.937 73.3124 77.06C75.5042 77.3585 77.3278 74.3555 76.5037 72.4413C75.7848 70.7905 73.6455 68.8938 71.8219 69.93Z" fill="#F54D05"/>
<path d="M22.6548 79.9221C19.9019 81.766 16.7983 83.9963 16.4827 87.5965C16.167 91.2668 18.8849 94.1996 21.2345 96.6582C21.1995 96.5177 21.1644 96.3772 21.1293 96.2367C20.6734 97.4485 20.1299 98.871 20.7962 100.135C21.3573 101.189 22.4094 101.417 23.4965 101.54C24.0576 101.611 24.0576 100.732 23.4965 100.662C22.5672 100.557 21.6729 100.364 21.4099 99.31C21.1819 98.3441 21.6378 97.3607 21.971 96.4826C22.0236 96.3421 21.9535 96.1665 21.8658 96.0611C19.7266 93.8308 17.2191 91.2493 17.3418 87.9126C17.4821 84.5232 20.5682 82.3982 23.0932 80.7123C23.5666 80.3787 23.1283 79.606 22.6548 79.9221Z" fill="#0F477D"/>
<path d="M37.5243 110.568C40.1896 111.13 42.8899 111.288 45.5902 111.007C46.1513 110.954 46.1513 110.076 45.5902 110.129C42.96 110.41 40.3474 110.269 37.7522 109.725C37.2087 109.602 36.9632 110.462 37.5243 110.568Z" fill="#0F477D"/>
<path d="M60.6525 83.5401C63.16 90.8457 64.1419 98.6781 63.2652 106.37C63.0372 108.337 62.7391 110.286 62.3709 112.218C62.0378 114.009 61.7572 115.924 61.0909 117.627C60.3018 119.594 58.636 120.05 56.7248 120.454C54.7433 120.876 52.8321 121.192 50.7981 121.069C48.6764 120.946 46.204 120.226 45.7305 117.855C45.5026 116.749 45.5903 115.537 45.5727 114.413C45.5552 113.254 45.5377 112.078 45.5201 110.918C45.5201 110.357 44.6434 110.357 44.6434 110.918C44.6785 113.149 44.5207 115.467 44.8187 117.68C45.0467 119.366 46.0988 120.63 47.6418 121.315C49.4654 122.105 51.6748 122.105 53.6036 121.947C54.6206 121.859 55.6376 121.596 56.6371 121.385C57.5664 121.192 58.5308 121.016 59.4076 120.648C61.0383 119.945 61.8098 118.505 62.2657 116.854C62.8443 114.764 63.2301 112.622 63.5633 110.479C64.2647 106.159 64.6329 101.857 64.3523 97.5015C64.0367 92.6721 63.0723 87.8953 61.4942 83.3293C61.3013 82.7674 60.4596 82.9957 60.6525 83.5401Z" fill="#0F477D"/>
<path d="M37.7171 110.146C35.7182 113.166 33.2809 116.099 30.0194 117.785C28.1958 118.733 26.2495 118.452 24.4084 117.697C22.7776 117.03 21.5502 115.801 20.2877 114.606C19.0252 113.412 17.377 111.375 17.7101 109.496C17.8679 108.583 18.5167 107.81 19.0778 107.108C19.7091 106.317 20.3754 105.527 21.0242 104.737C22.3393 103.156 23.6544 101.611 25.0045 100.065C25.5656 99.4332 26.4248 98.7132 26.8457 97.9756C27.0912 97.519 27.0035 96.799 27.0561 96.2897C27.3016 92.8652 27.5471 89.4231 27.7399 85.9986C27.775 85.4367 26.8983 85.4367 26.8632 85.9986C26.6703 89.388 26.4424 92.7949 26.1969 96.1843C26.1794 96.5356 26.1969 96.957 26.1092 97.3083C26.004 97.7649 25.6183 98.0634 25.3026 98.4322C24.5486 99.2927 23.8122 100.136 23.0582 101.014C21.5853 102.735 20.1124 104.491 18.6921 106.247C17.6225 107.564 16.5704 108.934 16.886 110.725C17.2016 112.499 18.4992 114.167 19.7968 115.362C21.1294 116.591 22.3393 117.803 24.0401 118.505C25.6533 119.19 27.5997 119.647 29.3181 119.085C33.2633 117.785 36.2968 113.957 38.4887 110.62C38.7868 110.111 38.0328 109.672 37.7171 110.146Z" fill="#0F477D"/>
<path d="M63.0372 90.3361C65.4219 89.2297 67.2981 87.1925 69.1217 85.3486C70.3316 84.1368 71.5064 82.8724 72.6462 81.5729C73.1898 80.9406 73.6983 80.1679 74.2944 79.5884C74.7679 79.1494 75.6095 79.0967 76.1707 78.7454C76.6616 78.4645 76.2233 77.6918 75.7323 77.9903C75.1536 78.324 74.3997 78.3415 73.8736 78.7103C73.5755 78.9211 73.295 79.4128 73.067 79.7113C72.7865 80.045 72.5234 80.3787 72.2429 80.6948C71.1557 81.9592 70.0335 83.1885 68.8587 84.3651C66.9825 86.2618 65.0537 88.4219 62.5988 89.5458C62.0728 89.8268 62.5287 90.5819 63.0372 90.3361Z" fill="#0F477D"/>
<path d="M72.8915 71.3881C73.6806 71.6164 74.7502 71.6339 75.3463 70.949C75.8899 70.3168 75.8198 69.3334 75.5042 68.6134C74.7502 66.8221 72.4707 66.2425 70.9452 67.4192C70.2788 67.9285 69.8405 68.6836 69.5775 69.4739C69.4898 69.7197 69.4898 69.8954 69.3144 70.0885C69.1566 70.2641 68.6832 70.4573 68.4728 70.5627C67.9117 70.8788 67.333 71.1773 66.7544 71.4759C64.3697 72.6701 61.6343 74.0926 58.8989 74.0399C58.3378 74.0223 58.3378 74.9004 58.8989 74.918C60.6874 74.9531 62.3707 74.356 64.0014 73.6886C65.6848 72.9862 67.3155 72.2135 68.9111 71.3178C69.5599 70.9666 70.121 70.791 70.3139 70.0534C70.5068 69.2807 70.8926 68.4904 71.5589 68.0163C72.4882 67.384 73.8384 67.5948 74.4696 68.5431C74.6976 68.8768 74.8554 69.3158 74.8554 69.7373C74.8378 70.6856 73.7858 70.7032 73.1194 70.51C72.5759 70.3871 72.3479 71.23 72.8915 71.3881Z" fill="#0F477D"/>
<path d="M72.8213 71.3873C73.5052 71.8439 74.6975 73.3893 73.7857 74.1445C73.3473 74.5133 73.9786 75.1279 74.3994 74.7591C75.8022 73.6001 74.3994 71.3873 73.2597 70.6322C72.7862 70.3161 72.3478 71.0888 72.8213 71.3873Z" fill="#0F477D"/>
<path d="M75.1711 68.1212C75.5393 67.647 75.9426 67.2782 76.4861 67.0499C77.1875 66.7514 78.3097 66.646 78.5202 67.6119C78.8007 68.9817 77.2752 70.1232 76.3459 70.8257C75.9075 71.1594 76.3459 71.9321 76.7842 71.5808C78.1169 70.5623 80.2561 68.7183 79.1339 66.8041C78.0643 64.9952 75.5042 66.2597 74.5398 67.489C74.2066 67.9456 74.8204 68.5778 75.1711 68.1212Z" fill="#0F477D"/>
<path d="M76.4336 71.616C78.8183 71.9672 79.169 75.3039 77.8013 76.8318C77.0999 77.622 76.0653 78.0435 75.0659 77.6045C73.8209 77.0601 73.3124 75.4444 74.5924 74.6014C75.0659 74.2853 74.6275 73.5302 74.1541 73.8463C72.8214 74.7244 72.5584 76.4103 73.6456 77.6396C74.6626 78.7635 76.2758 78.9743 77.5558 78.184C78.8884 77.3586 79.695 75.7605 79.5021 74.1975C79.3268 72.7224 78.2221 71.0189 76.6615 70.7906C76.1179 70.7028 75.89 71.5457 76.4336 71.616Z" fill="#0F477D"/>
<path d="M40.1545 91.6714C40.698 90.3191 39.9616 89.1776 38.4887 89.0898C38.0678 89.0547 37.6295 89.0898 37.2086 89.0898C36.9106 89.0898 36.6125 89.0898 36.3144 89.0898C36.2267 89.0898 36.139 89.0898 36.0514 89.0898C35.2798 89.1074 35.2272 89.1601 35.2097 89.8801C35.1922 90.8284 35.2097 91.7592 35.2097 92.7075C35.2097 93.4802 35.2097 94.2529 35.2272 95.0256C35.2272 95.3242 35.4026 95.4998 35.7007 95.5173C36.2618 95.5349 36.8053 95.5349 37.3665 95.5349C37.7873 95.5349 38.2257 95.57 38.6465 95.5173C40.2246 95.3242 40.8734 94.1651 40.1369 92.7602C39.9265 92.3036 39.9967 92.0226 40.1545 91.6714ZM37.4015 90.3367C37.6645 90.3367 37.91 90.3367 38.173 90.3718C38.4536 90.4069 38.6114 90.6177 38.664 90.8811C38.7166 91.1445 38.4887 91.5309 38.2257 91.6011C38.0152 91.6538 37.8048 91.6538 37.7347 91.6714C37.5067 91.6714 37.4191 91.6714 37.3314 91.6714C36.858 91.6538 36.7527 91.5309 36.7352 91.0392C36.7352 90.4596 36.8404 90.3367 37.4015 90.3367ZM38.3133 94.2353C38.0678 94.288 37.8048 94.2705 37.6295 94.288C37.4191 94.2705 37.2963 94.2705 37.1736 94.2529C36.9281 94.2354 36.7878 94.0949 36.7703 93.849C36.7001 92.6548 36.8053 92.7251 37.875 92.7075C38.2432 92.7075 38.5413 92.7777 38.7517 93.1114C39.0147 93.5856 38.8043 94.13 38.3133 94.2353Z" fill="#FDECE3"/>
<path d="M50.8682 90.811C50.6227 90.811 50.4649 90.9691 50.4649 91.2149C50.4473 91.9877 50.4473 92.7603 50.4298 93.5331C50.4123 94.0072 50.1843 94.218 49.7109 94.2531C49.2374 94.2882 48.9744 94.0775 48.9394 93.6033C48.9043 93.2696 48.9218 92.9184 48.9043 92.5672C48.9043 92.1457 48.9043 91.7067 48.8868 91.2852C48.8692 90.9691 48.6939 90.8286 48.3958 90.811C48.2204 90.7935 48.0451 90.7935 47.8873 90.811C47.5015 90.8286 47.3437 90.9691 47.3437 91.3554C47.3262 92.2159 47.3262 93.0765 47.3262 93.937C47.3437 94.7624 47.6944 95.2014 48.4659 95.4473C48.8341 95.5702 49.255 95.6053 49.6057 95.4999C50.1142 95.3419 50.5876 95.3068 51.0961 95.4824C51.3767 95.5702 51.6923 95.4999 51.9904 95.5175C52.0079 93.9721 52.0254 92.4267 52.0254 90.8988C51.6397 90.8461 51.2539 90.811 50.8682 90.811Z" fill="#FDECE3"/>
<path d="M46.5547 94.27C45.8708 94.0944 45.8708 94.0944 45.8533 93.4622C45.8533 93.1988 45.8708 92.9529 45.8533 92.6895C45.8358 92.2856 46.0111 92.0397 46.4144 91.9695C46.7826 91.9168 46.9054 91.706 46.9054 91.3548C46.9054 91.0036 46.7651 90.7928 46.3969 90.7753C45.9585 90.7402 45.8358 90.4767 45.8533 90.0728C45.8533 89.9499 45.8533 89.8094 45.8182 89.6865C45.7656 89.423 45.5903 89.3528 45.3448 89.423C44.7662 89.5811 44.17 89.704 44.1525 90.5119C44.1525 90.6348 43.8894 90.7402 43.8368 90.8806C43.6966 91.1968 43.5913 91.6182 43.907 91.829C44.3103 92.11 44.2927 92.4612 44.2927 92.83C44.2927 93.2515 44.3103 93.6905 44.2927 94.112C44.2752 94.6388 44.5557 94.9901 44.959 95.2886C45.2922 95.5345 45.6604 95.552 46.3267 95.5345C46.2566 95.5345 46.4845 95.552 46.695 95.4994C46.8177 95.4818 46.9405 95.394 47.0106 95.3062C47.2561 94.955 47.0281 94.393 46.5547 94.27Z" fill="#FDECE3"/>
<path d="M41.715 90.7055C41.6274 90.7055 41.5397 90.7055 41.452 90.7231C41.1189 90.7757 40.9611 90.9865 40.9611 91.3553C40.9611 91.566 40.9435 91.8294 41.1539 91.9348C41.6624 92.2334 41.6098 92.7075 41.6098 93.1641C41.6098 93.7261 41.5923 94.288 41.6274 94.8325C41.6449 95.3417 41.7676 95.4471 42.2235 95.4647C42.9951 95.4998 43.1529 95.3769 43.1704 94.6217C43.188 94.1124 43.1704 93.5856 43.1704 93.0763C43.1704 92.7251 43.1704 92.3914 43.1704 92.0402C43.188 90.7406 43.223 90.6704 41.715 90.7055Z" fill="#FDECE3"/>
<path d="M42.7497 88.8262C42.5392 88.8086 42.3288 88.8086 42.1009 88.8086C41.4872 88.8262 41.3644 88.9666 41.3995 89.5813C41.417 89.8798 41.5047 90.073 41.8379 90.1081C41.9606 90.1081 42.1009 90.1081 42.2236 90.1081C42.3464 90.1081 42.4866 90.1081 42.6094 90.1081C43.1179 90.073 43.2406 89.8974 43.2056 89.353C43.188 89.0369 43.0653 88.8437 42.7497 88.8262Z" fill="#FDECE3"/>
<path d="M73.6632 59.8855C73.7158 59.8153 73.7158 59.745 73.6807 59.6572C73.6456 59.745 73.6281 59.8153 73.6632 59.8855Z" fill="#F54D05"/>
<path d="M73.6106 59.7275C73.6106 59.7802 73.6457 59.8328 73.6632 59.8855C73.6281 59.8153 73.6281 59.7275 73.6807 59.6572C73.6632 59.6924 73.6106 59.7099 73.6106 59.7275Z" fill="#F54D05"/>
<path d="M73.7859 58.9014C73.7508 58.9716 73.7508 59.0419 73.7684 59.1121C73.821 59.0594 73.821 58.9716 73.7859 58.9014Z" fill="#F54D05"/>
<path d="M73.7683 59.1121C73.7508 59.0419 73.7683 58.9716 73.7859 58.9014C73.6982 58.9716 73.6807 59.0419 73.7683 59.1121Z" fill="#F54D05"/>
<path d="M35.3323 60.2015C39.3828 62.1508 44.1522 60.8161 46.572 57.0228C46.8701 56.5487 46.1161 56.1096 45.818 56.5838C43.6788 59.9556 39.3828 61.1849 35.7706 59.4463C35.2621 59.2005 34.8238 59.9556 35.3323 60.2015Z" fill="#0F477D"/>
<path d="M46.6772 56.7421C47.0279 55.3196 46.4493 53.8269 45.2569 53.0015C43.9594 52.1058 42.2059 52.299 40.9609 53.1771C38.6113 54.8805 38.6288 60.149 42.1182 60.4124C42.6793 60.4476 42.6793 59.5695 42.1182 59.5344C40.8207 59.4466 40.2069 57.9187 40.1543 56.7948C40.1017 55.6181 40.5927 54.4415 41.5922 53.7917C43.5736 52.5097 46.4317 54.0025 45.818 56.4962C45.6953 57.0582 46.537 57.2865 46.6772 56.7421Z" fill="#0F477D"/>
<path d="M42.8371 56.3378C43.1177 57.0754 43.4333 57.7779 43.7664 58.4979C44.0119 59.0072 44.7659 58.5682 44.5204 58.0589C44.2223 57.4267 43.9418 56.7769 43.6788 56.1095C43.4859 55.5827 42.6442 55.811 42.8371 56.3378Z" fill="#0F477D"/>
<path d="M61.2135 37.7398C61.0557 37.1076 60.8979 36.4929 60.74 35.8607C60.0913 33.1211 58.969 30.803 56.9526 28.8361C54.0243 25.9911 50.5173 24.4457 46.537 23.7608C41.2065 22.8476 35.911 22.8301 30.7208 24.3228C26.1617 25.6224 22.2866 28.1688 18.6745 31.2596C16.6054 33.0333 15.1325 35.0705 14.1681 37.3535C9.29343 41.2697 6.33008 46.4152 6.33008 52.0525C6.33008 64.2929 20.2701 74.2151 37.454 74.2151C54.638 74.2151 68.578 64.2929 68.578 52.0525C68.5956 46.6084 65.8251 41.6034 61.2135 37.7398Z" fill="white"/>
<path d="M23.5492 13.0309C20.7086 12.1177 17.6225 13.0484 14.9046 14.2777C13.5544 14.8924 12.2394 15.5773 10.9769 16.3676C9.92478 17.0349 8.34666 17.913 7.64528 18.9667C6.17237 21.1619 4.29616 23.0936 2.98107 25.4644C2.27968 26.7113 1.66597 28.0284 1.29774 29.4158C0.91198 30.8031 0.789237 32.2256 0.719099 33.6657C0.491149 38.3722 1.24514 42.8855 1.75364 47.5217C2.27968 52.2809 3.20902 57.0049 4.55918 61.5885C4.87481 62.6422 5.20796 63.6959 5.55866 64.732C6.34772 67.0677 7.27705 69.3858 8.62722 71.4756C9.29353 72.5118 10.0651 73.4777 10.9593 74.3206C11.3626 74.707 11.8887 75.0055 12.2569 75.4094C12.6426 75.8133 12.8881 76.2524 13.344 76.6036C15.2027 78.0437 17.4296 78.869 19.639 79.6593C20.7436 80.0632 21.8659 80.4496 23.0232 80.6603C25.9514 81.2223 28.9849 80.6779 31.8606 79.9403C33.4212 79.5539 34.9818 79.0973 36.4371 78.3773C37.8048 77.6924 39.3128 77.8505 40.8383 77.5871C44.0647 77.0426 47.2209 76.2875 50.3947 75.4972C54.5855 74.4611 58.6535 72.3713 62.4059 70.2288C63.8788 69.3858 65.2991 68.4726 66.6493 67.4365C67.754 66.5935 68.7184 65.6101 69.5601 64.4686C70.7875 62.8002 71.6642 60.9563 72.313 59.0245C72.9092 57.2859 73.1547 55.4595 73.1371 53.598C73.1021 51.1921 72.9267 48.874 72.5936 46.468C72.3481 44.6943 72.1903 42.9206 71.8571 41.1644C71.4187 38.7761 70.9278 36.4053 70.4193 34.0345C70.1036 32.5944 69.5951 31.2597 69.1918 29.8548C68.8411 28.5904 68.3151 27.3611 67.8066 26.1318C66.6318 23.357 65.1238 21.0214 63.2125 18.6857C59.6705 14.3831 55.5148 11.8367 50.0791 10.7654C47.2911 10.221 44.468 9.88735 41.6274 9.79954C35.9988 9.60637 30.3351 10.3439 24.9695 12.065C22.6549 12.8026 20.2527 13.1538 17.9732 14.067C14.4838 15.4719 10.9067 16.4202 7.99597 18.9667C7.85569 19.0896 7.71542 19.2301 7.57514 19.353L23.5492 13.0309ZM10.3631 52.0702C10.1001 50.2613 9.90725 48.4525 9.80204 46.6436C9.7845 46.2748 9.6793 45.8007 9.80204 45.4495C9.90725 45.1333 10.0826 44.8699 10.1177 44.5011C10.2229 43.7811 10.1177 43.0435 10.1527 42.3059C10.1878 41.7791 10.293 41.2522 10.3982 40.7254C10.8366 38.5829 11.2749 36.4404 12.0465 34.4032C12.4848 33.2442 13.0284 32.1203 13.7123 31.0841C13.9928 30.6451 14.326 30.2412 14.6591 29.8548C14.9222 29.5387 15.2202 29.0119 15.5534 28.7836C18.4291 26.6586 21.3398 24.6039 24.2856 22.6195C26.3197 21.2497 28.4589 20.354 30.8085 19.634C31.9307 19.3003 33.1406 19.1598 34.3155 18.9842C35.7708 18.7735 37.2262 18.5979 38.6991 18.5627C41.7326 18.4925 44.5031 19.072 47.484 19.6691C49.2725 20.0204 51.0084 20.7579 52.6041 21.6009C54.7784 22.7424 56.5844 23.9366 58.5308 25.482C60.4596 27.0274 61.8799 29.1875 63.0547 31.33C63.7736 32.6647 64.3698 34.0871 64.9835 35.4745C65.6148 36.897 66.1233 38.2843 66.3688 39.8122C67.0526 43.9567 67.754 48.47 67.4208 52.6321C67.3156 54.0722 67.1929 55.9864 66.7195 57.3562C66.1934 58.9191 65.6674 60.4821 65.1939 62.0451C64.966 62.7651 64.3347 63.4851 63.8964 64.0822C63.3879 64.7496 62.8268 65.3994 62.213 65.9613C61.4941 66.6111 60.7051 67.1731 59.916 67.735C57.9521 69.1048 56.0409 69.8951 54.0244 71.142C53.2529 71.6161 52.5515 71.8971 51.6747 71.9849C50.5525 72.0903 49.5004 72.8981 48.4308 73.1967C46.502 73.7411 44.5206 74.1274 42.2762 74.4787C40.2948 75.0055 38.2257 75.1109 36.1917 75.146C34.7889 75.1636 33.3861 75.1284 32.0184 74.865C31.3872 74.7421 30.8261 74.3909 30.1948 74.2855C29.546 74.1626 28.8973 74.0572 28.2485 73.8991C26.7756 73.5479 25.2851 73.1264 23.8823 72.5469C22.953 72.1605 22.164 71.7215 21.3749 71.1244C20.5332 70.4922 19.3409 70.1234 18.394 69.6492C17.7102 69.298 17.3069 68.8239 16.8159 68.2268C15.8164 66.9975 14.9572 65.6452 14.2032 64.2403C12.2218 60.3768 10.9769 56.32 10.3631 52.0702Z" fill="#FF6D03"/>
<path d="M72.3303 33.5257C72.0147 31.9101 71.9445 30.2242 71.4887 28.6436C70.5944 25.5177 69.6826 22.7078 68.1395 19.8453C67.4908 18.6511 66.614 17.2286 65.7548 16.1749C63.9488 13.9446 61.3361 11.5738 58.4604 10.8011C57.7766 10.6079 57.0576 10.2216 56.5316 9.78255C54.6729 8.27225 54.0768 6.30536 55.5146 4.21554C56.0757 3.39015 56.8648 2.77549 57.6714 2.19596C58.0922 1.89742 58.5656 1.30033 58.1799 0.949094C57.9694 0.755917 57.6188 0.808602 57.3382 0.89641C52.937 2.09059 48.5534 3.49552 44.1697 4.65458C41.9603 5.23411 39.7334 5.8312 37.5241 6.41073C36.735 6.62147 35.946 6.84977 35.1744 7.11319C32.5618 7.95615 29.9666 8.81666 27.354 9.67718C23.8471 10.8362 20.4103 12.1709 17.1313 13.8568C16.4474 14.2081 15.9039 14.4364 15.3428 14.8227C15.1323 14.9632 14.9219 15.1388 14.694 15.332C14.957 15.0861 15.8337 14.9808 16.202 14.8403C16.7455 14.6295 17.2891 14.4012 17.8327 14.1905C20.1122 13.2773 22.5144 12.9261 24.829 12.1885C30.1946 10.4674 35.8583 9.72986 41.4869 9.92304C44.3275 10.0284 47.1506 10.3445 49.9386 10.8889C55.3743 11.9426 59.5125 14.5066 63.072 18.8092C65.0008 21.1449 66.5088 23.4805 67.6661 26.2553C68.1746 27.4846 68.7006 28.6963 69.0513 29.9783C69.4546 31.4008 69.9631 32.7355 70.2788 34.158C70.7873 36.5288 71.2782 38.8996 71.7166 41.2879C72.0322 43.0441 72.2076 44.8178 72.4531 46.5915C72.7862 48.9799 72.9616 51.3156 72.9966 53.7215C73.0142 55.583 72.7687 57.4094 72.1725 59.148C71.5062 61.0798 70.647 62.9238 69.4196 64.5921C68.5779 65.7336 67.631 66.7171 66.5088 67.56C61.4588 71.3884 55.0236 74.0753 48.904 75.5856C43.6612 76.8852 38.2605 77.5701 32.8599 77.5174C31.6324 77.4998 30.4225 77.5701 29.1951 77.3945C23.7594 76.6042 17.4118 76.3583 13.1334 72.5826C12.0638 71.6343 11.0468 70.5982 10.135 69.4918C9.03029 67.999 7.92561 66.5063 6.89107 64.9609C6.89107 64.9609 6.89107 64.9433 6.87354 64.9433C7.38204 66.5239 8.18863 68.0166 8.76728 69.5796C9.71415 72.0909 11.415 74.0227 13.3789 75.7964C13.7296 76.3232 14.2731 76.6218 14.7992 76.9554C16.9384 78.2901 19.2355 79.2209 21.6903 79.818C23.9172 80.3624 26.1792 80.7136 28.4937 80.6434C29.9316 80.6082 31.3519 80.5029 32.7722 80.3799C34.1224 80.257 35.4725 80.2043 36.8052 80.0287C38.4709 79.8004 40.1192 79.5019 41.7675 79.2033C42.7669 79.0277 43.7839 78.8169 44.7659 78.5535C46.081 78.2023 47.3961 77.9213 48.7287 77.693C52.3584 77.0608 55.3217 76.7096 58.9339 75.8315C63.4753 74.7251 67.596 71.2128 70.4892 67.3668C71.7867 65.6458 72.5933 63.7843 73.2421 61.7998C73.2246 61.8174 73.2246 61.8174 73.207 61.8349C73.2246 61.7647 73.2596 61.6945 73.2772 61.6418C73.5753 60.8339 74.0136 60.2544 74.2065 59.4114C74.3819 58.709 74.2942 58.1119 74.3643 57.427C74.452 56.5489 74.6624 55.6708 74.7326 54.7752C74.9254 52.2112 74.6975 49.6297 74.4345 47.0833C74.189 44.7651 73.9084 42.4294 73.4876 40.1289C73.0317 37.8986 72.7511 35.7034 72.3303 33.5257ZM71.3133 64.6448C71.8218 63.9599 72.3128 63.2399 72.7511 62.5023C72.3128 63.2399 71.8393 63.9423 71.3133 64.6448Z" fill="#F54D05"/>
<path d="M73.6632 59.8855C73.7158 59.8153 73.7158 59.745 73.6807 59.6572C73.6456 59.745 73.6281 59.8153 73.6632 59.8855Z" fill="#F54D05"/>
<path d="M73.6106 59.7275C73.6106 59.7802 73.6457 59.8328 73.6632 59.8855C73.6281 59.8153 73.6281 59.7275 73.6807 59.6572C73.6632 59.6924 73.6106 59.7099 73.6106 59.7275Z" fill="#F54D05"/>
<path d="M73.7859 58.9014C73.7508 58.9716 73.7508 59.0419 73.7684 59.1121C73.821 59.0594 73.821 58.9716 73.7859 58.9014Z" fill="#F54D05"/>
<path d="M73.7683 59.1121C73.7508 59.0419 73.7683 58.9716 73.7859 58.9014C73.6982 58.9716 73.6807 59.0419 73.7683 59.1121Z" fill="#F54D05"/>
<path d="M13.7824 54.0197C13.5194 52.7553 13.2388 51.5084 13.0284 50.244C12.5901 47.7327 12.292 45.1511 12.5374 42.5871C12.8005 39.8475 13.7473 37.1606 15.1852 34.7898C16.6406 32.3839 18.7622 30.417 21.0242 28.8013C23.2862 27.2032 25.9339 25.6578 28.5466 24.7622C30.5806 24.0597 32.7023 23.5329 34.7889 23.0587C38.664 22.1806 42.697 22.7953 46.5371 23.4802C48.3432 23.7963 50.1317 24.2705 51.8676 24.8676C53.1301 25.3066 54.3926 26.29 55.4447 27.0979C57.0228 28.3272 58.4607 29.7848 59.5478 31.4883C60.8804 33.6132 61.3889 35.9313 62.0026 38.3197C62.6514 40.9364 63.1073 43.5882 63.5983 46.2399C63.6684 46.6439 63.7386 47.0478 63.5632 47.4517C64.5101 47.1532 65.3518 46.5561 66.3688 46.4682L67.1578 46.2048C67.0351 45.1863 67.228 43.3599 67 42.3588C66.5441 40.4095 66.1058 39.3207 65.5096 37.3889C64.6679 34.6318 62.7391 32.1205 61.1435 29.697C60.3544 28.4852 59.4075 27.4315 58.3204 26.4657C56.5844 24.9378 54.6206 23.7436 52.6392 22.6021C50.307 21.285 47.7996 20.3718 45.1168 20.0733C43.7316 19.9152 42.3463 19.7923 40.9611 19.722C39.1901 19.6342 37.4542 19.6342 35.7007 19.9503C35.0168 20.0733 34.3155 20.1962 33.6316 20.2137C32.0886 20.284 30.6683 20.7933 29.2304 21.285C27.1613 21.9699 25.215 22.9182 23.2862 23.9192C21.4801 24.85 19.8494 25.9915 18.4115 27.4315C16.7808 29.0648 15.343 30.856 14.0805 32.7703C13.081 34.2805 12.1692 35.826 11.6958 37.5997C11.2048 39.4261 10.3807 41.4808 10.3456 43.3774C10.3105 45.959 10.1878 48.5054 10.5385 51.0694C10.7664 52.7728 10.8015 54.4061 11.3626 56.0393C11.9588 56.0568 13.5545 55.9866 14.1331 56.0042C14.0104 55.3193 13.9227 54.6695 13.7824 54.0197Z" fill="#FDE1D2"/>
<path d="M14.6064 55.9863C14.4837 55.9687 14.3434 55.9688 14.2031 55.9688C14.3259 55.9863 14.4661 55.9863 14.6064 55.9863Z" fill="#FDE1D2"/>
<path d="M63.5456 47.4336C63.528 47.4336 63.528 47.4512 63.5105 47.4512C63.528 47.4863 63.5631 47.5039 63.5982 47.539C64.6327 47.5039 65.5445 47.0824 66.3511 46.4502C65.3166 46.538 64.4924 47.1351 63.5456 47.4336Z" fill="#F8C475"/>
<path d="M14.6414 56.039C14.6414 56.0214 14.6414 56.0038 14.6414 55.9687C14.6414 55.9687 14.6414 55.9687 14.6238 55.9687L14.6063 55.9863C14.466 55.9863 14.3257 55.9863 14.203 55.9687C14.1855 55.9687 14.1679 55.9687 14.1504 55.9687C13.5542 55.9512 12.9756 55.9336 12.3794 55.9336C13.0983 56.5131 13.8698 56.4604 14.6414 56.039Z" fill="#F8C475"/>
<path d="M53.6209 67.7354C53.4105 68.1393 53.0774 68.4027 52.6565 68.5607C51.2012 69.07 49.7808 69.7198 48.3079 70.194C47.8871 70.3345 47.4838 70.4574 47.063 70.5803C46.3616 70.7735 45.6602 70.9667 44.9588 71.1423C43.4508 71.5111 41.9429 71.8096 40.3998 71.9852C39.6809 72.073 38.9795 72.1082 38.2781 72.196C36.8754 72.3189 35.5077 72.5823 34.0874 72.635C33.4912 72.6526 32.9125 72.7228 32.2988 72.6877C32.2111 72.6877 32.1059 72.7053 32.0007 72.6877C32.0007 72.7053 32.0007 72.7053 32.0183 72.7228C32.1585 73.2145 32.3514 73.7765 32.2813 74.3034C32.2638 74.4438 32.2287 74.5317 32.1761 74.5668C32.1761 74.5668 32.1761 74.5668 32.1761 74.5843C33.8243 74.76 35.4726 74.6897 37.1033 74.5668C39.6458 74.3736 42.1884 74.3034 44.6607 73.7063C45.818 73.4253 46.9578 73.1092 48.1151 72.8457C50.2367 72.354 52.2883 71.6691 54.2697 70.7032C53.8138 69.7374 53.7963 68.7188 53.6209 67.7354Z" fill="#FCE1D3"/>
<path d="M53.8139 67.2256C53.7613 67.4188 53.6912 67.5944 53.6035 67.7349C53.7438 68.5252 53.7438 69.3681 54.1646 70.0881C54.2172 69.8071 54.2523 69.5262 54.1997 69.2452C54.0594 68.5778 53.9542 67.9105 53.8139 67.2256Z" fill="#FCE1D3"/>
<path d="M34.701 53.3874C35.9986 51.7015 36.472 49.6117 36.2616 47.3814C36.2266 47.0126 35.9635 45.9062 35.8583 45.6252C35.7531 45.2389 35.5252 44.8701 35.3148 44.5013C33.6139 41.6036 31.1065 40.1109 27.7573 40.0582C24.4608 40.0231 21.8482 41.4807 20.0772 44.1676C17.6925 47.7853 18.6393 52.5972 22.0235 55.1787C24.3556 56.97 27.0033 57.4617 29.8089 56.7241C31.5273 56.2675 32.9125 55.407 34.1224 54.0899C34.2978 53.9318 34.5432 53.5806 34.701 53.3874ZM29.1601 52.0352C27.845 52.2635 26.4773 50.8235 26.1266 48.8039C25.7584 46.7843 26.5299 44.9403 27.8625 44.712C29.1776 44.4837 30.5453 45.9238 30.896 47.9434C31.2467 49.9805 30.4752 51.8069 29.1601 52.0352Z" fill="white"/>
<path d="M13.2563 47.9256C13.0108 46.1519 12.6426 44.3606 12.853 42.5518C13.379 38.0736 15.15 34.2803 18.6745 31.2597C22.2866 28.1864 26.1443 25.6224 30.7033 24.3229C35.9111 22.8477 41.2065 22.8653 46.5195 23.7609C50.5174 24.4458 54.0068 25.9737 56.9351 28.8362C58.9516 30.7855 60.0738 33.1212 60.7226 35.8608C61.5818 39.4785 62.7215 43.0435 63.2826 46.7314C63.3177 46.9597 63.3177 47.188 63.458 47.3812C63.4755 47.3987 63.493 47.3987 63.5281 47.4163C63.7034 47.0124 63.6508 46.626 63.5632 46.2046C63.0547 43.5528 62.6163 40.901 61.9675 38.2843C61.3713 35.8959 60.8628 33.5954 59.5127 31.4529C58.4431 29.7494 57.0052 28.2918 55.4096 27.0625C54.3575 26.2547 53.095 25.2712 51.8325 24.8322C50.0966 24.2175 48.308 23.7609 46.502 23.4448C42.6444 22.7599 38.6289 22.1628 34.7538 23.0233C32.6671 23.4975 30.5455 24.0243 28.5114 24.7268C25.8988 25.6224 23.251 27.1679 20.9891 28.766C18.7096 30.3816 16.5879 32.3485 15.15 34.7544C13.7122 37.1428 12.7653 39.8122 12.5023 42.5518C12.2568 45.0982 12.5549 47.6797 12.9933 50.2086C13.2212 51.473 13.4843 52.7374 13.7473 53.9843C13.8876 54.6341 13.9752 55.3014 14.098 55.9512C14.1155 55.9512 14.133 55.9512 14.1681 55.9512C14.3084 55.9336 14.4487 55.9336 14.5889 55.9512C14.5889 55.9512 14.5889 55.9512 14.6065 55.9336C14.2908 53.2643 13.6421 50.6125 13.2563 47.9256Z" fill="white"/>
<path d="M62.5111 47.557C60.4946 48.6809 58.6009 49.9804 57.2507 51.8771C53.9542 56.5309 52.9547 61.7291 53.5334 67.3137C53.621 67.261 53.7263 67.2259 53.8315 67.2083C53.6386 65.8209 53.7087 64.4336 53.7263 63.0462C53.7613 61.6413 54.112 60.3066 54.4101 58.9544C54.7783 57.2158 55.392 55.5826 56.2337 54.0196C56.7597 53.0537 57.3559 52.1054 58.0924 51.2976C59.6179 49.6292 61.4415 48.3297 63.5106 47.434C63.493 47.4165 63.493 47.3989 63.4755 47.3813C63.1248 47.2233 62.8092 47.3989 62.5111 47.557Z" fill="white"/>
<path d="M63.4753 47.3984C63.493 47.4161 63.493 47.4337 63.5106 47.4514C63.5283 47.4514 63.5283 47.4337 63.5459 47.4337C63.5283 47.4161 63.493 47.3984 63.4753 47.3984Z" fill="white"/>
<path d="M31.5099 70.4751C30.6507 66.9277 28.8095 63.9071 26.4774 61.1851C23.707 57.9537 20.165 56.0747 15.869 55.7761C15.4482 55.741 14.9923 55.6181 14.624 55.9693C14.624 55.9693 14.624 55.9693 14.624 55.9868C14.9747 56.0044 15.3254 56.0571 15.6936 56.0922C17.8679 56.2678 19.9896 56.742 21.8834 57.8308C23.9524 59.025 25.7585 60.5353 27.1613 62.5197C27.5646 63.0817 27.8977 63.6964 28.3186 64.2408C30.0194 66.4535 30.9312 69.2985 31.6501 71.9679C31.6852 72.0732 31.6852 72.3366 31.7729 72.4245C31.7729 72.4245 31.7729 72.4245 31.7904 72.4245C31.8255 72.3893 31.8606 72.3366 31.8956 72.3015C31.7554 71.7044 31.6677 71.0898 31.5099 70.4751Z" fill="white"/>
<path d="M53.5333 67.3837C53.5333 67.3662 53.5333 67.3486 53.5333 67.3311C53.13 67.5418 52.8319 67.9457 52.376 68.0862C49.5354 69.017 46.765 70.0882 43.8191 70.6678C40.47 71.3351 37.1034 71.5634 33.7192 71.7917C33.0879 71.8444 32.4216 71.8268 31.9307 72.301C31.9482 72.3537 31.9657 72.4064 31.9833 72.459C32.0885 72.4766 32.2112 72.459 32.2814 72.459C32.8951 72.459 33.4737 72.3888 34.0699 72.3537C35.4727 72.2659 36.8579 72.0024 38.2431 71.8619C38.962 71.7741 39.6459 71.7214 40.3648 71.6336C41.8903 71.4229 43.4158 71.1419 44.9238 70.7907C45.6252 70.6326 46.3266 70.457 47.028 70.2638C47.4488 70.1585 47.8521 70.0355 48.2729 69.9126C49.7458 69.4736 51.1837 68.9116 52.6391 68.4374C53.0774 68.2969 53.4106 68.0862 53.6385 67.735C53.5859 67.6296 53.5684 67.5067 53.5333 67.3837Z" fill="white"/>
<path d="M53.5332 67.3836C53.5683 67.5066 53.5858 67.6119 53.6209 67.7349C53.7086 67.5944 53.7787 67.4188 53.8313 67.2256C53.7261 67.2431 53.6209 67.2783 53.5332 67.331C53.5332 67.3485 53.5332 67.3661 53.5332 67.3836Z" fill="white"/>
<path d="M35.2794 54.2656C35.2623 54.2827 35.2623 54.2827 35.2794 54.2656C35.2794 54.2827 35.2794 54.2827 35.2794 54.2656Z" fill="#FDE4D6"/>
<path d="M55.9355 38.1792C53.3053 35.8084 49.2899 35.2113 45.8706 37.0202C44.2749 37.8631 42.9598 39.0397 42.1357 40.6378C39.9439 44.8702 41.7149 49.5767 45.2569 51.684C47.7994 53.1943 50.4997 53.4051 53.2702 52.2987C57.3032 50.683 59.2846 46.4331 58.5832 43.0438C58.25 41.0769 57.3733 39.4788 55.9355 38.1792Z" fill="white"/>
<path d="M49.4018 48.4144C50.7172 48.1783 51.49 46.3462 51.1278 44.3223C50.7657 42.2984 49.4057 40.8491 48.0903 41.0852C46.7749 41.3213 46.0021 43.1534 46.3642 45.1773C46.7264 47.2012 48.0863 48.6505 49.4018 48.4144Z" fill="#0F477D"/>
<path d="M35.2623 53.8619C38.6114 54.0726 42.0131 53.0189 44.6609 50.9818C45.2395 50.5252 45.8357 49.9808 45.9584 49.2432C46.0812 48.5583 45.748 47.8558 45.2395 47.3992C44.731 46.9251 44.0647 46.6792 43.3984 46.5036C40.9611 45.9065 37.3314 46.3807 35.2974 48.0139C33.1932 49.6998 31.0715 53.5985 35.2623 53.8619Z" fill="#FDE1D2"/>
<path d="M11.6958 55.8983C11.6958 55.8983 28.3186 53.5099 32.4393 74.2325C32.4217 74.2325 16.6055 76.7789 11.6958 55.8983Z" fill="#F8C475"/>
<path d="M67.3155 45.9062C67.3155 45.9062 50.9031 49.4537 54.2347 70.3168C54.2347 70.3168 69.9457 67.2084 67.3155 45.9062Z" fill="#F8C475"/>
<path d="M35.0693 75.2335C33.7717 75.2335 32.5092 75.1809 31.2993 75.0579C26.8631 74.6189 23.1633 73.4247 20.3226 71.5105C15.2201 68.0684 11.7657 61.4477 10.0474 51.8416C8.52184 43.3067 10.2402 35.404 14.8869 29.556C19.0777 24.2875 26.074 20.3362 33.5788 18.9839C37.8923 18.2112 42.3286 18.2639 46.4142 19.142C50.5874 20.0376 54.4275 21.8114 57.4785 24.27C62.3356 28.1686 65.7373 34.3152 67.0349 41.5856C69.2443 53.9665 66.2809 60.675 64.317 63.5727C59.7756 70.2812 50.4997 73.1788 43.5034 74.4257C40.6628 74.9701 37.7871 75.2335 35.0693 75.2335ZM39.6107 19.5459C37.6819 19.5459 35.7356 19.7215 33.7892 20.0728C26.5299 21.3723 19.7966 25.1832 15.7636 30.2585C11.2923 35.8255 9.66159 43.4296 11.117 51.6484C12.7828 60.956 16.0793 67.3309 20.9364 70.5973C22.76 71.8266 27.2488 74.1623 35.0517 74.1623C37.4715 74.1623 40.2245 73.934 43.3105 73.3896C50.0789 72.1778 59.0742 69.3856 63.4052 62.9932C67.7714 56.5481 66.8771 46.9595 65.9653 41.8139C64.7028 34.8069 61.4589 28.8887 56.7947 25.148C52.2707 21.5128 46.1161 19.5459 39.6107 19.5459Z" fill="#0F477D"/>
<path d="M24.9517 81.3453C20.9188 81.3453 17.3066 80.2213 14.203 77.9559C9.99469 74.9353 6.9086 70.0356 4.99732 63.3974L4.52389 61.8695C3.15619 57.4265 2.01643 52.8605 1.15724 48.2945L0.981891 47.3813C-0.789107 37.4414 0.227902 32.1203 1.1397 28.9943C3.19126 22.04 8.11849 16.7715 15.7811 13.3294L19.6037 11.5382C28.9496 7.67462 39.2425 4.47842 51.0783 1.80907L58.1448 0.158283C58.6884 0.000229277 59.3898 -0.10514 59.758 0.316337C59.8807 0.474391 60.0561 0.80806 59.793 1.33491L59.7404 1.45784L58.1799 2.63446C56.5491 3.91645 55.6549 5.8131 55.9004 7.46388C56.0932 8.74588 56.9875 9.74688 58.3903 10.2562C65.7724 12.9782 70.2437 19.7921 72.8914 32.3486V32.3661L74.4695 42.025L75.2937 50.3316C75.5391 52.8253 75.5041 55.2488 75.1885 57.5494C74.3468 63.5203 71.8043 68.2971 67.6486 71.7918C64.1416 74.7246 59.495 76.7266 53.8488 77.7452H53.8313L29.2302 80.9589C27.7573 81.2223 26.3194 81.3453 24.9517 81.3453ZM20.0245 12.5216L16.237 14.3129C-0.245533 21.7063 -4.80413e-05 35.7555 2.03397 47.1881L2.20932 48.0837C3.06851 52.6146 4.19073 57.1455 5.55843 61.5359L6.03187 63.0637C9.71414 75.9012 17.8853 81.8546 29.0373 79.8525H29.0548L53.6559 76.6563C59.1092 75.6729 63.5805 73.7587 66.9472 70.9488C70.8925 67.6473 73.2947 63.0813 74.1013 57.3913C74.4169 55.1786 74.452 52.8253 74.2065 50.4194L73.3824 42.1304L71.8043 32.5418C69.2267 20.3892 64.9833 13.8212 57.987 11.2396C56.1985 10.5898 55.0762 9.29028 54.8132 7.60438C54.4976 5.54968 55.5146 3.3018 57.496 1.75638L58.1623 1.26466L51.3063 2.86276C39.5406 5.51455 29.3003 8.69319 20.0245 12.5216Z" fill="#0F477D"/>
<path d="M39.6635 55.811C40.1544 54.1427 41.8728 52.966 43.6088 52.9836C44.2926 52.9836 45.0291 53.1943 45.4674 53.7387C45.6252 53.9495 45.7305 54.1953 45.8357 54.4412C46.1513 55.3017 46.3266 56.2852 45.9759 57.1457C45.5551 58.2345 44.468 58.8843 43.4334 59.4111C43.0301 59.6219 42.0131 60.3419 41.5747 60.2365C41.2241 60.1487 40.5753 59.4462 40.3473 59.1477C39.6109 58.2345 39.3128 56.9349 39.6635 55.811Z" fill="#EF5C79"/>
<path d="M26.0389 48.224C27.8976 48.3645 29.7037 48.7333 31.4747 49.2953C31.4045 48.7684 31.3344 48.224 31.2642 47.6972C29.5809 48.6104 27.8625 49.4709 26.1091 50.2612C25.0745 50.7178 25.9688 52.2456 26.9858 51.7715C28.7393 50.9812 30.4577 50.1207 32.141 49.2075C32.8248 48.8211 32.6144 47.8201 31.9306 47.6094C30.0193 46.9947 28.0379 46.6084 26.0389 46.4679C24.9167 46.3976 24.9167 48.1538 26.0389 48.224Z" fill="#0F477D"/>
<path d="M35.3323 60.2015C39.3828 62.1508 44.1522 60.8161 46.572 57.0228C46.8701 56.5487 46.1161 56.1096 45.818 56.5838C43.6788 59.9556 39.3828 61.1849 35.7706 59.4463C35.2621 59.2005 34.8238 59.9556 35.3323 60.2015Z" fill="#0F477D"/>
<path d="M46.6772 56.7421C47.0279 55.3196 46.4493 53.8269 45.2569 53.0015C43.9594 52.1058 42.2059 52.299 40.9609 53.1771C38.6113 54.8805 38.6288 60.149 42.1182 60.4124C42.6793 60.4476 42.6793 59.5695 42.1182 59.5344C40.8207 59.4466 40.2069 57.9187 40.1543 56.7948C40.1017 55.6181 40.5927 54.4415 41.5922 53.7917C43.5736 52.5097 46.4317 54.0025 45.818 56.4962C45.6953 57.0582 46.537 57.2865 46.6772 56.7421Z" fill="#0F477D"/>
<path d="M42.8371 56.3378C43.1177 57.0754 43.4333 57.7779 43.7664 58.4979C44.0119 59.0072 44.7659 58.5682 44.5204 58.0589C44.2223 57.4267 43.9418 56.7769 43.6788 56.1095C43.4859 55.5827 42.6442 55.811 42.8371 56.3378Z" fill="#0F477D"/>
<path d="M80.4489 37.4416C82.8862 35.8259 85.3235 34.1927 87.7608 32.577C88.2342 32.2609 87.7959 31.5058 87.3224 31.8219C84.8851 33.4375 82.4478 35.0708 80.0105 36.6864C79.5371 37.0025 79.9754 37.7577 80.4489 37.4416Z" fill="#0F477D"/>
<path d="M93.4422 18.8086C93.4071 20.196 93.2844 21.5833 93.074 22.9531C91.8991 23.9541 90.7068 24.9727 89.532 25.9737C90.4964 26.0088 91.4608 26.044 92.4077 26.0966C92.4953 26.0966 92.6005 26.1318 92.6005 26.202C92.6005 26.202 92.6181 26.5357 92.6356 26.7464C92.4077 28.3621 92.2849 29.9777 92.2674 31.611C92.2674 31.7339 92.2674 31.8568 92.32 31.9446C92.3726 32.0324 92.4953 32.1203 92.6005 32.0676C92.6707 32.0324 92.7057 31.9798 92.7408 31.9271C93.863 30.1885 94.845 28.3796 95.7042 26.5006C96.651 27.0274 97.5979 27.5367 98.5448 28.0635C98.8955 28.2567 99.2637 28.4674 99.667 28.5377C99.1935 27.045 98.5623 25.6049 97.7732 24.2527C98.1765 22.637 98.5974 21.0389 99.0708 19.4408C99.1059 19.353 99.1234 19.2301 99.0357 19.1774C98.9656 19.1247 98.8779 19.1774 98.8078 19.2301C97.668 20.0028 96.5283 20.7755 95.3885 21.5482C94.8274 20.7228 94.2663 19.915 93.6877 19.0896C93.7052 19.2301 93.8104 19.353 93.9332 19.4232" fill="#F8C475"/>
<path d="M93.109 18.8088C93.0739 20.0908 93.2492 22.2158 92.3199 23.1465C91.3906 24.0773 90.2859 24.8851 89.2864 25.7281C89.0585 25.9213 89.2513 26.2725 89.5144 26.2901C90.3034 26.3252 91.3204 26.1847 92.0744 26.3954C92.2498 26.2022 92.3199 26.2374 92.2673 26.5008C92.2673 26.6764 92.2673 26.852 92.2498 27.0276C92.2147 27.3613 92.1621 27.695 92.127 28.0462C92.0394 28.9067 91.9692 29.7672 91.9341 30.6453C91.9166 31.0668 91.7588 31.7341 92.0043 32.1205C92.6355 33.139 93.4597 31.4005 93.6876 30.9965C94.5293 29.5916 95.2833 28.1516 95.9671 26.6764C95.8093 26.7115 95.669 26.7467 95.5112 26.7993C96.7912 27.5018 98.1414 28.4852 99.5617 28.854C99.7897 28.9067 100.053 28.696 99.965 28.4501C99.5266 27.1154 98.8779 25.9213 98.3518 24.6393C98.0362 23.8841 98.3694 23.1992 98.5798 22.409C98.7727 21.7065 98.9655 21.0216 99.1584 20.3367C99.2636 19.9679 99.7721 18.6859 98.8428 18.8615C98.2992 18.9669 97.668 19.6167 97.2296 19.9152C96.5633 20.3718 95.897 20.8109 95.2482 21.2675C95.406 21.3026 95.5463 21.3377 95.7041 21.3904C95.143 20.565 94.5819 19.7572 94.0032 18.9318C93.7577 18.5805 93.2668 18.8791 93.4421 19.2654C93.5473 19.4937 93.5473 19.4937 93.7402 19.6694C94.0558 19.9328 94.5293 19.4762 94.2136 19.1952C94.1435 19.1074 94.0909 19.0196 94.0208 18.9318C93.8279 19.0371 93.635 19.1601 93.4597 19.2654C94.0208 20.0908 94.5819 20.8987 95.1605 21.7241C95.2482 21.8645 95.4586 21.9524 95.6164 21.847C96.1775 21.4606 96.7562 21.0743 97.3173 20.6879C97.7206 20.4069 98.4395 20.1084 98.7376 19.722C99.0883 19.6167 99.1233 19.4937 98.8077 19.3708C98.7727 19.4762 98.7376 19.5815 98.72 19.6869C98.5798 19.9328 98.5272 20.3718 98.4395 20.6528C98.2817 21.2323 98.1063 21.8294 97.9485 22.409C97.8082 22.9182 97.4751 23.6558 97.4926 24.1827C97.5102 24.5339 97.7381 24.8149 97.9135 25.1134C98.5096 26.2374 99.0006 27.414 99.3864 28.6433C99.5266 28.5028 99.6494 28.3799 99.7897 28.2394C98.4395 27.8882 97.1244 26.9223 95.897 26.2549C95.7567 26.1671 95.5287 26.2022 95.4411 26.3779C94.8098 27.7652 94.1084 29.1175 93.3369 30.417C93.1791 30.698 92.9862 30.979 92.8284 31.26C92.5829 31.6814 92.6355 31.7166 92.618 31.3302C92.5654 30.5926 92.6706 29.8024 92.7407 29.0648C92.7933 28.3272 92.9687 27.5896 92.9862 26.852C93.0038 26.6062 93.0388 26.2374 92.8635 26.0266C92.618 25.7281 92.1621 25.8159 91.7939 25.7983C91.0399 25.7632 90.3034 25.7456 89.5494 25.7105C89.6196 25.9037 89.7072 26.0793 89.7774 26.2725C90.3736 25.7632 90.9522 25.2715 91.5484 24.7622C92.0744 24.3056 92.9687 23.7963 93.3545 23.2168C93.6175 22.8304 93.5824 21.9348 93.635 21.4606C93.7227 20.6001 93.7753 19.7396 93.8104 18.8615C93.7928 18.3874 93.1265 18.3874 93.109 18.8088Z" fill="#0F477D"/>
<path d="M34.4382 55.1083C34.8941 54.7043 35.2623 54.2126 35.5954 53.7033C35.613 53.6858 35.613 53.6682 35.6305 53.6506C36.8053 51.8945 37.3664 49.9803 37.1911 47.8553C37.1911 47.7675 37.1736 47.6973 37.1736 47.6095C37.1736 47.188 37.2788 47.0475 37.7171 46.9246C37.91 46.8719 39.3829 46.5558 39.9791 46.5382C40.3123 46.5207 40.4525 46.8368 40.4525 46.8543C40.6279 47.4339 40.698 47.6095 40.926 48.1539C41.3994 49.2954 42.0833 50.2964 42.9775 51.1745C43.2581 51.4555 44.2049 52.2106 44.3803 52.3335C48.0801 54.8097 52.9723 54.3531 56.2688 51.5433C59.9335 48.4173 60.705 43.2191 58.145 39.3029C55.8129 35.7379 51.324 34.0168 46.8877 35.5271C43.0477 36.8442 40.926 39.6892 40.3123 43.6932C40.1544 44.6591 40.3824 44.9928 40.172 45.3792C39.9791 45.7304 39.155 45.7655 38.5062 45.9236C38.1555 46.0114 37.6645 46.0641 37.2963 46.1167C37.121 46.1343 36.9807 46.0465 36.9105 45.8884C36.8404 45.7479 36.8053 45.5899 36.7527 45.4318C35.122 40.5849 29.7739 38.0033 24.7941 39.5136C22.2516 40.2863 20.3228 41.8668 19.0778 44.2377C17.377 47.4514 17.4471 50.6301 19.3584 53.7033C21.8132 57.6722 27.0736 59.2001 31.6151 57.1103C32.6672 56.601 33.579 55.8985 34.4382 55.1083ZM42.1359 40.6375C42.96 39.0394 44.2751 37.8628 45.8707 37.0199C49.29 35.211 53.3054 35.8081 55.9356 38.1789C57.3735 39.4785 58.2502 41.059 58.5658 43.0435C59.2497 46.4328 57.2858 50.6827 53.2528 52.2984C50.4823 53.4048 47.782 53.194 45.2395 51.6838C41.6975 49.5764 39.944 44.8699 42.1359 40.6375ZM22.0236 55.1961C18.6395 52.6145 17.6926 47.8027 20.0773 44.185C21.8483 41.4981 24.461 40.0404 27.7575 40.0756C31.1066 40.1107 33.6316 41.621 35.3149 44.5186C35.5253 44.8699 35.7533 45.2562 35.8585 45.6426C35.9461 45.9411 36.2267 47.0475 36.2618 47.3987C36.4722 49.6291 35.9812 51.7013 34.7012 53.4048C34.5434 53.598 34.2979 53.9492 34.1401 54.1248C32.9302 55.4419 31.5449 56.3024 29.8265 56.759C27.0035 57.4791 24.3557 56.9873 22.0236 55.1961Z" fill="#FF6D03"/>
</g>
<defs>
<clipPath id="clip0_27131_70751">
<rect width="100" height="122" fill="white"/>
</clipPath>
</defs>
</svg>
