<svg width="126" height="44" viewBox="0 0 126 44" fill="none" xmlns="http://www.w3.org/2000/svg">
<g clip-path="url(#clip0_27131_70651)">
<path d="M50.8962 30.4355H54.084V31.1865H51.6779V32.5198H53.6855V33.2708H51.6779V34.7421H54.084V35.493H50.8962V30.4355Z" fill="#1A202C"/>
<path d="M57.1332 31.6318C57.4703 31.6318 57.7462 31.7085 57.9301 31.8464C58.114 31.9843 58.2519 32.1682 58.3286 32.4134C58.4052 32.6433 58.4358 32.9192 58.4358 33.1951V35.5092H57.6849V33.241C57.6849 33.0571 57.6542 32.8885 57.6082 32.7506C57.5623 32.6127 57.4703 32.4901 57.363 32.4134C57.2404 32.3368 57.0872 32.2908 56.8726 32.3062C56.6734 32.3062 56.5048 32.3521 56.3515 32.4288C56.1983 32.5054 56.091 32.6127 55.9991 32.7506C55.9071 32.8885 55.8764 33.0418 55.8764 33.1951V35.4939H55.1255V31.6931H55.8764V32.2908C55.9991 32.1069 56.1676 31.9537 56.3822 31.8157C56.6274 31.6931 56.8726 31.6318 57.1332 31.6318Z" fill="#1A202C"/>
<path d="M59.9847 36.1367C60.1226 36.244 60.3065 36.3359 60.5211 36.3972C60.7356 36.4585 60.9502 36.5045 61.1647 36.5045C61.5479 36.5045 61.8544 36.4125 62.0689 36.2133C62.2835 36.0294 62.3755 35.7382 62.3755 35.3551V34.8953C62.3142 35.0179 62.2069 35.1252 62.0843 35.2171C61.9617 35.3244 61.8084 35.4011 61.6398 35.4777C61.4712 35.539 61.3027 35.5696 61.1188 35.5696C60.7663 35.5696 60.4444 35.4777 60.1686 35.3091C59.8774 35.1405 59.6628 34.9106 59.4942 34.6041C59.3257 34.2976 59.249 33.9604 59.249 33.5773C59.249 33.1942 59.3257 32.857 59.4942 32.5505C59.6628 32.2593 59.8774 32.0141 60.1686 31.8455C60.4444 31.6769 60.7663 31.585 61.1188 31.585C61.4099 31.585 61.6705 31.6463 61.885 31.7842C62.1149 31.9068 62.2835 32.0447 62.3908 32.198V31.6769H63.1417V35.2478C63.1417 35.7076 63.0498 36.0601 62.8659 36.3512C62.682 36.6271 62.4521 36.8263 62.1456 36.9643C61.8544 37.0869 61.5325 37.1635 61.1801 37.1635C60.9042 37.1635 60.6437 37.1175 60.3678 37.0409C60.1073 36.9489 59.8774 36.8417 59.7241 36.7191L59.9847 36.1367ZM61.1801 32.3053C60.9502 32.3053 60.7356 32.3666 60.567 32.4738C60.3831 32.5811 60.2452 32.7344 60.1379 32.9336C60.0306 33.1329 59.9847 33.3474 59.9847 33.5926C59.9847 33.8378 60.0306 34.0524 60.1379 34.2516C60.2452 34.4509 60.3831 34.6041 60.567 34.7114C60.7509 34.8187 60.9502 34.88 61.1801 34.88C61.4253 34.88 61.6245 34.8187 61.8084 34.7114C61.9923 34.6041 62.1302 34.4509 62.2375 34.2516C62.3448 34.0524 62.3908 33.8378 62.3908 33.5926C62.3908 33.3474 62.3448 33.1175 62.2375 32.9336C62.1302 32.7344 61.9923 32.5811 61.8084 32.4738C61.6398 32.3666 61.4253 32.3053 61.1801 32.3053Z" fill="#1A202C"/>
<path d="M64.1523 35.5088V30.1602H64.9032V35.5088H64.1523Z" fill="#1A202C"/>
<path d="M66.4672 30.8805C66.2986 30.8805 66.176 30.8345 66.084 30.7579C66.0074 30.6659 65.9614 30.5586 65.9614 30.4207C65.9614 30.2981 66.0074 30.1908 66.084 30.0989C66.1607 30.0069 66.2986 29.9609 66.4672 29.9609C66.6358 29.9609 66.7584 30.0069 66.8503 30.0989C66.927 30.1908 66.9729 30.2981 66.9729 30.436C66.9729 30.5586 66.927 30.6659 66.8503 30.7579C66.7584 30.8345 66.6358 30.8805 66.4672 30.8805ZM66.8503 35.5088H66.0994V31.7081H66.8503V35.5088Z" fill="#1A202C"/>
<path d="M70.1611 32.7043C70.0232 32.5664 69.8699 32.4591 69.7013 32.3672C69.5327 32.2752 69.3795 32.2292 69.2262 32.2292C69.119 32.2292 69.027 32.2446 68.9197 32.2599C68.8278 32.2905 68.7358 32.3212 68.6745 32.3978C68.6132 32.4591 68.5672 32.5511 68.5672 32.689C68.5672 32.8576 68.6439 32.9802 68.7971 33.0568C68.9504 33.1335 69.1343 33.1948 69.3642 33.2561C69.5634 33.302 69.7473 33.3787 69.9465 33.4553C70.1305 33.5319 70.2837 33.6545 70.4063 33.8078C70.5289 33.961 70.5902 34.1756 70.5902 34.4515C70.5902 34.6813 70.5289 34.8959 70.391 35.0645C70.2531 35.2331 70.0845 35.3557 69.8699 35.4476C69.6554 35.5396 69.4408 35.5856 69.2109 35.5856C68.935 35.5856 68.6592 35.5396 68.3986 35.4323C68.1381 35.3403 67.9082 35.1564 67.709 34.9266L68.2147 34.4974C68.3373 34.6507 68.4906 34.758 68.6592 34.8499C68.8278 34.9419 69.027 34.9725 69.2722 34.9725C69.3642 34.9725 69.4561 34.9572 69.5481 34.9266C69.64 34.8959 69.7167 34.8499 69.778 34.7733C69.8393 34.6967 69.8699 34.6047 69.8699 34.4821C69.8699 34.3595 69.8393 34.2829 69.7626 34.2062C69.686 34.1449 69.5941 34.0836 69.4868 34.053C69.3642 34.007 69.2416 33.9764 69.1036 33.9457C68.8891 33.8844 68.6898 33.8231 68.4906 33.7312C68.2914 33.6392 68.1228 33.5319 67.9849 33.3633C67.8469 33.2101 67.7856 32.9955 67.7856 32.7197C67.7856 32.4898 67.8469 32.3059 67.9695 32.1373C68.0921 31.9687 68.2607 31.8461 68.4753 31.7541C68.6898 31.6622 68.9044 31.6162 69.1343 31.6162C69.3642 31.6162 69.6094 31.6622 69.8699 31.7541C70.1305 31.8461 70.3603 31.9994 70.5289 32.2139L70.1611 32.7043Z" fill="#1A202C"/>
<path d="M73.4249 31.6311C73.7621 31.6311 74.0379 31.7077 74.2218 31.8457C74.4057 31.9836 74.5437 32.1675 74.6203 32.4127C74.6969 32.6426 74.7276 32.9185 74.7276 33.1943V35.5085H73.9766V33.2403C73.9766 33.0564 73.946 32.8878 73.9 32.7499C73.854 32.612 73.7621 32.4894 73.6548 32.4127C73.5322 32.3361 73.3789 32.2901 73.1644 32.3055C72.9651 32.3055 72.7966 32.3514 72.6433 32.4281C72.49 32.5047 72.3828 32.612 72.2908 32.7499C72.1988 32.8878 72.1682 33.0411 72.1682 33.1943V35.4932H71.4172V30.1445H72.1682V32.3055C72.2908 32.1215 72.4594 31.9683 72.6739 31.8304C72.9192 31.6924 73.1644 31.6311 73.4249 31.6311Z" fill="#1A202C"/>
<path d="M79.9534 32.7043C79.8155 32.5664 79.6622 32.4591 79.4936 32.3672C79.325 32.2752 79.1718 32.2292 79.0185 32.2292C78.9112 32.2292 78.8193 32.2446 78.712 32.2599C78.62 32.2905 78.5281 32.3212 78.4668 32.3978C78.4055 32.4591 78.3595 32.5511 78.3595 32.689C78.3595 32.8576 78.4361 32.9802 78.5894 33.0568C78.7426 33.1335 78.9265 33.1948 79.1564 33.2561C79.3557 33.302 79.5396 33.3787 79.7388 33.4553C79.9227 33.5319 80.076 33.6545 80.1986 33.8078C80.3212 33.961 80.3825 34.1756 80.3825 34.4515C80.3825 34.6813 80.3212 34.8959 80.1833 35.0645C80.0453 35.2331 79.8768 35.3557 79.6622 35.4476C79.4476 35.5396 79.2331 35.5856 79.0032 35.5856C78.7273 35.5856 78.4514 35.5396 78.1909 35.4323C77.9303 35.3403 77.7005 35.1564 77.5012 34.9266L78.007 34.4974C78.1296 34.6507 78.2828 34.758 78.4514 34.8499C78.62 34.9419 78.8193 34.9725 79.0645 34.9725C79.1564 34.9725 79.2484 34.9572 79.3403 34.9266C79.4323 34.8959 79.5089 34.8499 79.5702 34.7733C79.6315 34.6967 79.6622 34.6047 79.6622 34.4821C79.6622 34.3595 79.6315 34.2829 79.5549 34.2062C79.4783 34.1449 79.3863 34.0836 79.279 34.053C79.1564 34.007 79.0338 33.9764 78.8959 33.9457C78.6813 33.8844 78.4821 33.8231 78.2828 33.7312C78.0836 33.6392 77.915 33.5319 77.7771 33.3633C77.6392 33.2101 77.5779 32.9955 77.5779 32.7197C77.5779 32.4898 77.6392 32.3059 77.7618 32.1373C77.8844 31.9687 78.053 31.8461 78.2675 31.7541C78.4821 31.6622 78.6967 31.6162 78.9265 31.6162C79.1564 31.6162 79.4016 31.6622 79.6622 31.7541C79.9227 31.8461 80.1526 31.9994 80.3212 32.2139L79.9534 32.7043Z" fill="#1A202C"/>
<path d="M83.2185 31.6318C83.5557 31.6318 83.8622 31.7085 84.1227 31.877C84.3833 32.0456 84.5979 32.2755 84.7511 32.5667C84.9044 32.8579 84.981 33.1951 84.981 33.5935C84.981 33.9767 84.9044 34.3138 84.7511 34.605C84.5979 34.8962 84.3833 35.1414 84.1227 35.31C83.8622 35.4786 83.5557 35.5705 83.2338 35.5705C82.9579 35.5705 82.7127 35.5092 82.4982 35.4019C82.2836 35.2947 82.0997 35.1567 81.9771 35.0035V37.0878H81.2261V31.6931H81.9771V32.2449C82.0843 32.0916 82.2529 31.9384 82.4828 31.8157C82.7127 31.7085 82.9579 31.6318 83.2185 31.6318ZM83.1112 32.3215C82.8813 32.3215 82.6821 32.3828 82.5135 32.4901C82.3449 32.5974 82.207 32.7506 82.0997 32.9498C82.0077 33.1338 81.9464 33.3636 81.9464 33.6088C81.9464 33.8541 81.9924 34.0686 82.0997 34.2525C82.1916 34.4518 82.3296 34.605 82.5135 34.7123C82.6821 34.8196 82.8966 34.8809 83.1112 34.8809C83.3258 34.8809 83.5403 34.8196 83.7089 34.7123C83.8775 34.605 84.0155 34.4518 84.1227 34.2525C84.2147 34.0533 84.276 33.8387 84.276 33.6088C84.276 33.3636 84.23 33.1491 84.1227 32.9498C84.0308 32.7659 83.8928 32.6127 83.7089 32.4901C83.5403 32.3828 83.3411 32.3215 83.1112 32.3215Z" fill="#1A202C"/>
<path d="M89.0569 35.0032C88.8883 35.1564 88.689 35.279 88.4132 35.4016C88.1373 35.5243 87.8614 35.5702 87.5702 35.5702C87.1718 35.5702 86.8192 35.4936 86.528 35.325C86.2215 35.1564 85.9916 34.9266 85.823 34.6354C85.6545 34.3442 85.5625 34.007 85.5625 33.6392C85.5625 33.2101 85.6545 32.8576 85.823 32.5511C86.007 32.2446 86.2369 32.0147 86.528 31.8614C86.8192 31.6928 87.1411 31.6162 87.4936 31.6162C87.8155 31.6162 88.1066 31.6928 88.3672 31.8461C88.6277 31.9994 88.8423 32.2139 88.9956 32.4898C89.1488 32.7656 89.2255 33.0875 89.2255 33.4553V33.7771H86.3135C86.3595 34.1143 86.4974 34.3902 86.7426 34.5894C86.9878 34.7886 87.279 34.8959 87.6469 34.8959C87.9074 34.8959 88.122 34.8499 88.2906 34.7426C88.4591 34.6507 88.5971 34.5434 88.689 34.4515L89.0569 35.0032ZM87.5089 32.3059C87.2177 32.3059 86.9725 32.3672 86.7579 32.5051C86.5434 32.643 86.4054 32.8729 86.3441 33.1948H88.4745V33.1488C88.4592 32.9802 88.4132 32.8423 88.3059 32.7197C88.2139 32.5971 88.0913 32.4898 87.9534 32.4285C87.8155 32.3365 87.6622 32.3059 87.5089 32.3059Z" fill="#1A202C"/>
<path d="M93.5783 31.7085V35.5092H92.8273V34.9269C92.7047 35.0801 92.5361 35.2334 92.3062 35.3713C92.0763 35.5092 91.8158 35.5859 91.5246 35.5859C91.2027 35.5859 90.9115 35.4939 90.651 35.3253C90.3904 35.1567 90.1759 34.9269 90.0226 34.6203C89.8694 34.3138 89.7927 33.9767 89.7927 33.5935C89.7927 33.2104 89.8694 32.8732 90.0379 32.5667C90.1912 32.2755 90.4211 32.0456 90.697 31.877C90.9728 31.7085 91.2947 31.6318 91.6472 31.6318C91.9078 31.6318 92.1377 31.6931 92.3522 31.8004C92.5515 31.923 92.7201 32.0456 92.8273 32.1989V31.6931H93.5783V31.7085ZM91.6932 34.8809C91.9231 34.8809 92.1223 34.8196 92.3062 34.7123C92.4748 34.605 92.6128 34.4518 92.7047 34.2525C92.7967 34.0533 92.8427 33.8387 92.8427 33.5935C92.8427 33.3483 92.7967 33.1338 92.7047 32.9498C92.6128 32.7506 92.4748 32.5974 92.3062 32.4901C92.1377 32.3828 91.9231 32.3215 91.6932 32.3215C91.4786 32.3215 91.2794 32.3828 91.0955 32.4901C90.9269 32.5974 90.7889 32.7506 90.697 32.9498C90.605 33.1491 90.559 33.3636 90.559 33.6088C90.559 33.8541 90.605 34.0686 90.697 34.2679C90.7889 34.4671 90.9269 34.6203 91.0955 34.7276C91.2794 34.8349 91.4786 34.8809 91.6932 34.8809Z" fill="#1A202C"/>
<path d="M94.6204 35.5088V30.1602H95.3713V33.4092L97.0878 31.708H98.0993L96.3215 33.3785L98.1452 35.5088H97.1951L95.7851 33.869L95.3713 34.2674V35.5088H94.6204Z" fill="#1A202C"/>
<path d="M99.233 30.8805C99.0644 30.8805 98.9418 30.8345 98.8499 30.7579C98.7733 30.6659 98.7273 30.5586 98.7273 30.4207C98.7273 30.2981 98.7733 30.1908 98.8499 30.0989C98.9265 30.0069 99.0644 29.9609 99.233 29.9609C99.4016 29.9609 99.5242 30.0069 99.6162 30.0989C99.6928 30.1908 99.7388 30.2981 99.7388 30.436C99.7388 30.5586 99.6928 30.6659 99.6162 30.7579C99.5242 30.8345 99.4016 30.8805 99.233 30.8805ZM99.6162 35.5088H98.8652V31.7081H99.6162V35.5088Z" fill="#1A202C"/>
<path d="M102.728 31.6318C103.065 31.6318 103.341 31.7085 103.525 31.8464C103.709 31.9843 103.846 32.1682 103.923 32.4134C104 32.6433 104.03 32.9192 104.03 33.1951V35.5092H103.295V33.241C103.295 33.0571 103.264 32.8885 103.218 32.7506C103.172 32.6127 103.08 32.4901 102.973 32.4134C102.85 32.3368 102.697 32.2908 102.482 32.3062C102.283 32.3062 102.115 32.3521 101.961 32.4288C101.808 32.5054 101.701 32.6127 101.609 32.7506C101.517 32.8885 101.486 33.0418 101.486 33.1951V35.4939H100.735V31.6931H101.486V32.2908C101.609 32.1069 101.777 31.9537 101.992 31.8157C102.222 31.6931 102.467 31.6318 102.728 31.6318Z" fill="#1A202C"/>
<path d="M105.564 36.1367C105.701 36.244 105.885 36.3359 106.1 36.3972C106.314 36.4585 106.529 36.5045 106.744 36.5045C107.127 36.5045 107.433 36.4125 107.648 36.2133C107.862 36.0294 107.954 35.7382 107.954 35.3551V34.8953C107.893 35.0179 107.786 35.1252 107.663 35.2171C107.541 35.3244 107.387 35.4011 107.219 35.4777C107.05 35.539 106.882 35.5696 106.698 35.5696C106.345 35.5696 106.023 35.4777 105.747 35.3091C105.456 35.1405 105.242 34.9106 105.073 34.6041C104.905 34.2976 104.828 33.9604 104.828 33.5773C104.828 33.1942 104.905 32.857 105.073 32.5505C105.242 32.2593 105.456 32.0141 105.747 31.8455C106.023 31.6769 106.345 31.585 106.698 31.585C106.989 31.585 107.249 31.6463 107.464 31.7842C107.694 31.9068 107.862 32.0447 107.97 32.198V31.6769H108.721V35.2478C108.721 35.7076 108.629 36.0601 108.445 36.3512C108.261 36.6271 108.031 36.8263 107.724 36.9643C107.433 37.0869 107.111 37.1635 106.759 37.1635C106.483 37.1635 106.223 37.1175 105.947 37.0409C105.686 36.9489 105.456 36.8417 105.303 36.7191L105.564 36.1367ZM106.774 32.3053C106.544 32.3053 106.33 32.3666 106.161 32.4738C105.977 32.5811 105.839 32.7344 105.732 32.9336C105.625 33.1329 105.579 33.3474 105.579 33.5926C105.579 33.8378 105.625 34.0524 105.732 34.2516C105.839 34.4509 105.977 34.6041 106.161 34.7114C106.345 34.8187 106.544 34.88 106.774 34.88C107.019 34.88 107.219 34.8187 107.403 34.7114C107.586 34.6041 107.724 34.4509 107.832 34.2516C107.939 34.0524 107.985 33.8378 107.985 33.5926C107.985 33.3474 107.939 33.1175 107.832 32.9336C107.724 32.7344 107.586 32.5811 107.403 32.4738C107.234 32.3666 107.019 32.3053 106.774 32.3053Z" fill="#1A202C"/>
<path d="M112.244 33.5932C112.244 33.8384 112.306 34.0683 112.413 34.2676C112.52 34.4668 112.673 34.62 112.857 34.7273C113.041 34.8346 113.24 34.8959 113.455 34.8959C113.7 34.8959 113.899 34.8346 114.083 34.712C114.267 34.5894 114.405 34.4515 114.512 34.3135L114.926 34.8193C114.834 34.9572 114.712 35.0645 114.543 35.1871C114.39 35.2944 114.206 35.3863 114.007 35.463C113.807 35.5396 113.593 35.5702 113.363 35.5702C113.011 35.5702 112.704 35.4783 112.428 35.3097C112.152 35.1411 111.922 34.8959 111.769 34.6047C111.601 34.2982 111.524 33.9764 111.524 33.5932C111.524 33.2101 111.601 32.8729 111.769 32.5817C111.938 32.2905 112.152 32.0453 112.428 31.8767C112.704 31.7082 113.026 31.6162 113.363 31.6162C113.716 31.6162 114.022 31.6928 114.298 31.8308C114.574 31.9687 114.773 32.1526 114.911 32.3825L114.497 32.8882C114.39 32.7197 114.221 32.5817 114.022 32.4591C113.823 32.3365 113.624 32.2752 113.424 32.2752C113.194 32.2752 112.995 32.3365 112.811 32.4438C112.627 32.5511 112.489 32.7043 112.382 32.9036C112.306 33.1181 112.244 33.348 112.244 33.5932Z" fill="#1A202C"/>
<path d="M115.632 35.5088V30.1602H116.383V35.5088H115.632Z" fill="#1A202C"/>
<path d="M120 33.9915V31.708H120.751V35.5088H120V34.8957C119.892 35.0797 119.724 35.2329 119.509 35.3708C119.295 35.5088 119.034 35.5701 118.743 35.5701C118.345 35.5701 118.023 35.4321 117.777 35.1716C117.532 34.8957 117.41 34.5279 117.41 34.0528V31.708H118.161V33.8536C118.161 34.0528 118.191 34.2214 118.253 34.39C118.314 34.5586 118.406 34.6812 118.544 34.7885C118.682 34.8804 118.85 34.9417 119.05 34.9417C119.31 34.9417 119.54 34.8651 119.724 34.6965C119.908 34.5126 120 34.2827 120 33.9915Z" fill="#1A202C"/>
<path d="M123.769 31.6314C124.107 31.6314 124.413 31.708 124.674 31.8766C124.934 32.0452 125.149 32.2751 125.302 32.5663C125.455 32.8575 125.532 33.21 125.532 33.5931C125.532 33.9762 125.455 34.3287 125.302 34.6199C125.149 34.9264 124.934 35.1563 124.674 35.3249C124.413 35.4935 124.107 35.5854 123.785 35.5854C123.509 35.5854 123.264 35.5241 123.049 35.4015C122.835 35.2789 122.651 35.1563 122.528 35.0031V35.4935H121.777V30.1602H122.528V32.2598C122.635 32.1065 122.804 31.9533 123.034 31.8307C123.248 31.6927 123.494 31.6314 123.769 31.6314ZM123.662 32.3057C123.432 32.3057 123.233 32.3671 123.064 32.4743C122.896 32.5816 122.758 32.7349 122.651 32.9341C122.559 33.1333 122.497 33.3479 122.497 33.5931C122.497 33.8383 122.543 34.0529 122.651 34.2521C122.758 34.4513 122.881 34.6046 123.064 34.7119C123.233 34.8345 123.448 34.8805 123.662 34.8805C123.877 34.8805 124.091 34.8192 124.26 34.7119C124.428 34.5893 124.566 34.436 124.674 34.2521C124.766 34.0529 124.827 33.8383 124.827 33.5931C124.827 33.3479 124.781 33.1333 124.674 32.9341C124.582 32.7349 124.444 32.5816 124.26 32.4743C124.091 32.3671 123.892 32.3057 123.662 32.3057Z" fill="#1A202C"/>
<path d="M50.958 8.00011C50.958 7.7549 51.1572 7.55566 51.4024 7.55566H59.9848C61.6859 7.55566 62.9733 7.96946 63.8622 8.81237C64.751 9.65528 65.1955 10.866 65.1955 12.4292C65.1955 13.3334 65.0269 14.1151 64.6897 14.7741C64.4752 15.2032 64.1993 15.571 63.8622 15.8775C63.6476 16.0767 63.6783 16.4446 63.9388 16.5825C64.4599 16.8737 64.8737 17.2262 65.1648 17.6553C65.5786 18.253 65.7932 19.0959 65.7932 20.1687C65.7932 21.8698 65.3181 23.1725 64.3679 24.0614C63.4177 24.9503 62.0384 25.4101 60.2606 25.4101H51.4178C51.1726 25.4101 50.9733 25.2108 50.9733 24.9656V8.00011H50.958ZM58.7128 14.82C60.1227 14.82 60.8277 14.161 60.8277 12.8277C60.8277 12.1227 60.6438 11.6016 60.2913 11.2798C59.9388 10.9426 59.3411 10.7741 58.4829 10.7741H55.663C55.4178 10.7741 55.2185 10.9733 55.2185 11.2185V14.3909C55.2185 14.6361 55.4178 14.8354 55.663 14.8354H58.7128V14.82ZM59.1265 22.2223C59.9235 22.2223 60.5059 22.0538 60.8737 21.7166C61.2415 21.3794 61.4254 20.7817 61.4254 19.9541C61.4254 19.2492 61.2415 18.7281 60.8583 18.4062C60.4752 18.0691 59.8469 17.9005 58.958 17.9005H55.663C55.4178 17.9005 55.2185 18.0997 55.2185 18.3449V21.7932C55.2185 22.0384 55.4178 22.2377 55.663 22.2377H59.1265V22.2223Z" fill="#1A202C"/>
<path d="M68.7212 15.5706H67.8016C67.5411 15.5706 67.3419 15.3407 67.3725 15.0802L67.6484 12.6587C67.679 12.4442 67.8629 12.2756 68.0775 12.2756H72.997C73.2422 12.2756 73.4415 12.4748 73.4415 12.72V24.9806C73.4415 25.2258 73.2422 25.425 72.997 25.425H69.61C69.3648 25.425 69.1656 25.2258 69.1656 24.9806V16.015C69.1656 15.7698 68.9664 15.5706 68.7212 15.5706ZM69.2576 6.83496H73.0277C73.2729 6.83496 73.4721 7.03419 73.4721 7.27941V9.76216C73.4721 10.0074 73.2729 10.2066 73.0277 10.2066H69.2576C69.0123 10.2066 68.8131 10.0074 68.8131 9.76216V7.27941C68.8131 7.03419 69.0123 6.83496 69.2576 6.83496Z" fill="#1A202C"/>
<path d="M77.9317 24.4593C77.1807 23.6471 76.7976 22.4976 76.7976 20.9957V16.0915C76.7976 15.8463 76.5984 15.6471 76.3531 15.6471H75.5409C75.2957 15.6471 75.0964 15.4478 75.0964 15.2026V12.7045C75.0964 12.4593 75.2957 12.2601 75.5409 12.2601H76.3531C76.5984 12.2601 76.7976 12.0608 76.7976 11.8156V9.85395C76.7976 9.65471 76.9355 9.48613 77.1194 9.42483L80.5064 8.47464C80.7823 8.39801 81.0581 8.61257 81.0581 8.90376V11.8156C81.0581 12.0608 81.2573 12.2601 81.5026 12.2601H83.6482C83.8934 12.2601 84.1079 12.4746 84.0926 12.7198L83.9547 15.2179C83.9393 15.4478 83.7554 15.6317 83.5102 15.6317H81.5026C81.2573 15.6317 81.0581 15.831 81.0581 16.0762V20.6739C81.0581 21.3022 81.196 21.7467 81.4872 21.9919C81.7631 22.2371 82.2229 22.3597 82.8665 22.3597C83.2037 22.3597 83.5562 22.3137 83.8934 22.2371C84.1692 22.1758 84.4298 22.375 84.4298 22.6662V24.8118C84.4298 24.9957 84.3225 25.1643 84.1386 25.2256C83.357 25.5168 82.4221 25.67 81.3186 25.67C79.8167 25.6854 78.6826 25.2716 77.9317 24.4593Z" fill="#1A202C"/>
<path d="M86.529 24.368C85.7014 23.4945 85.303 22.2071 85.303 20.5366V12.7205C85.303 12.4753 85.5022 12.2761 85.7474 12.2761H89.1344C89.3796 12.2761 89.5788 12.4753 89.5788 12.7205V20.2914C89.5788 21.027 89.7474 21.5634 90.0846 21.9159C90.4217 22.2531 90.9428 22.4217 91.6478 22.4217C92.1382 22.4217 92.6133 22.3144 93.0731 22.0998C93.4715 21.9159 93.824 21.6707 94.1152 21.3795C94.1919 21.3029 94.2378 21.1956 94.2378 21.073V12.7052C94.2378 12.46 94.4371 12.2607 94.6823 12.2607H98.0692C98.3145 12.2607 98.5137 12.46 98.5137 12.7052V24.9657C98.5137 25.2109 98.3145 25.4102 98.0692 25.4102H94.9122C94.6823 25.4102 94.4984 25.2416 94.483 25.027C94.4524 24.7052 94.0846 24.5366 93.824 24.7052C92.7512 25.3642 91.4792 25.686 90.0233 25.686C88.506 25.686 87.3413 25.2416 86.529 24.368Z" fill="#1A202C"/>
<path d="M21.5799 43.9847C17.7791 44.0919 9.9017 43.6475 7.00515 41.9157C6.68331 41.7624 6.3768 41.5632 6.07028 41.3793C3.58752 39.8161 1.97833 37.6092 1.27335 34.7433C0.49174 31.5862 0.139249 28.3831 0.0319695 25.1341C-0.167264 18.6054 0.568368 13.8238 1.39595 11.6015C2.60668 8.38314 4.72162 6.09962 7.74078 4.5977C8.56837 4.18391 9.4266 3.86207 10.3002 3.55556C19.8174 0.260536 34.3002 0.0613027 36.5837 0C36.8596 0 37.1201 0 37.396 0.0153257C37.6412 0.0306513 37.9017 0.0306513 38.1316 0.091954C38.055 0.137931 37.963 0.153257 37.8864 0.199234C37.7791 0.260536 37.6565 0.321839 37.5492 0.398467C37.4573 0.45977 37.3959 0.551724 37.304 0.628352C37.1048 0.766283 36.8442 0.81226 36.6143 0.91954C34.8212 1.7318 33.0741 2.62069 31.6182 3.96935C30.6067 4.88889 30.6067 5.40996 31.6028 6.34483C32.3385 7.01916 33.1048 7.72414 34.0243 8.10728C36.6143 9.18008 38.009 11.4023 39.3576 13.6092C40.9668 16.2299 41.4266 19.2031 41.5032 22.2529C41.5645 24.8123 41.5492 27.4023 41.1048 29.9004C41.258 33.2107 39.4956 38.7126 35.2657 41.5785C31.9094 43.8161 26.8519 43.8467 21.5799 43.9847Z" fill="#FF6D03"/>
<path d="M37.671 1.13383C37.4258 1.34839 37.1346 1.50164 36.874 1.68555C36.4756 1.99206 36.1691 2.34456 35.8626 2.74302C35.5407 3.15682 35.3721 3.72387 35.4641 4.24494C35.5714 4.87329 36.0311 5.24111 36.5216 5.57827C36.7361 5.7162 36.8894 5.86946 37.1193 5.99206C37.6403 6.26793 38.0388 6.68172 38.4679 7.08019C39.7093 8.26026 40.5369 9.7162 41.1346 11.2947C42.0388 13.7009 42.5599 16.199 42.6058 18.7737C42.6671 21.7775 42.6978 24.766 42.4986 27.7545C42.33 30.3446 41.9468 32.9193 41.1499 35.402C40.7821 36.5514 40.2304 37.7622 39.5101 38.8809C38.1001 41.1032 35.8013 42.6051 33.2112 43.0649C31.4947 43.3714 26.9583 43.7545 26.7131 43.7545C28.4143 43.0955 30.4373 42.3292 32.0618 41.5629C33.3645 40.9499 34.5599 40.107 35.5867 39.0955C36.6442 38.0534 37.7016 37.0265 38.4526 35.7392C39.4641 34.0227 40.3376 32.2449 40.6748 30.2373C40.7974 29.4863 41.1039 25.9308 41.1039 25.6242C41.1039 24.1836 41.1959 22.743 41.0886 21.3024C40.92 19.0036 40.5522 16.7354 39.5254 14.6204C39.1576 13.8541 38.897 13.1032 38.4066 12.3829C37.9009 11.6626 37.3185 11.0036 36.6901 10.3752C35.9239 9.60892 34.9737 9.1798 34.1154 8.55145C33.5177 8.12233 32.8281 7.87712 32.2304 7.43268C31.1116 6.60509 30.0235 4.90394 31.3262 3.70854C32.1997 2.91161 33.1652 2.20662 34.238 1.67023C34.8511 1.36371 35.4488 1.02655 36.0771 0.750686C36.3683 0.612755 36.6901 0.536126 36.9813 0.398196C37.1499 0.321567 37.3338 0.244939 37.5024 0.16831C37.6097 0.122333 37.7323 0.0610308 37.8549 0.0303795C37.9775 -0.000271879 38.1308 0.0150538 38.2687 0.0457051C38.9583 0.321567 37.8549 0.980571 37.671 1.13383Z" fill="#F54D05"/>
<path d="M20.9348 40.6436C19.249 40.7816 17.6091 40.6436 15.9846 40.4137C13.1954 40.0306 10.6666 38.9425 8.58233 36.9961C7.3103 35.8007 6.43674 34.3141 5.83904 32.6743C5.02677 30.4521 4.59766 28.1379 4.59766 25.7471C4.59766 23.6168 4.73559 21.5172 5.1034 19.4176C5.60915 16.5517 6.97313 14.1762 9.19536 12.3065C9.68578 11.8927 10.1455 11.4482 10.6513 11.0651C11.9387 10.0996 13.3486 9.36394 14.9118 8.90417C16.6436 8.39842 18.4061 7.93865 20.1992 7.908C22.0229 7.87735 23.8773 7.908 25.6858 8.35245C26.2222 8.49038 26.7739 8.61298 27.3103 8.75091C29.8237 9.34861 31.9233 10.6973 33.839 12.3984C36.3678 14.636 37.6858 17.4406 38.0689 20.7509C38.2222 22.0996 38.3601 23.4636 38.3908 24.8122C38.4674 27.8314 38.0229 30.8046 36.7662 33.5938C35.1264 37.226 32.1839 39.249 28.4137 40.1839C27.7241 40.3524 26.9885 40.4137 26.2682 40.4597C24.4904 40.5364 22.6973 40.8122 20.9348 40.6436Z" fill="white"/>
<path d="M22.3607 23.5863C22.6519 22.1917 23.2649 21.0576 24.2457 20.1074C27.1269 17.3181 32.5522 18.2836 33.8243 22.7127C34.7591 26.0231 32.7055 28.797 29.8549 29.6553C26.6212 30.6361 23.3262 28.751 22.4833 25.4867C22.4373 25.3334 22.4373 25.1648 22.4066 25.0116C22.3147 24.6438 22.2687 24.5825 21.8089 24.6131C21.4411 24.6284 20.966 24.4292 20.8128 25.0116C20.7821 25.1342 20.7668 25.2415 20.7361 25.3641C20.1691 27.6782 18.7285 29.1802 16.4296 29.7472C12.0158 30.8353 8.72082 27.1418 9.21124 23.6169C9.56374 21.0729 11.9545 18.6667 14.8051 18.5901C17.1653 18.5135 19.9852 20.0001 20.6748 22.9426C20.8434 23.6629 20.9967 23.7089 21.6404 23.6476C21.8549 23.6169 22.0542 23.6169 22.3607 23.5863Z" fill="#1A202C"/>
<path d="M21.6555 32.4594C20.8585 32.4288 19.9696 32.2295 19.1267 31.8311C18.621 31.5859 18.1459 31.2793 17.916 30.7276C17.8394 30.5437 17.8394 30.3292 18.0233 30.1912C18.2072 30.0533 18.4064 30.0686 18.575 30.2219C20.2302 31.8464 22.1459 31.6931 24.1382 31.0648C24.4754 30.9575 24.7666 30.7276 25.0271 30.4671C25.1651 30.3292 25.3336 30.2066 25.5022 30.1299C25.5942 30.084 25.7474 30.1299 25.8394 30.1759C25.9773 30.2525 26.0539 30.4058 26.0233 30.5897C25.9926 30.8962 25.7934 31.1108 25.5788 31.2794C25.0884 31.6778 24.552 32.0456 23.9083 32.1989C23.2187 32.3368 22.5137 32.4441 21.6555 32.4594Z" fill="#1A202C"/>
<path d="M15.0043 28.9506C12.5829 28.8893 10.7285 27.3721 10.2534 25.0732C9.9622 23.6479 10.3147 22.3299 11.2649 21.2724C13.1193 19.1728 16.5829 18.8357 18.6978 21.1652C20.8128 23.4947 20.0158 27.0656 17.2419 28.4449C16.5216 28.8127 15.74 28.9966 15.0043 28.9506Z" fill="white"/>
<path d="M28.1995 28.9191C24.8125 28.9038 22.5136 25.716 23.6171 22.6202C24.2148 20.9651 25.4715 20.0609 27.1113 19.6624C29.4102 19.0953 31.847 20.3367 32.7052 22.4976C33.6247 24.7965 32.5826 27.4019 30.345 28.4593C29.6707 28.7658 28.9351 28.9651 28.1995 28.9191Z" fill="white"/>
</g>
<defs>
<clipPath id="clip0_27131_70651">
<rect width="125.533" height="44" fill="white"/>
</clipPath>
</defs>
</svg>
