
<svg width="126" height="44" viewBox="0 0 126 44" fill="none" xmlns="http://www.w3.org/2000/svg">
<g clip-path="url(#clip0_27486_71362)">
<path d="M50.8965 30.4355H54.0842V31.1865H51.6781V32.5198H53.6858V33.2708H51.6781V34.7421H54.0842V35.493H50.8965V30.4355Z" fill="#1A202C"/>
<path d="M57.1332 31.6318C57.4703 31.6318 57.7462 31.7085 57.9301 31.8464C58.114 31.9843 58.2519 32.1682 58.3286 32.4134C58.4052 32.6433 58.4358 32.9192 58.4358 33.1951V35.5092H57.6849V33.241C57.6849 33.0571 57.6542 32.8885 57.6082 32.7506C57.5623 32.6127 57.4703 32.4901 57.363 32.4134C57.2404 32.3368 57.0872 32.2908 56.8726 32.3062C56.6734 32.3062 56.5048 32.3521 56.3515 32.4288C56.1983 32.5054 56.091 32.6127 55.9991 32.7506C55.9071 32.8885 55.8764 33.0418 55.8764 33.1951V35.4939H55.1255V31.6931H55.8764V32.2908C55.9991 32.1069 56.1676 31.9537 56.3822 31.8157C56.6274 31.6931 56.8726 31.6318 57.1332 31.6318Z" fill="#1A202C"/>
<path d="M59.9847 36.1367C60.1226 36.244 60.3065 36.3359 60.5211 36.3972C60.7356 36.4585 60.9502 36.5045 61.1647 36.5045C61.5479 36.5045 61.8544 36.4125 62.0689 36.2133C62.2835 36.0294 62.3755 35.7382 62.3755 35.3551V34.8953C62.3142 35.0179 62.2069 35.1252 62.0843 35.2171C61.9617 35.3244 61.8084 35.4011 61.6398 35.4777C61.4712 35.539 61.3027 35.5696 61.1188 35.5696C60.7663 35.5696 60.4444 35.4777 60.1686 35.3091C59.8774 35.1405 59.6628 34.9106 59.4942 34.6041C59.3257 34.2976 59.249 33.9604 59.249 33.5773C59.249 33.1942 59.3257 32.857 59.4942 32.5505C59.6628 32.2593 59.8774 32.0141 60.1686 31.8455C60.4444 31.6769 60.7663 31.585 61.1188 31.585C61.4099 31.585 61.6705 31.6463 61.885 31.7842C62.1149 31.9068 62.2835 32.0447 62.3908 32.198V31.6769H63.1417V35.2478C63.1417 35.7076 63.0498 36.0601 62.8659 36.3512C62.682 36.6271 62.4521 36.8263 62.1456 36.9643C61.8544 37.0869 61.5325 37.1635 61.1801 37.1635C60.9042 37.1635 60.6437 37.1175 60.3678 37.0409C60.1073 36.9489 59.8774 36.8417 59.7241 36.7191L59.9847 36.1367ZM61.1801 32.3053C60.9502 32.3053 60.7356 32.3666 60.567 32.4738C60.3831 32.5811 60.2452 32.7344 60.1379 32.9336C60.0306 33.1329 59.9847 33.3474 59.9847 33.5926C59.9847 33.8378 60.0306 34.0524 60.1379 34.2516C60.2452 34.4509 60.3831 34.6041 60.567 34.7114C60.7509 34.8187 60.9502 34.88 61.1801 34.88C61.4253 34.88 61.6245 34.8187 61.8084 34.7114C61.9923 34.6041 62.1302 34.4509 62.2375 34.2516C62.3448 34.0524 62.3908 33.8378 62.3908 33.5926C62.3908 33.3474 62.3448 33.1175 62.2375 32.9336C62.1302 32.7344 61.9923 32.5811 61.8084 32.4738C61.6398 32.3666 61.4253 32.3053 61.1801 32.3053Z" fill="#1A202C"/>
<path d="M64.1523 35.5088V30.1602H64.9032V35.5088H64.1523Z" fill="#1A202C"/>
<path d="M66.4672 30.8805C66.2986 30.8805 66.176 30.8345 66.084 30.7579C66.0074 30.6659 65.9614 30.5586 65.9614 30.4207C65.9614 30.2981 66.0074 30.1908 66.084 30.0989C66.1607 30.0069 66.2986 29.9609 66.4672 29.9609C66.6358 29.9609 66.7584 30.0069 66.8503 30.0989C66.927 30.1908 66.9729 30.2981 66.9729 30.436C66.9729 30.5586 66.927 30.6659 66.8503 30.7579C66.7584 30.8345 66.6358 30.8805 66.4672 30.8805ZM66.8503 35.5088H66.0994V31.7081H66.8503V35.5088Z" fill="#1A202C"/>
<path d="M70.1611 32.7043C70.0232 32.5664 69.8699 32.4591 69.7013 32.3672C69.5327 32.2752 69.3795 32.2292 69.2262 32.2292C69.119 32.2292 69.027 32.2446 68.9197 32.2599C68.8278 32.2905 68.7358 32.3212 68.6745 32.3978C68.6132 32.4591 68.5672 32.5511 68.5672 32.689C68.5672 32.8576 68.6439 32.9802 68.7971 33.0568C68.9504 33.1335 69.1343 33.1948 69.3642 33.2561C69.5634 33.302 69.7473 33.3787 69.9465 33.4553C70.1305 33.5319 70.2837 33.6545 70.4063 33.8078C70.5289 33.961 70.5902 34.1756 70.5902 34.4515C70.5902 34.6813 70.5289 34.8959 70.391 35.0645C70.2531 35.2331 70.0845 35.3557 69.8699 35.4476C69.6554 35.5396 69.4408 35.5856 69.2109 35.5856C68.935 35.5856 68.6592 35.5396 68.3986 35.4323C68.1381 35.3403 67.9082 35.1564 67.709 34.9266L68.2147 34.4974C68.3373 34.6507 68.4906 34.758 68.6592 34.8499C68.8278 34.9419 69.027 34.9725 69.2722 34.9725C69.3642 34.9725 69.4561 34.9572 69.5481 34.9266C69.64 34.8959 69.7167 34.8499 69.778 34.7733C69.8393 34.6967 69.8699 34.6047 69.8699 34.4821C69.8699 34.3595 69.8393 34.2829 69.7626 34.2062C69.686 34.1449 69.5941 34.0836 69.4868 34.053C69.3642 34.007 69.2416 33.9764 69.1036 33.9457C68.8891 33.8844 68.6898 33.8231 68.4906 33.7312C68.2914 33.6392 68.1228 33.5319 67.9849 33.3633C67.8469 33.2101 67.7856 32.9955 67.7856 32.7197C67.7856 32.4898 67.8469 32.3059 67.9695 32.1373C68.0921 31.9687 68.2607 31.8461 68.4753 31.7541C68.6898 31.6622 68.9044 31.6162 69.1343 31.6162C69.3642 31.6162 69.6094 31.6622 69.8699 31.7541C70.1305 31.8461 70.3603 31.9994 70.5289 32.2139L70.1611 32.7043Z" fill="#1A202C"/>
<path d="M73.4252 31.6311C73.7623 31.6311 74.0382 31.7077 74.2221 31.8457C74.406 31.9836 74.5439 32.1675 74.6206 32.4127C74.6972 32.6426 74.7278 32.9185 74.7278 33.1943V35.5085H73.9769V33.2403C73.9769 33.0564 73.9462 32.8878 73.9002 32.7499C73.8543 32.612 73.7623 32.4894 73.655 32.4127C73.5324 32.3361 73.3792 32.2901 73.1646 32.3055C72.9654 32.3055 72.7968 32.3514 72.6435 32.4281C72.4903 32.5047 72.383 32.612 72.291 32.7499C72.1991 32.8878 72.1684 33.0411 72.1684 33.1943V35.4932H71.4175V30.1445H72.1684V32.3055C72.291 32.1215 72.4596 31.9683 72.6742 31.8304C72.9194 31.6924 73.1646 31.6311 73.4252 31.6311Z" fill="#1A202C"/>
<path d="M79.9536 32.7043C79.8157 32.5664 79.6624 32.4591 79.4939 32.3672C79.3253 32.2752 79.172 32.2292 79.0187 32.2292C78.9115 32.2292 78.8195 32.2446 78.7122 32.2599C78.6203 32.2905 78.5283 32.3212 78.467 32.3978C78.4057 32.4591 78.3597 32.5511 78.3597 32.689C78.3597 32.8576 78.4363 32.9802 78.5896 33.0568C78.7429 33.1335 78.9268 33.1948 79.1567 33.2561C79.3559 33.302 79.5398 33.3787 79.7391 33.4553C79.923 33.5319 80.0762 33.6545 80.1988 33.8078C80.3215 33.961 80.3828 34.1756 80.3828 34.4515C80.3828 34.6813 80.3215 34.8959 80.1835 35.0645C80.0456 35.2331 79.877 35.3557 79.6624 35.4476C79.4479 35.5396 79.2333 35.5856 79.0034 35.5856C78.7275 35.5856 78.4517 35.5396 78.1911 35.4323C77.9306 35.3403 77.7007 35.1564 77.5015 34.9266L78.0072 34.4974C78.1298 34.6507 78.2831 34.758 78.4517 34.8499C78.6203 34.9419 78.8195 34.9725 79.0647 34.9725C79.1567 34.9725 79.2486 34.9572 79.3406 34.9266C79.4325 34.8959 79.5092 34.8499 79.5705 34.7733C79.6318 34.6967 79.6624 34.6047 79.6624 34.4821C79.6624 34.3595 79.6318 34.2829 79.5551 34.2062C79.4785 34.1449 79.3866 34.0836 79.2793 34.053C79.1567 34.007 79.0341 33.9764 78.8961 33.9457C78.6816 33.8844 78.4823 33.8231 78.2831 33.7312C78.0839 33.6392 77.9153 33.5319 77.7773 33.3633C77.6394 33.2101 77.5781 32.9955 77.5781 32.7197C77.5781 32.4898 77.6394 32.3059 77.762 32.1373C77.8846 31.9687 78.0532 31.8461 78.2678 31.7541C78.4823 31.6622 78.6969 31.6162 78.9268 31.6162C79.1567 31.6162 79.4019 31.6622 79.6624 31.7541C79.923 31.8461 80.1529 31.9994 80.3215 32.2139L79.9536 32.7043Z" fill="#1A202C"/>
<path d="M83.2185 31.6318C83.5557 31.6318 83.8622 31.7085 84.1227 31.877C84.3833 32.0456 84.5979 32.2755 84.7511 32.5667C84.9044 32.8579 84.981 33.1951 84.981 33.5935C84.981 33.9767 84.9044 34.3138 84.7511 34.605C84.5979 34.8962 84.3833 35.1414 84.1227 35.31C83.8622 35.4786 83.5557 35.5705 83.2338 35.5705C82.9579 35.5705 82.7127 35.5092 82.4982 35.4019C82.2836 35.2947 82.0997 35.1567 81.9771 35.0035V37.0878H81.2261V31.6931H81.9771V32.2449C82.0843 32.0916 82.2529 31.9384 82.4828 31.8157C82.7127 31.7085 82.9579 31.6318 83.2185 31.6318ZM83.1112 32.3215C82.8813 32.3215 82.6821 32.3828 82.5135 32.4901C82.3449 32.5974 82.207 32.7506 82.0997 32.9498C82.0077 33.1338 81.9464 33.3636 81.9464 33.6088C81.9464 33.8541 81.9924 34.0686 82.0997 34.2525C82.1916 34.4518 82.3296 34.605 82.5135 34.7123C82.6821 34.8196 82.8966 34.8809 83.1112 34.8809C83.3258 34.8809 83.5403 34.8196 83.7089 34.7123C83.8775 34.605 84.0155 34.4518 84.1227 34.2525C84.2147 34.0533 84.276 33.8387 84.276 33.6088C84.276 33.3636 84.23 33.1491 84.1227 32.9498C84.0308 32.7659 83.8928 32.6127 83.7089 32.4901C83.5403 32.3828 83.3411 32.3215 83.1112 32.3215Z" fill="#1A202C"/>
<path d="M89.0574 35.0032C88.8888 35.1564 88.6895 35.279 88.4137 35.4016C88.1378 35.5243 87.8619 35.5702 87.5707 35.5702C87.1722 35.5702 86.8197 35.4936 86.5285 35.325C86.222 35.1564 85.9921 34.9266 85.8235 34.6354C85.6549 34.3442 85.563 34.007 85.563 33.6392C85.563 33.2101 85.6549 32.8576 85.8235 32.5511C86.0074 32.2446 86.2373 32.0147 86.5285 31.8614C86.8197 31.6928 87.1416 31.6162 87.4941 31.6162C87.8159 31.6162 88.1071 31.6928 88.3677 31.8461C88.6282 31.9994 88.8428 32.2139 88.9961 32.4898C89.1493 32.7656 89.226 33.0875 89.226 33.4553V33.7771H86.314C86.36 34.1143 86.4979 34.3902 86.7431 34.5894C86.9883 34.7886 87.2795 34.8959 87.6474 34.8959C87.9079 34.8959 88.1225 34.8499 88.291 34.7426C88.4596 34.6507 88.5976 34.5434 88.6895 34.4515L89.0574 35.0032ZM87.5094 32.3059C87.2182 32.3059 86.973 32.3672 86.7584 32.5051C86.5439 32.643 86.4059 32.8729 86.3446 33.1948H88.475V33.1488C88.4596 32.9802 88.4137 32.8423 88.3064 32.7197C88.2144 32.5971 88.0918 32.4898 87.9539 32.4285C87.8159 32.3365 87.6627 32.3059 87.5094 32.3059Z" fill="#1A202C"/>
<path d="M93.5786 31.7085V35.5092H92.8276V34.9269C92.705 35.0801 92.5364 35.2334 92.3065 35.3713C92.0766 35.5092 91.816 35.5859 91.5248 35.5859C91.203 35.5859 90.9118 35.4939 90.6512 35.3253C90.3907 35.1567 90.1761 34.9269 90.0229 34.6203C89.8696 34.3138 89.793 33.9767 89.793 33.5935C89.793 33.2104 89.8696 32.8732 90.0382 32.5667C90.1915 32.2755 90.4213 32.0456 90.6972 31.877C90.9731 31.7085 91.2949 31.6318 91.6475 31.6318C91.908 31.6318 92.1379 31.6931 92.3525 31.8004C92.5517 31.923 92.7203 32.0456 92.8276 32.1989V31.6931H93.5786V31.7085ZM91.6934 34.8809C91.9233 34.8809 92.1226 34.8196 92.3065 34.7123C92.4751 34.605 92.613 34.4518 92.705 34.2525C92.7969 34.0533 92.8429 33.8387 92.8429 33.5935C92.8429 33.3483 92.7969 33.1338 92.705 32.9498C92.613 32.7506 92.4751 32.5974 92.3065 32.4901C92.1379 32.3828 91.9233 32.3215 91.6934 32.3215C91.4789 32.3215 91.2796 32.3828 91.0957 32.4901C90.9271 32.5974 90.7892 32.7506 90.6972 32.9498C90.6053 33.1491 90.5593 33.3636 90.5593 33.6088C90.5593 33.8541 90.6053 34.0686 90.6972 34.2679C90.7892 34.4671 90.9271 34.6203 91.0957 34.7276C91.2796 34.8349 91.4789 34.8809 91.6934 34.8809Z" fill="#1A202C"/>
<path d="M94.6206 35.5088V30.1602H95.3716V33.4092L97.088 31.708H98.0995L96.3217 33.3785L98.1455 35.5088H97.1953L95.7853 33.869L95.3716 34.2674V35.5088H94.6206Z" fill="#1A202C"/>
<path d="M99.2333 30.8805C99.0647 30.8805 98.9421 30.8345 98.8501 30.7579C98.7735 30.6659 98.7275 30.5586 98.7275 30.4207C98.7275 30.2981 98.7735 30.1908 98.8501 30.0989C98.9268 30.0069 99.0647 29.9609 99.2333 29.9609C99.4018 29.9609 99.5244 30.0069 99.6164 30.0989C99.693 30.1908 99.739 30.2981 99.739 30.436C99.739 30.5586 99.693 30.6659 99.6164 30.7579C99.5244 30.8345 99.4018 30.8805 99.2333 30.8805ZM99.6164 35.5088H98.8655V31.7081H99.6164V35.5088Z" fill="#1A202C"/>
<path d="M102.728 31.6318C103.065 31.6318 103.341 31.7085 103.525 31.8464C103.709 31.9843 103.847 32.1682 103.924 32.4134C104 32.6433 104.031 32.9192 104.031 33.1951V35.5092H103.295V33.241C103.295 33.0571 103.265 32.8885 103.219 32.7506C103.173 32.6127 103.081 32.4901 102.973 32.4134C102.851 32.3368 102.698 32.2908 102.483 32.3062C102.284 32.3062 102.115 32.3521 101.962 32.4288C101.809 32.5054 101.701 32.6127 101.609 32.7506C101.517 32.8885 101.487 33.0418 101.487 33.1951V35.4939H100.736V31.6931H101.487V32.2908C101.609 32.1069 101.778 31.9537 101.993 31.8157C102.222 31.6931 102.468 31.6318 102.728 31.6318Z" fill="#1A202C"/>
<path d="M105.564 36.1367C105.702 36.244 105.886 36.3359 106.1 36.3972C106.315 36.4585 106.529 36.5045 106.744 36.5045C107.127 36.5045 107.433 36.4125 107.648 36.2133C107.863 36.0294 107.955 35.7382 107.955 35.3551V34.8953C107.893 35.0179 107.786 35.1252 107.663 35.2171C107.541 35.3244 107.388 35.4011 107.219 35.4777C107.05 35.539 106.882 35.5696 106.698 35.5696C106.345 35.5696 106.024 35.4777 105.748 35.3091C105.456 35.1405 105.242 34.9106 105.073 34.6041C104.905 34.2976 104.828 33.9604 104.828 33.5773C104.828 33.1942 104.905 32.857 105.073 32.5505C105.242 32.2593 105.456 32.0141 105.748 31.8455C106.024 31.6769 106.345 31.585 106.698 31.585C106.989 31.585 107.25 31.6463 107.464 31.7842C107.694 31.9068 107.863 32.0447 107.97 32.198V31.6769H108.721V35.2478C108.721 35.7076 108.629 36.0601 108.445 36.3512C108.261 36.6271 108.031 36.8263 107.725 36.9643C107.433 37.0869 107.112 37.1635 106.759 37.1635C106.483 37.1635 106.223 37.1175 105.947 37.0409C105.686 36.9489 105.456 36.8417 105.303 36.7191L105.564 36.1367ZM106.774 32.3053C106.545 32.3053 106.33 32.3666 106.161 32.4738C105.978 32.5811 105.84 32.7344 105.732 32.9336C105.625 33.1329 105.579 33.3474 105.579 33.5926C105.579 33.8378 105.625 34.0524 105.732 34.2516C105.84 34.4509 105.978 34.6041 106.161 34.7114C106.345 34.8187 106.545 34.88 106.774 34.88C107.02 34.88 107.219 34.8187 107.403 34.7114C107.587 34.6041 107.725 34.4509 107.832 34.2516C107.939 34.0524 107.985 33.8378 107.985 33.5926C107.985 33.3474 107.939 33.1175 107.832 32.9336C107.725 32.7344 107.587 32.5811 107.403 32.4738C107.234 32.3666 107.02 32.3053 106.774 32.3053Z" fill="#1A202C"/>
<path d="M112.245 33.5932C112.245 33.8384 112.306 34.0683 112.413 34.2676C112.521 34.4668 112.674 34.62 112.858 34.7273C113.042 34.8346 113.241 34.8959 113.455 34.8959C113.701 34.8959 113.9 34.8346 114.084 34.712C114.268 34.5894 114.406 34.4515 114.513 34.3135L114.927 34.8193C114.835 34.9572 114.712 35.0645 114.544 35.1871C114.39 35.2944 114.206 35.3863 114.007 35.463C113.808 35.5396 113.593 35.5702 113.364 35.5702C113.011 35.5702 112.704 35.4783 112.429 35.3097C112.153 35.1411 111.923 34.8959 111.77 34.6047C111.601 34.2982 111.524 33.9764 111.524 33.5932C111.524 33.2101 111.601 32.8729 111.77 32.5817C111.938 32.2905 112.153 32.0453 112.429 31.8767C112.704 31.7082 113.026 31.6162 113.364 31.6162C113.716 31.6162 114.023 31.6928 114.298 31.8308C114.574 31.9687 114.773 32.1526 114.911 32.3825L114.498 32.8882C114.39 32.7197 114.222 32.5817 114.023 32.4591C113.823 32.3365 113.624 32.2752 113.425 32.2752C113.195 32.2752 112.996 32.3365 112.812 32.4438C112.628 32.5511 112.49 32.7043 112.383 32.9036C112.306 33.1181 112.245 33.348 112.245 33.5932Z" fill="#1A202C"/>
<path d="M115.632 35.5088V30.1602H116.383V35.5088H115.632Z" fill="#1A202C"/>
<path d="M120 33.9915V31.708H120.751V35.5088H120V34.8957C119.892 35.0797 119.724 35.2329 119.509 35.3708C119.295 35.5088 119.034 35.5701 118.743 35.5701C118.345 35.5701 118.023 35.4321 117.777 35.1716C117.532 34.8957 117.41 34.5279 117.41 34.0528V31.708H118.161V33.8536C118.161 34.0528 118.191 34.2214 118.253 34.39C118.314 34.5586 118.406 34.6812 118.544 34.7885C118.682 34.8804 118.85 34.9417 119.05 34.9417C119.31 34.9417 119.54 34.8651 119.724 34.6965C119.908 34.5126 120 34.2827 120 33.9915Z" fill="#1A202C"/>
<path d="M123.77 31.6314C124.107 31.6314 124.413 31.708 124.674 31.8766C124.934 32.0452 125.149 32.2751 125.302 32.5663C125.455 32.8575 125.532 33.21 125.532 33.5931C125.532 33.9762 125.455 34.3287 125.302 34.6199C125.149 34.9264 124.934 35.1563 124.674 35.3249C124.413 35.4935 124.107 35.5854 123.785 35.5854C123.509 35.5854 123.264 35.5241 123.049 35.4015C122.835 35.2789 122.651 35.1563 122.528 35.0031V35.4935H121.777V30.1602H122.528V32.2598C122.636 32.1065 122.804 31.9533 123.034 31.8307C123.249 31.6927 123.494 31.6314 123.77 31.6314ZM123.662 32.3057C123.432 32.3057 123.233 32.3671 123.065 32.4743C122.896 32.5816 122.758 32.7349 122.651 32.9341C122.559 33.1333 122.498 33.3479 122.498 33.5931C122.498 33.8383 122.544 34.0529 122.651 34.2521C122.758 34.4513 122.881 34.6046 123.065 34.7119C123.233 34.8345 123.448 34.8805 123.662 34.8805C123.877 34.8805 124.091 34.8192 124.26 34.7119C124.429 34.5893 124.567 34.436 124.674 34.2521C124.766 34.0529 124.827 33.8383 124.827 33.5931C124.827 33.3479 124.781 33.1333 124.674 32.9341C124.582 32.7349 124.444 32.5816 124.26 32.4743C124.091 32.3671 123.892 32.3057 123.662 32.3057Z" fill="#1A202C"/>
<path d="M50.958 8.00011C50.958 7.7549 51.1572 7.55566 51.4024 7.55566H59.9848C61.6859 7.55566 62.9733 7.96946 63.8622 8.81237C64.751 9.65528 65.1955 10.866 65.1955 12.4292C65.1955 13.3334 65.0269 14.1151 64.6897 14.7741C64.4752 15.2032 64.1993 15.571 63.8622 15.8775C63.6476 16.0767 63.6783 16.4446 63.9388 16.5825C64.4599 16.8737 64.8737 17.2262 65.1648 17.6553C65.5786 18.253 65.7932 19.0959 65.7932 20.1687C65.7932 21.8698 65.3181 23.1725 64.3679 24.0614C63.4177 24.9503 62.0384 25.4101 60.2606 25.4101H51.4178C51.1726 25.4101 50.9733 25.2108 50.9733 24.9656V8.00011H50.958ZM58.7128 14.82C60.1227 14.82 60.8277 14.161 60.8277 12.8277C60.8277 12.1227 60.6438 11.6016 60.2913 11.2798C59.9388 10.9426 59.3411 10.7741 58.4829 10.7741H55.663C55.4178 10.7741 55.2185 10.9733 55.2185 11.2185V14.3909C55.2185 14.6361 55.4178 14.8354 55.663 14.8354H58.7128V14.82ZM59.1265 22.2223C59.9235 22.2223 60.5059 22.0538 60.8737 21.7166C61.2415 21.3794 61.4254 20.7817 61.4254 19.9541C61.4254 19.2492 61.2415 18.7281 60.8583 18.4062C60.4752 18.0691 59.8469 17.9005 58.958 17.9005H55.663C55.4178 17.9005 55.2185 18.0997 55.2185 18.3449V21.7932C55.2185 22.0384 55.4178 22.2377 55.663 22.2377H59.1265V22.2223Z" fill="#1A202C"/>
<path d="M68.7209 15.5706H67.8014C67.5408 15.5706 67.3416 15.3407 67.3723 15.0802L67.6481 12.6587C67.6788 12.4442 67.8627 12.2756 68.0772 12.2756H72.9968C73.242 12.2756 73.4412 12.4748 73.4412 12.72V24.9806C73.4412 25.2258 73.242 25.425 72.9968 25.425H69.6098C69.3646 25.425 69.1654 25.2258 69.1654 24.9806V16.015C69.1654 15.7698 68.9661 15.5706 68.7209 15.5706ZM69.2573 6.83496H73.0274C73.2726 6.83496 73.4719 7.03419 73.4719 7.27941V9.76216C73.4719 10.0074 73.2726 10.2066 73.0274 10.2066H69.2573C69.0121 10.2066 68.8129 10.0074 68.8129 9.76216V7.27941C68.8129 7.03419 69.0121 6.83496 69.2573 6.83496Z" fill="#1A202C"/>
<path d="M77.9319 24.4593C77.181 23.6471 76.7978 22.4976 76.7978 20.9957V16.0915C76.7978 15.8463 76.5986 15.6471 76.3534 15.6471H75.5411C75.2959 15.6471 75.0967 15.4478 75.0967 15.2026V12.7045C75.0967 12.4593 75.2959 12.2601 75.5411 12.2601H76.3534C76.5986 12.2601 76.7978 12.0608 76.7978 11.8156V9.85395C76.7978 9.65471 76.9358 9.48613 77.1197 9.42483L80.5066 8.47464C80.7825 8.39801 81.0584 8.61257 81.0584 8.90376V11.8156C81.0584 12.0608 81.2576 12.2601 81.5028 12.2601H83.6484C83.8936 12.2601 84.1082 12.4746 84.0928 12.7198L83.9549 15.2179C83.9396 15.4478 83.7557 15.6317 83.5105 15.6317H81.5028C81.2576 15.6317 81.0584 15.831 81.0584 16.0762V20.6739C81.0584 21.3022 81.1963 21.7467 81.4875 21.9919C81.7633 22.2371 82.2231 22.3597 82.8668 22.3597C83.204 22.3597 83.5564 22.3137 83.8936 22.2371C84.1695 22.1758 84.43 22.375 84.43 22.6662V24.8118C84.43 24.9957 84.3227 25.1643 84.1388 25.2256C83.3572 25.5168 82.4223 25.67 81.3189 25.67C79.817 25.6854 78.6829 25.2716 77.9319 24.4593Z" fill="#1A202C"/>
<path d="M86.5288 24.368C85.7012 23.4945 85.3027 22.2071 85.3027 20.5366V12.7205C85.3027 12.4753 85.502 12.2761 85.7472 12.2761H89.1341C89.3794 12.2761 89.5786 12.4753 89.5786 12.7205V20.2914C89.5786 21.027 89.7472 21.5634 90.0843 21.9159C90.4215 22.2531 90.9426 22.4217 91.6476 22.4217C92.138 22.4217 92.6131 22.3144 93.0728 22.0998C93.4713 21.9159 93.8238 21.6707 94.115 21.3795C94.1916 21.3029 94.2376 21.1956 94.2376 21.073V12.7052C94.2376 12.46 94.4368 12.2607 94.682 12.2607H98.069C98.3142 12.2607 98.5134 12.46 98.5134 12.7052V24.9657C98.5134 25.2109 98.3142 25.4102 98.069 25.4102H94.9119C94.682 25.4102 94.4981 25.2416 94.4828 25.027C94.4521 24.7052 94.0843 24.5366 93.8238 24.7052C92.751 25.3642 91.479 25.686 90.023 25.686C88.5058 25.686 87.341 25.2416 86.5288 24.368Z" fill="#1A202C"/>
<path d="M21.5799 43.9847C17.7791 44.0919 9.9017 43.6475 7.00515 41.9157C6.68331 41.7624 6.3768 41.5632 6.07028 41.3793C3.58752 39.8161 1.97833 37.6092 1.27335 34.7433C0.49174 31.5862 0.139249 28.3831 0.0319695 25.1341C-0.167264 18.6054 0.568368 13.8238 1.39595 11.6015C2.60668 8.38314 4.72162 6.09962 7.74078 4.5977C8.56837 4.18391 9.4266 3.86207 10.3002 3.55556C19.8174 0.260536 34.3002 0.0613027 36.5837 0C36.8596 0 37.1201 0 37.396 0.0153257C37.6412 0.0306513 37.9017 0.0306513 38.1316 0.091954C38.055 0.137931 37.963 0.153257 37.8864 0.199234C37.7791 0.260536 37.6565 0.321839 37.5492 0.398467C37.4573 0.45977 37.3959 0.551724 37.304 0.628352C37.1048 0.766283 36.8442 0.81226 36.6143 0.91954C34.8212 1.7318 33.0741 2.62069 31.6182 3.96935C30.6067 4.88889 30.6067 5.40996 31.6028 6.34483C32.3385 7.01916 33.1048 7.72414 34.0243 8.10728C36.6143 9.18008 38.009 11.4023 39.3576 13.6092C40.9668 16.2299 41.4266 19.2031 41.5032 22.2529C41.5645 24.8123 41.5492 27.4023 41.1048 29.9004C41.258 33.2107 39.4956 38.7126 35.2657 41.5785C31.9094 43.8161 26.8519 43.8467 21.5799 43.9847Z" fill="#FF6D03"/>
<path d="M37.6707 1.13383C37.4255 1.34839 37.1343 1.50164 36.8738 1.68555C36.4753 1.99206 36.1688 2.34456 35.8623 2.74302C35.5405 3.15682 35.3719 3.72387 35.4638 4.24494C35.5711 4.87329 36.0309 5.24111 36.5213 5.57827C36.7359 5.7162 36.8891 5.86946 37.119 5.99206C37.6401 6.26793 38.0386 6.68172 38.4677 7.08019C39.7091 8.26026 40.5366 9.7162 41.1343 11.2947C42.0386 13.7009 42.5596 16.199 42.6056 18.7737C42.6669 21.7775 42.6976 24.766 42.4983 27.7545C42.3297 30.3446 41.9466 32.9193 41.1497 35.402C40.7818 36.5514 40.2301 37.7622 39.5098 38.8809C38.0999 41.1032 35.801 42.6051 33.211 43.0649C31.4945 43.3714 26.9581 43.7545 26.7129 43.7545C28.414 43.0955 30.437 42.3292 32.0615 41.5629C33.3642 40.9499 34.5596 40.107 35.5864 39.0955C36.6439 38.0534 37.7014 37.0265 38.4523 35.7392C39.4638 34.0227 40.3374 32.2449 40.6746 30.2373C40.7972 29.4863 41.1037 25.9308 41.1037 25.6242C41.1037 24.1836 41.1956 22.743 41.0884 21.3024C40.9198 19.0036 40.552 16.7354 39.5251 14.6204C39.1573 13.8541 38.8968 13.1032 38.4064 12.3829C37.9006 11.6626 37.3182 11.0036 36.6899 10.3752C35.9236 9.60892 34.9734 9.1798 34.1152 8.55145C33.5175 8.12233 32.8278 7.87712 32.2301 7.43268C31.1114 6.60509 30.0232 4.90394 31.3259 3.70854C32.1995 2.91161 33.165 2.20662 34.2378 1.67023C34.8508 1.36371 35.4485 1.02655 36.0769 0.750686C36.3681 0.612755 36.6899 0.536126 36.9811 0.398196C37.1497 0.321567 37.3336 0.244939 37.5022 0.16831C37.6094 0.122333 37.732 0.0610308 37.8546 0.0303795C37.9773 -0.000271879 38.1305 0.0150538 38.2684 0.0457051C38.9581 0.321567 37.8546 0.980571 37.6707 1.13383Z" fill="#F54D05"/>
<path d="M20.9348 40.6436C19.249 40.7816 17.6091 40.6436 15.9846 40.4137C13.1954 40.0306 10.6666 38.9425 8.58233 36.9961C7.3103 35.8007 6.43674 34.3141 5.83904 32.6743C5.02677 30.4521 4.59766 28.1379 4.59766 25.7471C4.59766 23.6168 4.73559 21.5172 5.1034 19.4176C5.60915 16.5517 6.97313 14.1762 9.19536 12.3065C9.68578 11.8927 10.1455 11.4482 10.6513 11.0651C11.9387 10.0996 13.3486 9.36394 14.9118 8.90417C16.6436 8.39842 18.4061 7.93865 20.1992 7.908C22.0229 7.87735 23.8773 7.908 25.6858 8.35245C26.2222 8.49038 26.7739 8.61298 27.3103 8.75091C29.8237 9.34861 31.9233 10.6973 33.839 12.3984C36.3678 14.636 37.6858 17.4406 38.0689 20.7509C38.2222 22.0996 38.3601 23.4636 38.3908 24.8122C38.4674 27.8314 38.0229 30.8046 36.7662 33.5938C35.1264 37.226 32.1839 39.249 28.4137 40.1839C27.7241 40.3524 26.9885 40.4137 26.2682 40.4597C24.4904 40.5364 22.6973 40.8122 20.9348 40.6436Z" fill="white"/>
<path d="M22.3609 23.5863C22.6521 22.1917 23.2651 21.0576 24.246 20.1074C27.1272 17.3181 32.5525 18.2836 33.8245 22.7127C34.7594 26.0231 32.7057 28.797 29.8552 29.6553C26.6214 30.6361 23.3264 28.751 22.4835 25.4867C22.4375 25.3334 22.4375 25.1648 22.4069 25.0116C22.3149 24.6438 22.269 24.5825 21.8092 24.6131C21.4414 24.6284 20.9663 24.4292 20.813 25.0116C20.7824 25.1342 20.767 25.2415 20.7364 25.3641C20.1693 27.6782 18.7287 29.1802 16.4299 29.7472C12.0161 30.8353 8.72107 27.1418 9.21149 23.6169C9.56398 21.0729 11.9548 18.6667 14.8054 18.5901C17.1655 18.5135 19.9854 20.0001 20.6751 22.9426C20.8437 23.6629 20.9969 23.7089 21.6406 23.6476C21.8552 23.6169 22.0544 23.6169 22.3609 23.5863Z" fill="#1A202C"/>
<path d="M21.6555 32.4594C20.8585 32.4288 19.9696 32.2295 19.1267 31.8311C18.621 31.5859 18.1459 31.2793 17.916 30.7276C17.8394 30.5437 17.8394 30.3292 18.0233 30.1912C18.2072 30.0533 18.4064 30.0686 18.575 30.2219C20.2302 31.8464 22.1459 31.6931 24.1382 31.0648C24.4754 30.9575 24.7666 30.7276 25.0271 30.4671C25.1651 30.3292 25.3336 30.2066 25.5022 30.1299C25.5942 30.084 25.7474 30.1299 25.8394 30.1759C25.9773 30.2525 26.0539 30.4058 26.0233 30.5897C25.9926 30.8962 25.7934 31.1108 25.5788 31.2794C25.0884 31.6778 24.552 32.0456 23.9083 32.1989C23.2187 32.3368 22.5137 32.4441 21.6555 32.4594Z" fill="#1A202C"/>
<path d="M15.0041 28.9506C12.5826 28.8893 10.7282 27.3721 10.2531 25.0732C9.96196 23.6479 10.3144 22.3299 11.2646 21.2724C13.119 19.1728 16.5826 18.8357 18.6976 21.1652C20.8125 23.4947 20.0156 27.0656 17.2417 28.4449C16.5213 28.8127 15.7397 28.9966 15.0041 28.9506Z" fill="white"/>
<path d="M28.1995 28.9191C24.8125 28.9038 22.5136 25.716 23.6171 22.6202C24.2148 20.9651 25.4715 20.0609 27.1113 19.6624C29.4102 19.0953 31.847 20.3367 32.7052 22.4976C33.6247 24.7965 32.5826 27.4019 30.345 28.4593C29.6707 28.7658 28.9351 28.9651 28.1995 28.9191Z" fill="white"/>
</g>
<defs>
<clipPath id="clip0_27486_71362">
<rect width="125.533" height="44" fill="white"/>
</clipPath>
</defs>
</svg>
