<svg width="12" height="14" viewBox="0 0 12 14" fill="none" xmlns="http://www.w3.org/2000/svg">
<path d="M3.01395 10.8109L3.85454 9.97035C3.0966 9.57673 2.46093 8.98306 2.01649 8.25377C1.57204 7.52447 1.33579 6.6874 1.33337 5.83335C1.33805 5.75553 1.32617 5.67759 1.2985 5.6047C1.27084 5.53181 1.22804 5.46561 1.17291 5.41048C1.11778 5.35535 1.05158 5.31254 0.978687 5.28488C0.905793 5.25722 0.827862 5.24534 0.750037 5.25002C0.672213 5.24534 0.594281 5.25722 0.521388 5.28488C0.448494 5.31254 0.382297 5.35535 0.327168 5.41048C0.272038 5.46561 0.22923 5.53181 0.20157 5.6047C0.173909 5.67759 0.162026 5.75553 0.166704 5.83335C0.167792 6.83893 0.430957 7.82685 0.930248 8.69972C1.42954 9.57258 2.14771 10.3002 3.01395 10.8109Z" fill="#A0AEC0"/>
<path d="M11.25 5.25002C11.1722 5.24534 11.0942 5.25722 11.0214 5.28488C10.9485 5.31254 10.8823 5.35535 10.8271 5.41048C10.772 5.46561 10.7292 5.53181 10.7015 5.6047C10.6739 5.67759 10.662 5.75553 10.6667 5.83335C10.663 7.06989 10.1701 8.25473 9.29575 9.1291C8.42138 10.0035 7.23654 10.4963 6 10.5C5.68649 10.5002 5.37377 10.4686 5.06667 10.4055L4.14558 11.3289C4.55738 11.4697 4.98379 11.5635 5.41667 11.6084V12.8334H3.08333C2.92862 12.8334 2.78025 12.8948 2.67085 13.0042C2.56146 13.1136 2.5 13.262 2.5 13.4167C2.5 13.5714 2.56146 13.7198 2.67085 13.8292C2.78025 13.9386 2.92862 14 3.08333 14H8.91667C9.07138 14 9.21975 13.9386 9.32915 13.8292C9.43854 13.7198 9.5 13.5714 9.5 13.4167C9.5 13.262 9.43854 13.1136 9.32915 13.0042C9.21975 12.8948 9.07138 12.8334 8.91667 12.8334H6.58333V11.6084C8.01806 11.4664 9.34912 10.7973 10.3189 9.73048C11.2887 8.66369 11.8284 7.27507 11.8333 5.83335C11.838 5.75553 11.8261 5.67759 11.7985 5.6047C11.7708 5.53181 11.728 5.46561 11.6729 5.41048C11.6177 5.35535 11.5515 5.31254 11.4786 5.28488C11.4058 5.25722 11.3278 5.24534 11.25 5.25002Z" fill="#A0AEC0"/>
<path d="M6.14886 9.32578C7.02293 9.28621 7.8506 8.92122 8.46928 8.30254C9.08797 7.68385 9.45296 6.85618 9.49253 5.98212L6.14886 9.32578Z" fill="#A0AEC0"/>
<path d="M4.73358 9.09125L9.5 4.32483V3.5C9.5 2.57174 9.13125 1.6815 8.47487 1.02513C7.8185 0.368749 6.92826 0 6 0C5.07174 0 4.1815 0.368749 3.52513 1.02513C2.86875 1.6815 2.5 2.57174 2.5 3.5V5.83333C2.50235 6.53781 2.71664 7.22528 3.11499 7.80632C3.51335 8.38736 4.07733 8.83508 4.73358 9.09125Z" fill="#A0AEC0"/>
<path d="M0.750018 12.8333C0.634664 12.8333 0.521906 12.7991 0.426001 12.735C0.330095 12.6709 0.255347 12.5798 0.211206 12.4732C0.167065 12.3666 0.155513 12.2494 0.178011 12.1362C0.200509 12.0231 0.256046 11.9192 0.337601 11.8376L10.8376 1.33757C10.8914 1.28186 10.9558 1.23742 11.0269 1.20684C11.0981 1.17627 11.1747 1.16018 11.2521 1.15951C11.3296 1.15883 11.4064 1.17359 11.4781 1.20292C11.5498 1.23225 11.6149 1.27557 11.6697 1.33034C11.7244 1.38511 11.7677 1.45024 11.7971 1.52193C11.8264 1.59362 11.8412 1.67043 11.8405 1.74789C11.8398 1.82534 11.8237 1.90189 11.7932 1.97306C11.7626 2.04422 11.7181 2.10859 11.6624 2.1624L1.16243 12.6624C1.05306 12.7718 0.904715 12.8333 0.750018 12.8333Z" fill="#A0AEC0"/>
</svg>
